<?xml version="1.0" encoding="iso-8859-1"?>
<!-- Generator: Adobe Illustrator 16.0.0, SVG Export Plug-In . SVG Version: 6.00 Build 0)  -->
<!DOCTYPE svg PUBLIC "-//W3C//DTD SVG 1.1//EN" "http://www.w3.org/Graphics/SVG/1.1/DTD/svg11.dtd">
<svg version="1.1" id="Capa_1" xmlns="http://www.w3.org/2000/svg" xmlns:xlink="http://www.w3.org/1999/xlink" x="0px" y="0px"
	 width="429.728px" height="429.728px" viewBox="0 0 429.728 429.728" style="enable-background:new 0 0 429.728 429.728;"
	 xml:space="preserve">
<g>
	<g>
		<path d="M262.938,232.35c5.536,7.225,13.896,11.584,22.41,11.962c0.925,0.096,1.85,0.144,2.75,0.144l2.39-0.107
			c3.153-0.204,6.077-0.883,8.798-2.042l61.65-31.588c15.517-7.989,22.116-27.166,14.682-42.754l-3.141-6.641
			c-5.212-10.926-15.96-17.727-28.06-17.727c-5.002,0-10.028,1.234-14.538,3.552l-23.148,11.881l-10.797-26.121
			c-2.197-4.636-5.146-8.73-8.58-12.262c26.913-5.692,47.222-30.312,47.222-59.711C334.576,27.331,308.07,0,275.471,0
			C242.87,0,216.38,27.331,216.38,60.934c0,8.253,1.604,16.105,4.495,23.274c-3.378-0.339-6.765-0.192-10.067,0.588
			c-1.015-0.084-2.042-0.126-3.086-0.126h-96.587c-4.735,0-9.4,0.742-13.922,2.207c-8.644,1.966-16.054,7.71-20.107,15.321
			c-0.73,1.177-1.333,2.393-1.925,3.759c-1.667,3.855-2.471,7.575-2.471,11.325v69.667c0,17.99,13.946,32.633,31.12,32.633h7.106
			c17.156,0,31.12-14.643,31.12-32.633v-29.349h19.912l-38.695,77.378c-3.894,7.565-4.576,16.272-2.03,24.379
			c-0.006,0.096-0.006,0.204-0.006,0.301v37.902H86.908c-19.774,0-35.855,16.5-35.855,36.772v9.271
			c0,20.296,16.081,36.786,35.855,36.786h79.125c19.756,0,35.84-16.496,35.84-36.786V322.95l92.206,95.837
			c6.786,7.062,15.854,10.94,25.515,10.94c9.668,0,18.741-3.879,25.532-10.94l6.299-6.552c13.697-14.237,13.697-37.439,0-51.677
			L242.967,247.866l12.851-25.665C257.738,225.889,260.128,229.306,262.938,232.35z"/>
		<path d="M287.438,219.866l0.654-0.066v-0.012C288.146,219.788,287.835,219.8,287.438,219.866z"/>
	</g>
</g>
<g>
</g>
<g>
</g>
<g>
</g>
<g>
</g>
<g>
</g>
<g>
</g>
<g>
</g>
<g>
</g>
<g>
</g>
<g>
</g>
<g>
</g>
<g>
</g>
<g>
</g>
<g>
</g>
<g>
</g>
</svg>
