<?xml version="1.0" encoding="UTF-8" standalone="no"?>
<svg
   xmlns:dc="http://purl.org/dc/elements/1.1/"
   xmlns:cc="http://creativecommons.org/ns#"
   xmlns:rdf="http://www.w3.org/1999/02/22-rdf-syntax-ns#"
   xmlns:svg="http://www.w3.org/2000/svg"
   xmlns="http://www.w3.org/2000/svg"
   xmlns:sodipodi="http://sodipodi.sourceforge.net/DTD/sodipodi-0.dtd"
   xmlns:inkscape="http://www.inkscape.org/namespaces/inkscape"
   version="1.1"
   id="svg2"
   xml:space="preserve"
   width="4000"
   height="2666.6667"
   viewBox="0 0 4000 2666.6667"
   sodipodi:docname="11092.eps"><metadata
     id="metadata8"><rdf:RDF><cc:Work
         rdf:about=""><dc:format>image/svg+xml</dc:format><dc:type
           rdf:resource="http://purl.org/dc/dcmitype/StillImage" /></cc:Work></rdf:RDF></metadata><defs
     id="defs6" /><sodipodi:namedview
     pagecolor="#ffffff"
     bordercolor="#666666"
     borderopacity="1"
     objecttolerance="10"
     gridtolerance="10"
     guidetolerance="10"
     inkscape:pageopacity="0"
     inkscape:pageshadow="2"
     inkscape:window-width="640"
     inkscape:window-height="480"
     id="namedview4" /><g
     id="g10"
     inkscape:groupmode="layer"
     inkscape:label="ink_ext_XXXXXX"
     transform="matrix(1.3333333,0,0,-1.3333333,0,2666.6667)"><g
       id="g12"
       transform="scale(0.1)"><path
         d="M 0,0 H 30000 V 20000 H 0 Z"
         style="fill:#ffffff;fill-opacity:1;fill-rule:nonzero;stroke:none"
         id="path14" /><path
         d="m 27179.1,3269.1 c -1558.5,0 -24261.28,-4.7 -24274.44,29.6 l -2.14,4.4 c 0,0 -2.24,4.2 -2.24,6.3 -8.68,17.2 -3498.014,4836.9 1926.54,8192.3 373.66,231.1 611.6,448.3 759.25,657.5 691.4,978.9 -594.97,1779.2 795.68,2983.5 1114.44,964.9 2287.36,762.1 3492.76,559.4 892.59,-150.2 1803.09,-300.3 2720.69,23.7 381.1,134.5 763.5,350.8 1146.3,682.9 215.5,186.6 451.6,350 704.5,491 38.8,21.7 77.9,42.9 117.4,63.5 151.4,78.8 308.4,150.1 470.1,214.2 108.6,42.9 219.2,82.7 331.9,119.2 h 0.1 c 178.9,58.1 362.6,108.1 550.2,150.4 266.4,60.1 540.7,104.8 820.5,135.1 122,13.4 245.1,23.8 368.9,31.7 1129,71.2 2324.2,-78.7 3419.8,-386.7 1243.2,-349.5 2358,-902.7 3102.1,-1567.3 281.8,-251.9 1563.2,-1554.7 553.1,-3345.5 -637.7,-1130.8 2033.9,-2210.6 2983.3,-3501.8 2413.7,-3282.6 37.6,-5500.6 15.7,-5543.4"
         style="fill:#ebf3fa;fill-opacity:1;fill-rule:nonzero;stroke:none"
         id="path16" /><path
         d="m 23632.1,7545.7 c -14.2,71.5 21.6,88.2 21.6,88.2 0,0 716.6,226.4 776.4,254 59.9,27.5 522.4,650.1 522.4,650.1 0,0 175.1,256.5 348.9,226.9 151,-25.7 222.3,-131.9 255.4,-237.5 39.5,-125.8 -3.3,-262.9 -106.1,-345.5 -230.8,-185.5 -693.4,-551.8 -807,-601.4 -252.9,-110.5 -967.7,-129.6 -967.7,-129.6 0,0 -32.8,38.6 -43.9,94.8"
         style="fill:#98baf4;fill-opacity:1;fill-rule:nonzero;stroke:none"
         id="path18" /><path
         d="m 23609.9,7640.7 c -36,19.1 -117.3,60.8 -119.7,48.9 -1.8,-8.6 4,-22 14.8,-35.4 -47.4,11.2 -94.7,16.4 -200.7,-18.3 -21.2,-7 -39.3,-21.8 -48.9,-42 -8.9,-18.6 -10.3,-40.7 19.6,-54.4 59.8,-27.4 41.1,-8.8 124.6,-49.2 83.4,-40.4 179.3,-41.2 231.2,1.2 l 74,22.2 -6.5,125.6 c 0,0 -43.7,-0.3 -88.4,1.4"
         style="fill:#ed975d;fill-opacity:1;fill-rule:nonzero;stroke:none"
         id="path20" /><path
         d="m 21767.4,3351.2 -2847.8,1131.9 c -307.2,122.2 -457.2,470.2 -335.1,777.3 l 1827.9,4598.4 c 122.1,307.2 470.1,457.3 777.3,335.2 l 534.5,-212.5 c -9.6,-147.4 61.7,-297.6 200.3,-352.7 145.9,-58 348.8,-50.7 431.1,101.8 l 1651.3,-656.4 c -6.5,-55 2.4,-113.4 26.8,-164.1 51.6,-107.4 192.3,-149.8 307.7,-116.8 82.5,-151 99.7,-336.2 31.1,-508.7 L 22544.7,3686.3 c -122.1,-307.2 -470.1,-457.3 -777.3,-335.1"
         style="fill:#ffa412;fill-opacity:1;fill-rule:nonzero;stroke:none"
         id="path22" /><path
         d="M 22784.4,5588.4 19716,6808.1 c -246.2,97.8 -366.5,376.8 -268.6,623.1 l 1186.1,2983.9 1090.7,-433.6 c -9.6,-147.4 61.7,-297.6 200.3,-352.7 145.9,-58 348.8,-50.7 431.1,101.8 l 336.7,-133.9 c -15.4,-53.5 -19.4,-111 -13.2,-168.8 19.2,-178.6 136,-359.4 315.4,-430.7 211.1,-83.9 448.4,57 547.8,261.7 l 464.6,-184.7 c -6.5,-55 2.4,-113.4 26.8,-164.1 51.6,-107.4 192.3,-149.8 307.7,-116.8 14.3,4.1 28.1,9.3 41.4,15.7 38.6,18.6 70.1,46.1 93.1,78.8 l 117.8,-46.9 L 23407.5,5857 c -97.8,-246.2 -376.8,-366.5 -623.1,-268.6"
         style="fill:#ffb93e;fill-opacity:1;fill-rule:nonzero;stroke:none"
         id="path24" /><path
         d="m 22360,7701.7 c -179.3,71.3 -296.2,252 -315.4,430.7 -7.5,70.6 0.1,140.7 25.1,203.7 40.6,102.2 115.7,180.4 206.6,226.4 l 0.7,0.3 c 106.9,54.1 235.7,63.9 355.9,16.1 222.6,-88.5 378.3,-359.2 289.8,-581.8 -88.5,-222.6 -340.1,-383.9 -562.7,-295.4"
         style="fill:#ffa412;fill-opacity:1;fill-rule:nonzero;stroke:none"
         id="path26" /><path
         d="m 22423.2,7779.1 c -37.4,0 -75.1,6.7 -111.9,21.3 -141.5,56.3 -238.1,191.4 -266.7,332 v 0 c -1.8,17.1 -2.7,34.1 -2.8,51.1 0,53 9,104.9 27.9,152.6 40.6,102.2 115.7,180.4 206.6,226.4 l 0.7,0.3 c 41.9,15.7 86.6,24 132.1,24 46.2,0 93.1,-8.5 138.6,-26.6 192.7,-76.6 327.5,-311.2 250.9,-503.9 -62,-155.9 -216.6,-277.2 -375.4,-277.2"
         style="fill:#ffaf28;fill-opacity:1;fill-rule:nonzero;stroke:none"
         id="path28" /><path
         d="m 23549.8,8601.2 c 97.2,46.8 215.9,26.4 296.6,-33.3 31.9,-23.7 57.9,-53.3 74.4,-87.5 26.6,-55.4 30.4,-115.9 14.9,-170.8 l -0.2,-0.3 c -18.2,-64.5 -63,-121.2 -128.1,-152.6 -120.7,-58.1 -291.1,-19.6 -349.2,101.1 -58,120.7 -29.1,285.3 91.6,343.4"
         style="fill:#ffa412;fill-opacity:1;fill-rule:nonzero;stroke:none"
         id="path30" /><path
         d="m 23727.4,8175.8 c -81.5,0 -163,38.3 -197.8,110.6 -50.3,104.6 -25.2,247.2 79.3,297.4 31.8,15.3 66.2,22.4 100.6,22.4 48.5,0 96.7,-14 136.9,-38.3 31.9,-23.7 57.9,-53.3 74.4,-87.5 16.3,-34 24,-69.9 24,-105.2 0,-22.3 -3.1,-44.4 -9.1,-65.6 l -0.2,-0.3 v 0 c -18.9,-46.8 -54.6,-86.9 -103.5,-110.4 -32.2,-15.5 -68.4,-23.1 -104.6,-23.1"
         style="fill:#ffaf28;fill-opacity:1;fill-rule:nonzero;stroke:none"
         id="path32" /><path
         d="m 22638.2,6665.6 c -61.1,118.2 -40.1,265.2 30.7,366.8 28.1,40.2 63.7,73.3 105.3,94.7 67.4,34.8 141.8,41.6 210,24.4 l 0.4,-0.2 c 80.2,-20.2 151.6,-73.4 192.6,-152.7 75.8,-146.7 34.3,-358.1 -112.5,-433.9 -146.7,-75.8 -350.7,-45.9 -426.5,100.9"
         style="fill:#ffa412;fill-opacity:1;fill-rule:nonzero;stroke:none"
         id="path34" /><path
         d="m 22881.3,6616.8 c -92.1,0 -181.2,39.9 -223.8,122.2 -48.2,93.3 -37.3,207.3 11.4,293.4 28.1,40.2 63.7,73.3 105.3,94.7 43.9,22.7 90.7,33.4 136.9,33.4 24.8,0 49.3,-3 73.1,-9 l 0.4,-0.2 c 58.3,-21.7 109,-64.3 139.8,-123.8 65.6,-127.1 29.6,-310.2 -97.4,-375.8 -44.8,-23.1 -95.7,-34.9 -145.7,-34.9"
         style="fill:#ffaf28;fill-opacity:1;fill-rule:nonzero;stroke:none"
         id="path36" /><path
         d="m 21125.2,7125.2 c -125.4,114.2 -165.5,299 -126,451.8 15.7,60.4 43.6,115.7 83.7,159.8 65.1,71.4 151,112.5 240,122.1 l 0.6,0.1 c 104.7,11.4 213.7,-20.5 297.7,-97 155.6,-141.7 199.8,-412.5 58.1,-568.2 -141.7,-155.5 -398.5,-210.3 -554.1,-68.6"
         style="fill:#ffa412;fill-opacity:1;fill-rule:nonzero;stroke:none"
         id="path38" /><path
         d="m 21307.2,7150.6 c -69.9,0 -137.7,21.9 -191.5,70.9 -99,90.1 -136.6,231.1 -116.5,355.5 15.7,60.4 43.6,115.7 83.7,159.8 65.1,71.4 151,112.5 240,122.1 l 0.6,0.1 c 79.2,-0.1 158.7,-28.5 221.8,-86 134.8,-122.6 173,-357.3 50.3,-492 -73.7,-80.9 -183.4,-130.4 -288.4,-130.4"
         style="fill:#ffaf28;fill-opacity:1;fill-rule:nonzero;stroke:none"
         id="path40" /><path
         d="m 20534.6,8006.2 c -101.6,17.2 -182.8,98.6 -212.7,189.7 -11.8,36 -15.7,73.5 -9.7,109.2 9.8,57.9 40.3,107.1 82.7,141.3 l 0.3,0.2 c 49.8,40.2 115.9,59.7 184,48.1 126.1,-21.3 237.6,-145.3 216.3,-271.5 -21.4,-126 -134.8,-238.3 -260.9,-217"
         style="fill:#ffa412;fill-opacity:1;fill-rule:nonzero;stroke:none"
         id="path42" /><path
         d="m 20525.1,8050.1 c -8.9,0 -17.9,0.7 -26.9,2.3 -80.2,13.5 -145.7,73.3 -176.3,143.5 v 0 c -8.1,24.8 -12.5,50.2 -12.5,75.3 0,11.4 1,22.7 2.8,33.9 9.8,57.9 40.3,107.1 82.7,141.3 l 0.3,0.2 c 31.5,20.2 68.8,31.7 107.9,31.7 11.1,0 22.4,-0.9 33.7,-2.8 109.2,-18.5 205.8,-126 187.3,-235.1 -17,-100.2 -101,-190.3 -199,-190.3"
         style="fill:#ffaf28;fill-opacity:1;fill-rule:nonzero;stroke:none"
         id="path44" /><path
         d="m 22217.4,6145.1 c -83.1,-34.5 -180.8,-12.2 -245.4,41.1 -25.4,21.1 -45.7,47 -57.8,76.2 -19.7,47.3 -20.1,97.8 -4.7,142.7 l 0.1,0.3 c 18.1,52.9 57.9,98 113.5,121.2 103.1,42.8 243.1,3.1 286,-100 42.8,-103 11.3,-238.7 -91.7,-281.5"
         style="fill:#ffa412;fill-opacity:1;fill-rule:nonzero;stroke:none"
         id="path46" /><path
         d="m 22095.6,6147.9 c -44.3,0 -88.2,14.2 -123.6,38.3 v 0 c -25.4,21.1 -45.7,47 -57.8,76.2 -10.6,25.5 -15.6,51.9 -15.6,77.9 0,22.2 3.8,44.1 10.9,64.8 l 0.1,0.3 c 17.8,38 49.4,69.8 91.2,87.2 23.9,10 50.1,14.8 76.3,14.8 71.8,0 144.1,-36 171.3,-101.3 37.1,-89.3 9.8,-206.8 -79.4,-243.9 -23.6,-9.8 -48.6,-14.3 -73.4,-14.3"
         style="fill:#ffaf28;fill-opacity:1;fill-rule:nonzero;stroke:none"
         id="path48" /><path
         d="m 20676.9,9532.2 c 48.9,162.4 198.4,278.2 353.4,308.5 61.2,11.9 123.2,10.5 180.2,-6.7 92.5,-27.9 166.6,-87.8 213.7,-163.9 l 0.3,-0.5 c 55.4,-89.6 73.6,-201.7 40.8,-310.4 -60.7,-201.6 -286.1,-358.1 -487.6,-297.4 -201.4,60.8 -361.5,269 -300.8,470.4"
         style="fill:#ffa412;fill-opacity:1;fill-rule:nonzero;stroke:none"
         id="path50" /><path
         d="m 21098.8,9163.4 c -26.3,0 -52.6,3.7 -78.5,11.5 -174.5,52.6 -313.2,232.9 -260.6,407.4 38.6,128.1 149.6,222.8 270.6,258.4 26.3,5.1 52.8,7.7 79,7.7 34.6,0 68.7,-4.6 101.2,-14.4 92.5,-27.9 166.6,-87.8 213.7,-163.9 l 0.3,-0.5 c 34.1,-71.5 42.7,-155.5 18.1,-237.2 -44.8,-148.6 -193,-269 -343.8,-269"
         style="fill:#ffaf28;fill-opacity:1;fill-rule:nonzero;stroke:none"
         id="path52" /><path
         d="m 25501.4,8868.4 c 0,0 -179.7,-213.2 -408.6,-124 0,0 -49.2,119.1 -49.9,206.8 -0.1,10.8 -0.2,21.3 -0.4,31.3 -1.2,98.8 -4.5,154.3 -4.5,154.3 h 0.2 c 10.4,4.4 349.9,143.7 349.6,132.2 -5.8,-267.4 113.6,-400.6 113.6,-400.6"
         style="fill:#ffb27d;fill-opacity:1;fill-rule:nonzero;stroke:none"
         id="path54" /><path
         d="m 25353.7,9205.2 c -32.7,-60.7 -145.1,-179.4 -311.2,-222.7 -1.2,98.8 -4.5,154.3 -4.5,154.3 h 0.2 c 9.4,2.5 325.2,86.3 315.5,68.4"
         style="fill:#ed975d;fill-opacity:1;fill-rule:nonzero;stroke:none"
         id="path56" /><path
         d="m 24966.9,9147.1 c 0,0 381.7,-89.8 433.9,148.8 52.3,238.6 136.7,387.7 -104.8,455.1 -241.5,67.4 -309,-13.3 -345.8,-88.7 -36.8,-75.4 -81.3,-485.8 16.7,-515.2"
         style="fill:#ffb27d;fill-opacity:1;fill-rule:nonzero;stroke:none"
         id="path58" /><path
         d="m 25387.8,9230.9 c 5.2,-3.4 35.8,-57.8 191.4,252.1 24.4,48.7 92.6,183.1 35.6,276.1 -56.9,93 -235,146.3 -402.7,178.1 -167.6,31.8 -123.3,-137.2 -252.8,-130.4 -21.5,1.1 -27.8,-10.2 -31,-17.7 -28,-64.9 18.8,-151.8 89.3,-156.8 61.5,-4.4 103.7,13.4 141.3,1.6 60.3,-19 81.6,-114.1 86.2,-144.6 4.5,-30.5 11.4,-55.8 87.3,-28.6 75.9,27.2 34.3,-107.5 22.2,-133.3 0,0 -10.3,-68.6 33.2,-96.5"
         style="fill:#233862;fill-opacity:1;fill-rule:nonzero;stroke:none"
         id="path60" /><path
         d="m 25799.8,3276.5 h 236 c 49.5,0 104.5,49.5 118.3,140.2 13.8,90.8 115.5,140.3 137.5,214.6 22.1,74.3 -90.8,178.8 -90.8,178.8 l -18.8,24.2 -19.6,25.3 -187.1,-44 c 0,0 -4.6,-44.5 -7.5,-101.2 -2,-41 -3.1,-88.3 -0.7,-129.8 5.5,-99.1 -27.8,-205.7 -115.7,-225 -88.1,-19.3 -51.6,-83.1 -51.6,-83.1"
         style="fill:#202f54;fill-opacity:1;fill-rule:nonzero;stroke:none"
         id="path62" /><path
         d="m 24762,3276.5 h 612.7 c 5.9,1.1 10.3,2.4 13,3.7 40.9,20.5 28.1,177.2 23.2,225.5 -0.9,9 -1.6,14.3 -1.6,14.3 0,0 -215.5,172.3 -245.1,40.3 -1,-4.1 -2,-8.1 -3.2,-12.1 v -0.1 c -37.4,-123.4 -204.6,-179.5 -301.2,-195.1 -73.8,-12 -92.9,-55 -97.8,-76.5"
         style="fill:#202f54;fill-opacity:1;fill-rule:nonzero;stroke:none"
         id="path64" /><path
         d="m 24885.5,6814.2 c 0,0 32.7,-408.2 71.2,-899 52.2,-666.6 115.1,-1485.5 121.3,-1640.6 10.8,-269.4 53.9,-700.3 53.9,-700.3 0,0 102.3,-102.3 307,-59.2 0,0 182.5,615.1 234.6,1265.9 0.8,10.7 1.6,21.4 2.4,32.2 48.5,662.5 123.9,2057.6 123.9,2057.6 l -914.3,-56.6"
         style="fill:#2b478b;fill-opacity:1;fill-rule:nonzero;stroke:none"
         id="path66" /><path
         d="m 24885.5,6814.2 c 0,0 32.7,-408.2 71.2,-899 L 25673.5,4781 c 0.8,10.7 1.6,21.4 2.4,32.2 48.5,662.5 123.9,2057.6 123.9,2057.6 l -914.3,-56.6"
         style="fill:#233862;fill-opacity:1;fill-rule:nonzero;stroke:none"
         id="path68" /><path
         d="m 25089.4,6901.3 c 0,0 331.2,-1365.8 584.1,-2120.3 252.9,-754.5 263.5,-1119.7 263.5,-1119.7 0,0 286.6,56 317.7,111.8 0,0 98.2,1292.2 -96.7,1661.5 -110.1,208.7 -91.6,692.3 -91.6,912.6 0,408.1 -127.3,813.4 -127.3,813.4 l -849.7,-259.3"
         style="fill:#2b478b;fill-opacity:1;fill-rule:nonzero;stroke:none"
         id="path70" /><path
         d="m 26223.1,6262 c 4,-25 -1224.2,-257.6 -1388.9,-80.8 -3.2,3.4 -20.5,513.3 -34.6,910.6 -6.3,184.8 -12.1,345.2 -15.3,418.9 -0.8,18.5 -1.4,31.5 -1.9,38.1 -0.6,8.6 -1.2,17.1 -1.8,25.7 -10,144.3 -17.3,286.4 -19.6,412.9 -2,109.6 -0.3,207.5 6.6,284.7 1.3,15.9 3,30.8 4.9,44.8 25,189.8 117,323.2 203.2,423.5 l 71.2,78.8 c 80.9,-7 164.2,7 243.3,57.7 85.5,54.9 168.6,38.8 185.8,29.1 132.7,-77.6 248.5,-200.4 320.4,-459.4 38.7,-139.4 422.8,-2157 426.7,-2184.6"
         style="fill:#b0d0ff;fill-opacity:1;fill-rule:nonzero;stroke:none"
         id="path72" /><path
         d="m 25165.9,10012.5 c 0,0 -39.5,196 98.5,320.6 138.1,124.5 324.3,97.8 428.5,-16.7 32.2,-35.4 215.7,0.4 320,-110.7 104.4,-111.1 86.2,-287.4 50.3,-368.2 -32.8,-74.1 77.2,-232.7 -71.5,-351.9 -174.3,-139.7 -440.3,-21 -440.3,-21 0,0 -182.6,546.2 -385.5,547.9"
         style="fill:#739af0;fill-opacity:1;fill-rule:nonzero;stroke:none"
         id="path74" /><path
         d="m 24940.6,9803.6 c 0,0 572.5,-50.5 541.5,-494.3 l 231.8,329.5 c 0,0 -17,423.5 -553,429.3 l -220.3,-264.5"
         style="fill:#afcdfb;fill-opacity:1;fill-rule:nonzero;stroke:none"
         id="path76" /><path
         d="m 25540.1,8109.1 c 0,0 -183.7,-850.4 -740.5,-1017.3 -6.3,184.8 -12.1,345.2 -15.3,418.9 l 755.8,598.4"
         style="fill:#98baf4;fill-opacity:1;fill-rule:nonzero;stroke:none"
         id="path78" /><path
         d="m 23821.2,7229.5 c -38.8,12.5 -126.1,39.5 -126.4,27.3 -0.2,-8.7 7.8,-20.9 20.8,-32.2 -48.6,2.7 -96.2,-0.3 -194.5,-52.9 -19.7,-10.5 -35,-28.3 -40.9,-49.9 -5.5,-19.9 -3.1,-41.9 28.7,-50.2 63.7,-16.6 42.1,-1.5 131.2,-26.8 89.2,-25.3 183.8,-9.4 227.6,41.4 l 69,34.7 -28.2,122.6 c 0,0 -43,-8 -87.3,-14"
         style="fill:#ed975d;fill-opacity:1;fill-rule:nonzero;stroke:none"
         id="path80" /><path
         d="m 23859.5,7167 c -26.4,67.9 6,90.7 6,90.7 0,0 666.4,347.3 720.6,384.8 54.2,37.5 401.6,730.9 401.6,730.9 0,0 127.8,283 304.2,284.1 153.2,0.9 241.8,-91.3 292.8,-189.6 60.7,-117.1 42.3,-259.6 -44.6,-358.7 -195.1,-222.7 -587.1,-663.8 -690.4,-732.4 -229.8,-152.7 -930.5,-295.5 -930.5,-295.5 0,0 -38.9,32.3 -59.7,85.7"
         style="fill:#b0d0ff;fill-opacity:1;fill-rule:nonzero;stroke:none"
         id="path82" /><path
         d="m 25416.6,9039.6 c 0,0 85.6,-82.7 59.4,-133.6 0,0 -199.1,-154.3 -477.4,-137.4 0,0 27.7,46.3 73,67.8 45.3,21.5 293.8,128.6 345,203.2"
         style="fill:#98baf4;fill-opacity:1;fill-rule:nonzero;stroke:none"
         id="path84" /><path
         d="m 16920.1,5554.2 h -95.1 v 3094 h 95.1 v -3094"
         style="fill:#afcdfb;fill-opacity:1;fill-rule:nonzero;stroke:none"
         id="path86" /><path
         d="m 18937.3,4670.7 h -95.2 v 3977.5 h 95.2 V 4670.7"
         style="fill:#afcdfb;fill-opacity:1;fill-rule:nonzero;stroke:none"
         id="path88" /><path
         d="m 15567.7,13380.9 c 31.3,-56.4 162,23.3 185.2,35.8 31.4,12.2 82.6,3.6 82.6,3.6 0,0 25.3,133.4 -7.5,131.3 -43,-2.7 -190.3,60.7 -225.9,43.7 -35.5,-17 -69.2,-153.9 -34.4,-214.4"
         style="fill:#ed985f;fill-opacity:1;fill-rule:nonzero;stroke:none"
         id="path90" /><path
         d="m 17267.1,15484.8 c 4.6,16 656.1,-178.8 661.8,-205.3 52.3,-244.5 1,-299.1 -83.2,-253.3 -54,29.4 -205.7,-196.7 -205.7,-196.7 l -448.7,592.8 75.8,62.5"
         style="fill:#2c3a64;fill-opacity:1;fill-rule:nonzero;stroke:none"
         id="path92" /><path
         d="m 15794,13550.1 -21.7,-111.6 c 0,0 7,-2.4 19.5,-5.9 39.6,-11 135.1,-38.9 245.1,-65 120,-29.5 258.2,-58.2 359.9,-63.9 38.1,-2.3 70.9,-1.3 95.8,4.1 139.5,29.6 403.6,177.6 602.1,348.7 5.3,4 9.8,8.3 14.4,12.7 104.2,91.2 188.8,188.4 224.1,277.3 22.1,54.2 32.8,103.7 36,148.8 4.3,59.7 -5.1,111.2 -19,152.6 -1.6,6.5 -3.3,13 -7,19.2 -24.4,64.8 -58.1,100.3 -58.1,100.3 -17.9,16.3 -44.5,13.8 -77,-3.2 l -0.3,-0.9 c -26.4,-13.4 -58.2,-36.6 -92,-68 -1.3,-0.5 -2.5,-1.1 -2.8,-1.9 -7.1,-6.4 -14.6,-13.6 -23.2,-21.4 -2.4,-1.1 -4.2,-3.4 -5.7,-4.9 -16.7,-16.7 -33.8,-34.3 -51.2,-52.8 -190.8,-196.6 -431.2,-511.5 -564.1,-583.7 -24.5,-13.3 -78.7,-24.9 -146.1,-35.2 -90.5,-13.5 -205,-24.3 -304.3,-32.1 -124.4,-9.2 -224.4,-13.2 -224.4,-13.2"
         style="fill:#ed985f;fill-opacity:1;fill-rule:nonzero;stroke:none"
         id="path94" /><path
         d="m 16322.7,13595.4 c -5.9,-63.1 -3.1,-181.8 74.1,-291.7 38.1,-2.3 70.9,-1.3 95.8,4.1 139.5,29.6 403.6,177.6 602.1,348.7 5.3,4 9.8,8.3 14.4,12.7 104.2,91.2 188.8,188.4 224.1,277.3 22.1,54.2 32.8,103.7 36,148.8 4.3,59.7 -5.1,111.2 -19,152.6 -1.6,6.5 -3.3,13 -7,19.2 -24.4,64.8 73.5,163.6 73.5,163.6 -17.9,16.3 -176.1,-49.5 -208.6,-66.5 l -0.3,-0.9 c -26.4,-13.4 -58.2,-36.6 -92,-68 -1.3,-0.5 -2.5,-1.1 -2.8,-1.9 -7.1,-6.4 -14.6,-13.6 -23.2,-21.4 -2.4,-1.1 -4.2,-3.4 -5.7,-4.9 -16.7,-16.7 -33.8,-34.3 -51.2,-52.8 -190.8,-196.6 -431.2,-511.5 -564.1,-583.7 -24.5,-13.3 -78.7,-24.9 -146.1,-35.2"
         style="fill:#b0d0ff;fill-opacity:1;fill-rule:nonzero;stroke:none"
         id="path96" /><path
         d="M 17301.2,9003.7 17424,8958 c 0,0 533.1,739.3 598.7,1389.8 11.7,116.2 7.8,228.7 -17.5,332.6 0,0 5.2,29.8 14.3,82.4 4.2,24.5 9.4,54.1 15.3,87.9 17.3,99.3 41.2,235.2 68.5,389.9 62.7,356 143.9,811.2 207.1,1145.7 l -33.1,10.7 -357.8,115.4 -74,234.9 -266.4,70.1 c 0,0 -59.5,-116.4 -112.7,-666.4 -9.9,-72.2 -18.8,-151.7 -25.5,-238 -20.7,-263.3 -22.2,-590 25.4,-963.5 12.2,-95.6 27.6,-194.2 46.8,-295.6 14,-74.4 16.1,-175.7 10.2,-292 -26.9,-531.8 -222.1,-1358.2 -222.1,-1358.2"
         style="fill:#f99746;fill-opacity:1;fill-rule:nonzero;stroke:none"
         id="path98" /><path
         d="m 17440.9,11913 578.6,-1150.2 c 4.2,24.5 9.4,54.1 15.3,87.9 17.3,99.3 41.2,235.2 68.5,389.9 62.7,356 143.9,811.2 207.1,1145.7 l -33.1,10.7 -357.8,115.4 -74,234.9 -266.4,70.1 c 0,0 -59.5,-116.4 -112.7,-666.4 -9.9,-72.2 -18.8,-151.7 -25.5,-238"
         style="fill:#ed7d2b;fill-opacity:1;fill-rule:nonzero;stroke:none"
         id="path100" /><path
         d="m 17695.4,12669.8 13.4,114.9 c 224.4,-59.6 824,166.5 824,166.5 0,0 217.3,-191.1 188.8,-649.1 -13.9,-223.6 -39.4,-1173.6 -65.9,-1454.7 -9.7,-101.9 -18.1,-174.4 -21.5,-203.3 l -0.1,-0.3 c -1,-8.9 2.1,-17.2 6.5,-24.9 39.2,-66.4 71.6,-135.6 98.1,-206.3 260.9,-695.1 -40.1,-1551.2 -40.1,-1551.2 l -78.2,31.5 c 0,0 -171.3,952.7 -310.4,1373.5 -23.7,71.4 -46.3,127.5 -67.1,161 -60.5,97.7 -116.7,257.3 -167.6,447.2 -96.4,358.8 -174,825.7 -225.6,1186 -7.1,-0.3 -154.3,609.2 -154.3,609.2"
         style="fill:#f99746;fill-opacity:1;fill-rule:nonzero;stroke:none"
         id="path102" /><path
         d="m 17266.8,14062.9 c 70.4,-32.6 155.5,-54.9 258.4,-60.5 385.8,-21.1 473.3,317 489.3,541.5 -55.6,20.1 -104.3,18.2 -132.4,16.7 -27.4,-1.5 -55.9,-4.3 -79.5,-7.2 -47.2,24.7 -131.9,144.4 -180.9,344.7 l -16.7,-7.7 -278.3,-130.9 c 0,0 29.6,-90.6 51.4,-177.2 17,-67.9 29.3,-133.4 19,-151.7 -21.9,-9 -35,-14.6 -35,-14.6 l -0.1,-0.3 c -2.8,-7.1 -63.4,-161.3 -95.2,-352.8"
         style="fill:#ffb27d;fill-opacity:1;fill-rule:nonzero;stroke:none"
         id="path104" /><path
         d="m 17170.3,13809.8 c 2.9,-7.7 6.1,-15.2 9.6,-22.9 97.7,-210.5 146.8,-2153.2 146.8,-2153.2 -25.8,-156.8 1233.6,-175.1 1518.4,76.7 0,0 -115.9,1530 -560.8,2685.5 l -127.8,-108.9 c -21.2,15.7 -48.2,22.3 -46.2,42.1 0.9,9.3 2.1,18.6 3.5,27.9 15,97.9 55.9,186.7 55.9,186.7 -103.5,41.9 -367.1,9.7 -367.1,9.7 l -197.5,-149.1 -208,26.3 c -165.1,-64.9 -256.3,-146.9 -256.3,-146.9 99.5,-64.5 -47.5,-269.8 29.5,-473.9"
         style="fill:#b0d0ff;fill-opacity:1;fill-rule:nonzero;stroke:none"
         id="path106" /><path
         d="m 17326.7,14759.5 c 0,0 29.6,-90.5 51.4,-177.3 162.7,45.4 212.1,216.4 227,308.1 l -278.4,-130.8"
         style="fill:#ed985f;fill-opacity:1;fill-rule:nonzero;stroke:none"
         id="path108" /><path
         d="m 17262.6,14736.3 c 0,0 399.5,-6 399.4,242.9 -0.2,248.8 51.3,415.7 -203.8,430 -255,14.3 -304.6,-80.7 -324.7,-163.7 -20.2,-83.1 25.1,-501.2 129.1,-509.2"
         style="fill:#ffb27d;fill-opacity:1;fill-rule:nonzero;stroke:none"
         id="path110" /><path
         d="m 17145.1,15383.9 c 61.7,74.9 108.4,58.5 134.6,36.1 218.1,120.4 359.1,-56.9 359.1,-56.9 27,-178.5 155.9,-280.6 155.9,-280.6 0,0 -72.7,-45.1 -240.6,-2.2 -51.3,13.1 -97.2,49.5 -136.2,93.6 68.2,-113.7 160.8,-195.6 160.8,-195.6 -200.7,92.3 -281.7,371.1 -289.7,400.6 -24.4,-22 -72.4,-69.6 -87,-116.3 -19.8,-63.4 -28.5,-193.8 -66.6,-189.5 0,0 -82.7,198.3 9.7,310.8"
         style="fill:#2c3a64;fill-opacity:1;fill-rule:nonzero;stroke:none"
         id="path112" /><path
         d="m 18244.4,8797.6 h 618.2 c 0,0 14.8,94.2 -17.5,165.7 -30.9,68.6 -79.4,99.7 -67.8,182.7 -39.3,-40.4 -103.3,-85.7 -192.7,-73.7 -10.9,-17.7 -70.6,-112.7 -107.2,-139 -40.4,-29 -220.6,-18.7 -233,-135.7"
         style="fill:#2b478b;fill-opacity:1;fill-rule:nonzero;stroke:none"
         id="path114" /><path
         d="m 16917.1,8797.6 h 618.2 c 0,0 23.1,98.6 -17.5,165.7 -35.9,59.4 -22.1,93.2 4.5,142.3 -28,-11.5 -64.3,-21.9 -104.1,-19.6 -30.8,1.7 -63.4,15.7 -92,32.3 -26.6,-30.3 -140.5,-159.4 -176.1,-185 -40.4,-29 -220.5,-18.7 -233,-135.7"
         style="fill:#2b478b;fill-opacity:1;fill-rule:nonzero;stroke:none"
         id="path116" /><path
         d="m 17820,13884.3 c -4,20.1 -21.3,33.7 -38.6,30.3 -17.3,-3.5 -28.1,-22.7 -24,-42.8 4,-20.2 21.3,-33.8 38.6,-30.4 17.3,3.5 28.1,22.7 24,42.9"
         style="fill:#233862;fill-opacity:1;fill-rule:nonzero;stroke:none"
         id="path118" /><path
         d="m 17441.4,13846.7 c -4,20.2 -21.3,33.8 -38.6,30.3 -17.3,-3.4 -28.1,-22.6 -24,-42.8 4,-20.2 21.3,-33.8 38.6,-30.3 17.3,3.5 28,22.6 24,42.8"
         style="fill:#233862;fill-opacity:1;fill-rule:nonzero;stroke:none"
         id="path120" /><path
         d="m 17867,13441.3 c -4.1,20.2 -21.3,33.7 -38.6,30.3 -17.3,-3.5 -28.1,-22.6 -24.1,-42.8 4.1,-20.2 21.4,-33.8 38.7,-30.3 17.3,3.4 28,22.6 24,42.8"
         style="fill:#233862;fill-opacity:1;fill-rule:nonzero;stroke:none"
         id="path122" /><path
         d="m 17488.4,13403.7 c -4.1,20.2 -21.3,33.8 -38.7,30.4 -17.2,-3.5 -28,-22.7 -24,-42.9 4.1,-20.2 21.4,-33.7 38.6,-30.3 17.3,3.5 28.1,22.6 24.1,42.8"
         style="fill:#233862;fill-opacity:1;fill-rule:nonzero;stroke:none"
         id="path124" /><path
         d="m 18279.4,14022.1 c 0,0 -44.6,-1277.4 -990.7,-1364.6 l -14.5,273 514.5,409.3 490.7,682.3"
         style="fill:#98baf4;fill-opacity:1;fill-rule:nonzero;stroke:none"
         id="path126" /><path
         d="m 16885.8,12868.9 32.4,-118.8 c 0,0 40.8,7.2 105.6,19.2 19.3,3.6 30.1,6 30.1,6 52.8,10.8 115.2,24 182.4,39.6 h 1.3 c 93.6,22.8 198.1,49.2 291.7,78 21.6,6.1 43.2,13.3 63.6,20.5 14.4,4.8 27.6,9.6 40.8,14.4 l -196.8,260.5 c -14.5,-10.8 -30.1,-20.4 -45.7,-30 -80.4,-51.6 -171.7,-104.5 -254.5,-151.3 -51.6,-30 -100.9,-56.4 -141.7,-79.2 -66,-36 -109.2,-58.9 -109.2,-58.9"
         style="fill:#ffb27d;fill-opacity:1;fill-rule:nonzero;stroke:none"
         id="path128" /><path
         d="m 17391.4,13158.7 c 36,-126.6 87.3,-210.5 138.3,-266 21.6,6.6 42.9,13.5 63.3,20.4 77,26.9 144,55.7 189.5,84.6 4.6,2.7 8.4,5.5 13,9.2 108.7,78.9 237.8,311.2 338,560.1 14,34.3 27,68.7 40,102.2 46.4,124.4 83.6,247.1 105.9,352.9 14,63.2 23.2,120.7 25.1,168.1 0.9,16.7 1.9,32.6 0.9,47.4 -1.8,269.3 -135.6,306.5 -135.6,306.5 -2.8,1 -5.6,1.9 -9.3,2.8 -23.2,3.7 -47.3,-12 -72.4,-42.8 -31.7,-38 -65,-100.2 -99.4,-175.4 -53,-119.8 -108.7,-274.9 -160.7,-429.1 -28.8,-84.6 -56.7,-169.2 -84.5,-247.2 -15.8,-47.3 -31.6,-91.9 -46.4,-132.8 -28.9,-78 -54.9,-141.2 -78,-181.1 -15,-26 -57.7,-62.2 -114.3,-103.1 -33.5,-24.3 -72.1,-50.2 -113.4,-76.7"
         style="fill:#b0d0ff;fill-opacity:1;fill-rule:nonzero;stroke:none"
         id="path130" /><path
         d="m 17534,15636 c 0,0 10,196.4 173.5,284 163.6,87.6 337.5,17.1 411,-118.7 22.7,-42 209,-51.3 283.5,-183.9 74.5,-132.6 14.6,-299 -39.5,-368.6 -49.5,-63.9 19,-243.9 -153.5,-323.7 -202.3,-93.7 -431.5,85 -431.5,85 0,0 -47.4,575.7 -243.5,625.9"
         style="fill:#739af0;fill-opacity:1;fill-rule:nonzero;stroke:none"
         id="path132" /><path
         d="m 17267.1,15484.8 c 0,0 542.4,-186 406.1,-608.5 l 303.4,263.6 c 0,0 84.9,414.3 -432.8,548.3 l -276.7,-203.4"
         style="fill:#b0d0ff;fill-opacity:1;fill-rule:nonzero;stroke:none"
         id="path134" /><path
         d="m 17838.4,14557.1 c 0,0 -60.2,55.8 -112.4,81 0,0 -138.9,-158.2 -138.9,-188.3 0,-30.2 31.9,-84.6 31.9,-84.6 0,0 106.8,19.9 219.4,191.9"
         style="fill:#8cb8ed;fill-opacity:1;fill-rule:nonzero;stroke:none"
         id="path136" /><path
         d="m 17390,14530.9 c 0,0 -61.3,-57.7 -35.1,-108.5 0,0 205.8,-160.3 483.5,-143.5 0,0 -27.7,46.2 -72.9,67.7 -45.2,21.4 -324.4,109.9 -375.5,184.3"
         style="fill:#739af0;fill-opacity:1;fill-rule:nonzero;stroke:none"
         id="path138" /><path
         d="m 16699,17289.1 -1476.1,-2943 -13.2,-26.2 -21.5,-43 -83.8,-167.2 -189.4,-377.5 -360.5,-718.7 -76.4,-152.4 -77.4,-154.5 -248.6,-495.6 -225.6,-449.7 -209.6,-418 -86,-171.4 c -36.6,-3.1 -73.5,-6.1 -110.4,-9 l 85.7,170.8 459.7,916.6 235.2,468.9 77.5,154.8 146.4,291.8 303.5,605.1 215.6,429.9 98.5,196.5 43.7,86.9 1428.1,2847.4 84.6,-42.5"
         style="fill:#ffd6a1;fill-opacity:1;fill-rule:nonzero;stroke:none"
         id="path140" /><path
         d="m 16822,17155.1 c -40.2,-59.7 -706.7,-1366.6 -1465.9,-2862 -51.1,-101 -102.9,-202.7 -154.8,-305.1 -193,-380.3 -389.6,-768.1 -581.2,-1146.5 -26.1,-51.5 -52.1,-102.7 -78,-153.8 -5.8,-11.6 -11.8,-23.3 -17.6,-34.9 -121.8,-240.4 -241,-475.8 -355.2,-701.8 -104.8,-206.8 -205.4,-405.8 -300.2,-593.4 -29.8,-58.5 -58.8,-115.9 -87.2,-172.2 -36.8,-3.3 -73.8,-6.7 -111.1,-10 21.5,42.5 50.7,100.3 86.7,171.7 53.7,106 122.4,241.8 202.9,400.9 15.3,30 30.9,60.8 46.9,92.6 123,243 269.7,532.7 430,849.3 1.9,3.8 3.8,7.4 5.7,11.2 25.7,50.8 51.8,102.2 78,154.2 h 0.1 c 86.5,171 176.5,348.5 268.5,529.6 113.4,223.9 229.6,453.4 346.1,683 11.1,21.8 22.1,43.4 33.1,65.2 33.7,66.5 66.8,131.3 99,195 1451.4,2859 1471.7,2878.3 1484,2889.8 l 64.9,-68.8 c 3.2,3.1 5,5.7 5.3,6"
         style="fill:#ffd6a1;fill-opacity:1;fill-rule:nonzero;stroke:none"
         id="path142" /><path
         d="m 15380.4,15557.9 -44.9,-57.5 -1976.8,-2526.5 -121.3,-155 -1226.5,-1567.6 -129.8,-165.8 c -40.4,-0.6 -80.8,-1.3 -121.4,-1.9 l 129.1,165.2 1234.5,1577.7 121.5,155.5 2061.1,2634.2 57.3,-44.8 17.2,-13.5"
         style="fill:#ffd6a1;fill-opacity:1;fill-rule:nonzero;stroke:none"
         id="path144" /><path
         d="m 14906.8,15282.3 -2211.8,-2269.1 -152.8,-156.7 -1568.7,-1609.4 -156.7,-160.7 c -43.3,0.8 -86.4,1.7 -129.4,2.7 l 155.9,160 1571.7,1612.4 153.3,157.4 2270.7,2329.5 67.8,-66.1"
         style="fill:#ffd6a1;fill-opacity:1;fill-rule:nonzero;stroke:none"
         id="path146" /><path
         d="m 17427.1,13636.9 -44.8,-57.5 -1976.9,-2526.5 -121.2,-154.9 -1226.6,-1567.7 -129.7,-165.8 c -40.4,-0.6 -80.9,-1.3 -121.4,-1.8 l 129.1,165.1 1234.5,1577.7 121.5,155.5 2061.1,2634.2 57.3,-44.8 17.1,-13.5"
         style="fill:#ffd6a1;fill-opacity:1;fill-rule:nonzero;stroke:none"
         id="path148" /><path
         d="m 16756.3,12967.9 -2167.9,-2311 -149.7,-159.6 L 12901,8858 12747.5,8694.4 c -43.3,-0.1 -86.4,0.1 -129.4,0.2 l 152.8,163 1540.5,1642.3 150.3,160.2 2225.6,2372.6 69,-64.8"
         style="fill:#ffd6a1;fill-opacity:1;fill-rule:nonzero;stroke:none"
         id="path150" /><path
         d="m 13969.7,11744.3 -88.1,34.4 1908.9,4886.7 88.1,-34.4 -1908.9,-4886.7"
         style="fill:#ffd6a1;fill-opacity:1;fill-rule:nonzero;stroke:none"
         id="path152" /><path
         d="m 14292,11162.9 -173.1,-144.7 c 933.8,1959.4 2887,6071.2 2925.6,6190.9 l 91.2,-25.2 c -30.9,-115.8 -2565.1,-5436.3 -2843.7,-6021"
         style="fill:#ffd6a1;fill-opacity:1;fill-rule:nonzero;stroke:none"
         id="path154" /><path
         d="m 14548.5,10847.8 -232.3,-287.5 2912.9,6510.4 86.4,-38.6 -2767,-6184.3"
         style="fill:#ffd6a1;fill-opacity:1;fill-rule:nonzero;stroke:none"
         id="path156" /><path
         d="m 14030.3,11291.5 -88.9,32.3 c 678.8,1866.2 1968.8,5430.2 1993.1,5561.7 l 93.1,-17.1 c -31.3,-170.4 -1917,-5356.2 -1997.3,-5576.9"
         style="fill:#ffd6a1;fill-opacity:1;fill-rule:nonzero;stroke:none"
         id="path158" /><path
         d="m 14033.2,10969.2 -134.3,-62.9 2735,5795.8 85.5,-40.3 -2686.2,-5692.6"
         style="fill:#ffd6a1;fill-opacity:1;fill-rule:nonzero;stroke:none"
         id="path160" /><path
         d="m 16871.2,12884.9 c 0,0 -57.3,26.5 -138.2,41 -50.5,9 -116.1,17.3 -111.6,0 4.5,-17.2 110.9,-49.4 114,-57 3.1,-7.5 135.8,16 135.8,16"
         style="fill:#ffb27d;fill-opacity:1;fill-rule:nonzero;stroke:none"
         id="path162" /><path
         d="m 16510.4,12765.5 c 20.7,-15.8 185.4,-80.2 248.1,-60.5 35,11 156.9,41.2 206.1,53.2 19.5,3.8 89.7,17.5 89.7,17.5 l -53,154.1 c 0,0 -2,-0.3 -6.4,-1.8 -20.2,-7 -59,-26.1 -109.7,-33.7 -62.5,-9.4 -140.5,29.9 -181.1,7.7 -85.9,-47.1 -204.5,0.6 -231.8,-24.5 -20.6,-18.9 -13.1,-72.7 38.1,-112"
         style="fill:#ffb27d;fill-opacity:1;fill-rule:nonzero;stroke:none"
         id="path164" /><path
         d="m 15550.4,13533.1 c 12.9,30.4 39.8,80.8 106.2,73.7 79.1,-8.6 222,-90.6 -56.2,-241.1 -82.7,-44.8 -76.5,104.9 -50,167.4"
         style="fill:#ffb27d;fill-opacity:1;fill-rule:nonzero;stroke:none"
         id="path166" /><path
         d="M 6975.81,8986.5 H 5583.2 c -150.78,0 -274.14,123.4 -274.14,274.2 0,150.8 123.36,274.1 274.14,274.1 h 1392.61 c 150.77,0 274.14,-123.3 274.14,-274.1 0,-150.8 -123.37,-274.2 -274.14,-274.2"
         style="fill:#6385db;fill-opacity:1;fill-rule:nonzero;stroke:none"
         id="path168" /><path
         d="M 16711.6,8986.5 H 15319 c -150.8,0 -274.2,123.4 -274.2,274.2 0,150.8 123.4,274.1 274.2,274.1 h 1392.6 c 150.7,0 274.1,-123.3 274.1,-274.1 0,-150.8 -123.4,-274.2 -274.1,-274.2"
         style="fill:#739af0;fill-opacity:1;fill-rule:nonzero;stroke:none"
         id="path170" /><path
         d="m 15792.3,11280.1 v -6823 c 0,-636.1 -515.7,-1151.8 -1151.9,-1151.8 H 7835.03 c -636.18,0 -1151.88,515.7 -1151.88,1151.8 v 6823 h 9109.15"
         style="fill:#6385db;fill-opacity:1;fill-rule:nonzero;stroke:none"
         id="path172" /><path
         d="M 15792.3,11275 V 4452 c 0,-636.1 -513.6,-1151.8 -1147.2,-1151.8 H 9422.41 c -633.6,0 -1147.32,515.7 -1147.32,1151.8 v 6823 h 7517.21"
         style="fill:#739af0;fill-opacity:1;fill-rule:nonzero;stroke:none"
         id="path174" /><path
         d="M 15829.1,10989.4 H 6646.36 c -91.83,0 -166.96,75.1 -166.96,166.9 0,91.8 75.13,167 166.96,167 h 9182.74 c 91.8,0 166.9,-75.2 166.9,-167 0,-91.8 -75.1,-166.9 -166.9,-166.9"
         style="fill:#4c79c9;fill-opacity:1;fill-rule:nonzero;stroke:none"
         id="path176" /><path
         d="m 15318,8201.5 v 1798.9 c 0,0 55.3,599.2 -378.9,646.5 -434.1,47.3 -591.8,-205 -513,-646.5 78.9,-441.6 -63,-2886 142,-3075.2 205,-189.2 615,-189.2 693.9,0 78.8,189.2 56,1276.3 56,1276.3"
         style="fill:#88b3ff;fill-opacity:1;fill-rule:nonzero;stroke:none"
         id="path178" /><path
         d="m 13586.2,7833.1 c -0.2,12.4 -23,1245.9 -56.6,2166.8 -36.5,1002.2 -257.1,1608.5 -605.2,1663.5 -150,23.7 -282.4,-29.4 -393.5,-158 -88.2,-102 -111.6,-181 -112,-182.1 h -155.5 c 66.5,186.1 302.3,534.2 682.2,474.3 572.8,-90.5 696.8,-1162.1 719.8,-1792.7 33.6,-922.2 56.4,-2156.9 56.6,-2169.3 l -135.8,-2.5"
         style="fill:#ffd6a1;fill-opacity:1;fill-rule:nonzero;stroke:none"
         id="path180" /><path
         d="m 11870.8,3404.7 c 1.1,-50.5 7.4,-98.3 25.7,-117.1 h 733.8 c -9.4,26.5 -35.8,66.5 -111.1,78.7 -85.6,13.8 -205.1,110.6 -283,192.9 -27.7,29.3 -62.4,8.3 -71.4,48.6 -34.5,153.7 -285.4,-47.1 -285.4,-47.1 0,0 -10.2,-80.9 -8.6,-156"
         style="fill:#182d4f;fill-opacity:1;fill-rule:nonzero;stroke:none"
         id="path182" /><path
         d="m 10750.5,3404.7 c 1,-50.5 7.4,-98.3 25.7,-117.1 h 733.7 c -9.3,26.5 -35.7,66.5 -111,78.7 -85.6,13.8 -219,55 -296.9,137.4 -27.8,29.2 -48.5,63.8 -57.5,104.1 -34.5,153.7 -285.5,-47.1 -285.5,-47.1 0,0 -10.1,-80.9 -8.5,-156"
         style="fill:#1a2f51;fill-opacity:1;fill-rule:nonzero;stroke:none"
         id="path184" /><path
         d="m 12164.4,3495.4 c -82,-26.2 -190.4,-23.3 -290,14.3 -64.3,24.3 -449.8,965.8 -473.1,1420.8 -1.8,33.1 -8.3,79.3 -18.5,135.6 -21.3,117.4 -58.5,278.8 -101.4,456.8 -115.1,477.2 -270.8,1074.1 -267.4,1264.8 5.2,296.1 882.4,62.1 882.4,62.1 0,0 60.4,-242.9 72.4,-594.6 23.8,-698 89.3,-1877.1 267.4,-2696 7.6,-34.7 -37.8,-53 -71.8,-63.8"
         style="fill:#233862;fill-opacity:1;fill-rule:nonzero;stroke:none"
         id="path186" /><path
         d="m 11737.5,6657.9 -589.3,-3181.2 c 0,0 -253.3,-74.8 -429.3,0 0,0 -102.5,1726.7 -91.1,2158.9 11.3,432.1 -97.5,1156.3 24.8,1236.2 122.2,79.9 1084.9,-213.9 1084.9,-213.9"
         style="fill:#2b478b;fill-opacity:1;fill-rule:nonzero;stroke:none"
         id="path188" /><path
         d="m 11416.6,8920.2 c 0,0 403.2,-68.8 495.2,-210.7 131.6,-202.9 451.1,-879 456.5,-1218.5 7.4,-457.2 -490.4,-611 -551.3,-430.5 -50.5,149.8 -174.3,1088.1 -264.2,1379.2 l -136.2,480.5"
         style="fill:#cfe5ff;fill-opacity:1;fill-rule:nonzero;stroke:none"
         id="path190" /><path
         d="m 12089.6,5713 c 0,0 -186.6,-151.3 -562.9,-185.4 -42.4,-10.9 -764.9,-10.9 -1070.8,94.2 -6.3,2.2 16,649.6 41.9,1317.5 0,1.1 0.1,2.1 0.1,3.2 2.7,67.8 5.3,136.1 7.9,203.7 1.2,29.1 2.3,58.1 3.5,87 7.9,199.3 15.8,392 22.9,561.2 14.1,332 25.4,572.6 28.6,591.7 11.3,65 21.7,120.4 33.2,168.3 33.3,140.1 74.7,216.8 165.1,282.7 8.8,6.7 81,43.2 144.7,74.9 52.8,26.1 99.7,49.1 99.7,49.1 h 0.1 c 0,0 695.4,-19.8 762.1,-194.2 66.8,-174.5 323.9,-3053.9 323.9,-3053.9"
         style="fill:#cfe5ff;fill-opacity:1;fill-rule:nonzero;stroke:none"
         id="path192" /><path
         d="m 11356.1,8874.7 c -36.4,-7.2 -83.3,-40.8 -127.6,-37.6 -86.9,6.3 -177.4,64.8 -254.1,115.3 52.3,124.9 73.7,223.5 81.3,287.4 0.5,3.4 0.8,6.6 1.1,9.8 3.5,33.1 3,55.5 1.4,65.8 h 278.4 c 0,0 76.2,-34.8 76.2,-58.8 0,-12.9 0.1,-25.2 0.3,-36.9 0.5,-32.1 1.8,-60 3.5,-84 5.3,-78.2 14.3,-115 14.3,-115 0,0 34,-124.7 -74.8,-146"
         style="fill:#ffb27d;fill-opacity:1;fill-rule:nonzero;stroke:none"
         id="path194" /><path
         d="m 11416.6,9135.7 c -211,-40.8 -333.4,74.5 -360.9,104.1 -3.9,4.2 -5.9,6.7 -5.9,6.7 2.3,1.1 4.6,2.1 7,3.1 78.6,31.8 256.8,6.5 356.3,-29.9 0.5,-32.1 1.8,-60 3.5,-84"
         style="fill:#e2915a;fill-opacity:1;fill-rule:nonzero;stroke:none"
         id="path196" /><path
         d="m 10986.8,9361.2 c 37.7,-202.9 299.5,-196.2 412.6,-183.5 31.9,3.6 51.9,7.7 51.9,7.7 35.9,9.5 55.9,66.1 65.2,140.1 18.5,146.6 -4.8,361.8 -29.6,416.8 -37.2,82.8 -107.4,172.4 -371.1,107.8 -263.6,-64.7 -177.3,-228.9 -129,-488.9"
         style="fill:#ffb27d;fill-opacity:1;fill-rule:nonzero;stroke:none"
         id="path198" /><path
         d="m 11496.7,9855.5 c -36,49.9 -112.4,110.8 -181.8,148.4 -149.1,80.6 -339.8,-2.6 -340.6,-2.9 -215.4,-94.7 -84.4,-566.5 -18.6,-544.6 51.3,17.1 17.4,42.1 39.8,62.2 27.1,24.2 65,-5.2 77.2,-27.9 10.5,-16 29.5,-21.6 47.2,-10.4 67,42.4 23.5,127.1 87.5,178.9 64.1,51.9 194,8.3 290.1,49.7 125.8,46.8 26.4,109 -0.8,146.6"
         style="fill:#233862;fill-opacity:1;fill-rule:nonzero;stroke:none"
         id="path200" /><path
         d="m 11336.6,9315.4 c 0,0 34.5,-31.4 90.2,-21.7 33.1,5.8 51.5,48.8 51.5,48.8 0,0 -63.4,11.4 -141.7,-27.1"
         style="fill:#cfe5ff;fill-opacity:1;fill-rule:nonzero;stroke:none"
         id="path202" /><path
         d="m 11049.8,8405.6 c 0,20 16.2,36.1 36.2,36.1 19.9,0 36.1,-16.1 36.1,-36.1 0,-20 -16.2,-36.1 -36.1,-36.1 -20,0 -36.2,16.1 -36.2,36.1"
         style="fill:#233862;fill-opacity:1;fill-rule:nonzero;stroke:none"
         id="path204" /><path
         d="m 11478.3,8441.7 c 0,20 16.2,36.2 36.2,36.2 20,0 36.1,-16.2 36.1,-36.2 0,-19.9 -16.1,-36.1 -36.1,-36.1 -20,0 -36.2,16.2 -36.2,36.1"
         style="fill:#233862;fill-opacity:1;fill-rule:nonzero;stroke:none"
         id="path206" /><path
         d="m 11095.8,7975.5 c 0,20 16.2,36.2 36.2,36.2 19.9,0 36.1,-16.2 36.1,-36.2 0,-19.9 -16.2,-36.1 -36.1,-36.1 -20,0 -36.2,16.2 -36.2,36.1"
         style="fill:#233862;fill-opacity:1;fill-rule:nonzero;stroke:none"
         id="path208" /><path
         d="m 11524.4,8011.7 c 0,19.9 16.1,36.1 36.1,36.1 20,0 36.2,-16.2 36.2,-36.1 0,-20 -16.2,-36.2 -36.2,-36.2 -20,0 -36.1,16.2 -36.1,36.2"
         style="fill:#233862;fill-opacity:1;fill-rule:nonzero;stroke:none"
         id="path210" /><path
         d="m 11122.1,7555.4 c 0,19.9 16.2,36.1 36.2,36.1 19.9,0 36.1,-16.2 36.1,-36.1 0,-20 -16.2,-36.2 -36.1,-36.2 -20,0 -36.2,16.2 -36.2,36.2"
         style="fill:#233862;fill-opacity:1;fill-rule:nonzero;stroke:none"
         id="path212" /><path
         d="m 11550.6,7591.5 c 0,20 16.2,36.2 36.2,36.2 20,0 36.1,-16.2 36.1,-36.2 0,-19.9 -16.1,-36.1 -36.1,-36.1 -20,0 -36.2,16.2 -36.2,36.1"
         style="fill:#233862;fill-opacity:1;fill-rule:nonzero;stroke:none"
         id="path214" /><path
         d="m 11231.8,6968.2 c 0,0 -163.8,-118.4 -733.9,-25.7 2.7,67.8 5.3,136.1 7.9,203.7 1.2,29.1 2.3,58.1 3.5,87 7.9,199.3 15.8,392 22.9,561.2 90.6,146.9 166.3,253.4 166.3,253.4 0,0 -7.2,-403.4 162.6,-528.6 449.5,-331.1 370.7,-551 370.7,-551"
         style="fill:#afd1f2;fill-opacity:1;fill-rule:nonzero;stroke:none"
         id="path216" /><path
         d="m 11294.3,10039.1 c 0,0 36.6,191.9 -96.9,312.4 -133.6,120.5 -313.7,94.7 -414.4,-16.1 -31.2,-34.2 -208.7,0.4 -309.7,-107.1 -100.9,-107.5 -83.2,-278 -48.6,-356.1 31.8,-71.7 -74.6,-225.1 69.2,-340.4 168.6,-135.2 425.9,-20.4 425.9,-20.4 0,0 178.3,526 374.5,527.7"
         style="fill:#afd1f2;fill-opacity:1;fill-rule:nonzero;stroke:none"
         id="path218" /><path
         d="m 11510.6,9839.4 c 0,0 -553.7,-48.8 -523.8,-478.2 l -224.2,318.8 c 0,0 16.5,409.6 535,415.2 l 213,-255.8"
         style="fill:#cfe5ff;fill-opacity:1;fill-rule:nonzero;stroke:none"
         id="path220" /><path
         d="m 11870.6,6893.6 c 0,0 10.2,1217.8 42,1217.8 31.8,0 121.1,-278.3 121.1,-497.2 0,-275.5 -107.7,-731.1 -163.1,-720.6"
         style="fill:#afd1f2;fill-opacity:1;fill-rule:nonzero;stroke:none"
         id="path222" /><path
         d="m 20956.7,3295.7 h -8213.9 c -249.7,0 -478,140.6 -590.4,363.6 l -483.2,958.6 h 10274.6 l -439.5,-969.2 c -97.5,-214.9 -311.6,-353 -547.6,-353"
         style="fill:#e86234;fill-opacity:1;fill-rule:nonzero;stroke:none"
         id="path224" /><path
         d="m 24236.6,4724.9 c 0,-321.7 -3326.5,-582.6 -7430.1,-582.6 -4103.5,0 -7430.06,260.9 -7430.06,582.6 0,321.8 3326.56,582.6 7430.06,582.6 4103.6,0 7430.1,-260.8 7430.1,-582.6"
         style="fill:#f77d48;fill-opacity:1;fill-rule:nonzero;stroke:none"
         id="path226" /><path
         d="m 21960.5,4747.4 c -2.1,-0.8 -4.1,-1.3 -6.3,-1.9 -168.2,-47.7 -369.8,-92.5 -600.3,-134 -50.8,-9.2 -103.1,-18.2 -156.8,-26.9 -184.1,-30.4 -384.3,-58.6 -598.6,-84.6 -52.8,-6.5 -106.5,-12.8 -161,-18.9 -194.1,-21.8 -398.7,-41.8 -612.8,-59.9 h -0.1 c -79.3,-6.7 -159.9,-13.2 -241.7,-19.3 l -0.5,-0.1 c -302.1,-22.6 -620.8,-41.5 -952.8,-56.2 -35.7,-1.5 -71.6,-3.1 -107.6,-4.5 -86.6,-3.6 -174.3,-6.8 -262.6,-9.8 -8.3,-0.3 -16.5,-0.5 -24.8,-0.8 -169.3,-5.6 -341.6,-10 -516.4,-13.4 -109.1,-2 -219.2,-3.7 -330.2,-4.9 -21.7,-0.2 -43.5,-0.4 -65.3,-0.6 -117.2,-1 -235.3,-1.5 -354.4,-1.5 -38.5,0 -76.8,0.1 -115.1,0.2 -17.4,0 -34.9,0.1 -52.3,0.2 -1043.4,4.3 -2014.8,49.2 -2838,123.7 -11.8,1.1 -23.5,2.2 -35.3,3.3 h -0.1 c -126.1,11.6 -248.7,23.9 -367.5,36.9 l -5.4,0.6 h -0.1 l -30.6,3.3 c -95.2,10.6 -187.9,21.7 -277.9,33.1 -15.2,1.8 -30.3,3.8 -45.3,5.8 -1107.4,143.6 -1801.3,349.7 -1801.3,578.6 0,0 -14.4,93.5 74.7,195.3 274.4,314.6 1078,939.7 2616.2,1007.1 1163.9,51 2015.1,-197 2530.6,-418.5 385.9,-166.1 583.8,-317.4 583.8,-317.4 l 0.1,0.1 c 1.2,0.8 7.7,5.7 19.6,14 60.2,41.9 257.1,170.6 571.1,296.2 527.7,210.9 1386.5,413.1 2485.3,180.3 657.1,-139.2 1084.6,-332.8 1353.8,-528.4 499.2,-362.6 455.3,-732.5 325.9,-777.1"
         style="fill:#ffe6c2;fill-opacity:1;fill-rule:nonzero;stroke:none"
         id="path228" /><path
         d="m 19331.1,5923 c 0,0 876.1,94.9 1525.5,-212.9 649.5,-307.8 831.6,-571.9 797.8,-763.3 -33.7,-191.4 -981.1,-135.4 -981.1,-135.4 0,0 -601.7,118.1 -644.7,135.4 -43,17.3 -697.5,976.2 -697.5,976.2"
         style="fill:#ffe6c2;fill-opacity:1;fill-rule:nonzero;stroke:none"
         id="path230" /><path
         d="m 18807,4531.5 c -17.6,-94.8 -108.9,-154.1 -177.4,-185.9 -35.7,-1.5 -71.6,-3.1 -107.6,-4.5 56.9,16.1 232.7,106.2 250.8,204.2 7.2,38.5 -8,82.5 -45.3,130.9 -179.9,233.6 -723.9,-3.1 -729.4,-5.5 l -10.2,49.9 c 1.4,0.6 142.5,62.4 305,93.1 221.5,41.8 375.5,8.6 458.1,-98.5 48.3,-62.6 67,-124.4 56,-183.7"
         style="fill:#ea9678;fill-opacity:1;fill-rule:nonzero;stroke:none"
         id="path232" /><path
         d="m 20946.3,4847.7 c -11.6,-102.3 -89.2,-198.4 -230.7,-285.2 -41.9,-25.7 -83,-46.6 -117.1,-62.5 -52.8,-6.5 -106.5,-12.8 -161,-18.9 143.5,60.3 456.7,223.8 473.8,375.2 7.8,69 -29.4,142.1 -110.4,217.3 -198.2,183.9 -686.6,309.8 -1244.6,320.9 -657.3,13.1 -1302.7,-127.4 -1818.3,-395.6 l -11.9,49.1 c 519.5,270.2 1169.7,411.9 1830.7,398.6 564,-11.3 1059.8,-140.3 1263,-329 94.3,-87.5 136.8,-178.3 126.5,-269.9"
         style="fill:#ea9678;fill-opacity:1;fill-rule:nonzero;stroke:none"
         id="path234" /><path
         d="m 12366.2,7532.5 c 0,0 64,-528.1 -367.9,-778.5 l -127.7,139.6 205.8,523.8 289.8,115.1"
         style="fill:#cfe5ff;fill-opacity:1;fill-rule:nonzero;stroke:none"
         id="path236" /><path
         d="m 9564.89,7877.3 87.82,109.5 c 33.61,41.9 103.12,52.3 154.04,23.2 L 13037.3,6158.6 c 17.2,-9.9 40.6,-6.6 51.7,7.2 l 19.8,24.7 c 61.5,76.6 161.6,128.1 274.3,141.1 112.8,13 229.9,-13.4 321.3,-72.5 l 1220.1,-788.4 c 15.3,-9.9 19.2,-27.5 8.8,-40.3 l -21.4,-26.8 c -11.3,-14.1 -35.2,-17.2 -52.4,-6.9 L 13600,6150.4 c -53.7,34.8 -119.9,49.7 -186.3,42 -25.2,-2.9 -49.1,-8.9 -70.9,-17.7 -24.8,-10 -26.5,-38.3 -3,-51.6 L 14787,5303 c 16.9,-9.5 21.7,-28 10.9,-41.5 l -23.6,-29.4 c -10.9,-13.6 -33.5,-17.1 -50.7,-7.9 l -1495.8,797.7 c -17.2,9.2 -39.8,5.7 -50.6,-7.8 l -25.2,-31.4 c -10.9,-13.6 -6,-32.1 11.1,-41.7 L 14637,5116.4 c 17,-9.5 22,-28.1 11.1,-41.6 l -22.2,-27.7 c -10.8,-13.5 -33.3,-17 -50.5,-8 L 13093.5,5817 c -23.9,12.5 -54.6,0.2 -56.2,-22.5 -1.5,-20.5 1.2,-41.4 8.1,-62.3 17.6,-53.7 60.5,-98.2 120.8,-125.3 l 1328,-665.6 c 18.2,-9.2 24,-28.5 12.7,-42.6 l -13.5,-16.7 c -10.3,-12.8 -31.2,-16.8 -48.2,-9.1 L 13087,5484.6 c -102.4,46.2 -178.4,124.9 -208.4,216.2 -30.2,91.3 -12,187.8 49.9,264.9 11.1,13.9 5.7,32.9 -12,42.2 L 9598.87,7751.3 c -52.2,27.4 -67.51,84.2 -33.98,126"
         style="fill:#2b478b;fill-opacity:1;fill-rule:nonzero;stroke:none"
         id="path238" /><path
         d="m 10923.2,7106.7 c 0,0 83.4,13.9 122.8,-8.5 39.5,-22.4 138.1,-36 133.7,-58.8 -4.3,-22.7 -127.5,-32.5 -160.1,-21.3 -32.5,11.2 -96.4,88.6 -96.4,88.6"
         style="fill:#ffb27d;fill-opacity:1;fill-rule:nonzero;stroke:none"
         id="path240" /><path
         d="m 10905.8,7095.4 c -38.4,-24.8 -42.8,-79.2 -8.9,-109.9 54.1,-49.1 124.1,-111.9 141.3,-124.3 29,-21 183.5,-38.3 223.7,16.1 0,0 -129.7,55.9 -148.1,142.6 -19.7,92.3 -190.6,86.8 -190.6,86.8 l -17.4,-11.3"
         style="fill:#ffb27d;fill-opacity:1;fill-rule:nonzero;stroke:none"
         id="path242" /><path
         d="m 10899.9,6929.5 c 0,0 -755.1,177.3 -827.8,662 -64.1,427.4 310.4,1069.2 408.8,1176.9 114.9,125.7 324.5,169.8 440.3,185 4.9,0.6 9.5,1.2 14,1.8 40.7,4.8 66.8,5.8 68.3,5.9 v 0 c 0,0 -9,-29.2 -24.2,-78.7 -6,-19.2 -12.8,-41.4 -20.3,-66.2 -71.1,-232.9 -293.4,-799.2 -365,-1110.9 -45.6,-198.4 385.4,-593.8 396.4,-594.6 l -90.5,-181.2"
         style="fill:#cfe5ff;fill-opacity:1;fill-rule:nonzero;stroke:none"
         id="path244" /><path
         d="m 10924.7,8953.2 c 0,0 47,76.3 94.7,118 0,0 192.2,-125.8 201,-157.5 8.8,-31.7 -8.8,-98.2 -8.8,-98.2 0,0 -118.2,-10.3 -286.9,137.7"
         style="fill:#afd1f2;fill-opacity:1;fill-rule:nonzero;stroke:none"
         id="path246" /><path
         d="m 11810.7,6877.2 c 0,0 16.3,-196.1 62.1,-215.7 45.8,-19.7 131.9,46 141.1,86.7 9.3,40.8 -105.1,161.9 -150.9,165.1 -45.8,3.2 -52.3,-36.1 -52.3,-36.1"
         style="fill:#ffb27d;fill-opacity:1;fill-rule:nonzero;stroke:none"
         id="path248" /><path
         d="m 11429,9026.4 c 0,0 71.8,-56.8 54.8,-116.8 0,0 -179.2,-207.8 -479.9,-249.9 0,0 19.6,55.4 63.3,88.1 43.7,32.8 323.3,187.9 361.8,278.6"
         style="fill:#bdd8f4;fill-opacity:1;fill-rule:nonzero;stroke:none"
         id="path250" /><path
         d="m 17718.2,4317.1 c -109.1,-2 -219.2,-3.7 -330.2,-4.9 -21.7,-0.2 -43.5,-0.4 -65.3,-0.6 -117.2,-1 -235.3,-1.5 -354.4,-1.5 -38.5,0 -76.8,0.1 -115.1,0.2 -17.4,0 -34.9,0.1 -52.3,0.2 -1043.4,4.3 -2014.8,49.2 -2838,123.7 -11.8,1.1 -23.5,2.2 -35.3,3.3 h -0.1 c -126.1,11.6 -248.7,23.9 -367.5,36.9 l -0.3,-0.9 c -1.7,0.4 -3.5,1 -5.1,1.5 h -0.1 c -9.9,2.7 -19.6,5.5 -29.1,8.2 -107.2,31.3 -191.4,64.2 -249.9,98.5 -14.3,8.3 -26.9,16.7 -38,25.2 -37.9,28.8 -57.6,58.4 -57.6,88.7 0,0 -9.9,61.1 52,127.5 98.2,106 294,265.9 607.2,401.9 294,127.8 691.6,234.6 1208.8,255.9 115.9,4.8 227.4,5.6 334.4,3 l 0.7,-0.1 c 638,-15.8 1115.2,-152.2 1421.6,-276.2 267.9,-108.5 405.2,-207.3 405.2,-207.3 0,0 745.1,-450.9 508.4,-683.2"
         style="fill:#ffe6c2;fill-opacity:1;fill-rule:nonzero;stroke:none"
         id="path252" /><path
         d="m 16853.2,4310.3 c -17.4,0 -34.9,0.1 -52.3,0.2 -110.7,125.1 -275.7,295.8 -480.2,460.5 -357.1,287.7 -911.4,615.8 -1523.2,544 -336.5,-39.4 -796.3,-163.7 -1075.9,-532.8 -87.7,-115.8 -135.8,-227.7 -161.6,-307.8 l -0.3,-0.9 c -1.7,0.4 -3.5,1 -5.1,1.5 h -0.1 l -30.6,3.3 c 0.5,1.7 1,3.3 1.5,4.9 26.3,84.4 76.2,203.6 170.1,328.3 158.2,210.1 477.2,475.9 1099,548.6 621.4,72.8 1182.9,-259.5 1544.7,-551.1 225.3,-181.6 403.1,-370.5 514,-498.7"
         style="fill:#ea9678;fill-opacity:1;fill-rule:nonzero;stroke:none"
         id="path254" /><path
         d="m 17388,4312.2 c -21.7,-0.2 -43.5,-0.4 -65.3,-0.6 -139.4,142 -346.4,335 -602.7,521.3 -450.2,327.1 -1148.8,700.2 -1920,618.7 -424.1,-44.8 -1003.7,-186.3 -1356,-605.9 -79.1,-94.1 -132.6,-185.9 -168.5,-264 -11.5,-25 -21.3,-48.6 -29.5,-70.3 -15.2,1.8 -30.3,3.8 -45.3,5.8 9.7,27.3 21.9,57.4 36.8,89.7 37.3,80.5 92.4,174.8 173.5,272 92.8,111.2 229.4,236.1 428.1,346.1 228.1,126.6 538.1,233.5 957.2,277.8 201.3,21.2 397.6,12.1 586,-18.9 l 0.7,-0.1 c 544.1,-89.7 1021.6,-361.4 1360.2,-607.6 281.8,-205 504.9,-418.2 644.8,-564"
         style="fill:#ea9678;fill-opacity:1;fill-rule:nonzero;stroke:none"
         id="path256" /><path
         d="m 15720.2,4604.2 c -58.1,-99.1 -249.7,-152.7 -436.2,-173.4 -31.2,-3.5 -62.2,-5.9 -92.5,-7.7 -212.1,-11.6 -500.6,13.7 -674.4,119.7 l 12.7,40.7 c 140.6,-85.7 392.7,-129.9 658.1,-115.3 256.3,14.1 454.4,78.9 504.8,165 28.9,49.4 27.1,115.8 -5,182.2 -98.4,202.8 -433.3,352.4 -959.9,229 -224.8,-52.6 -525.5,-166.3 -682,-408.8 -51,-79.1 -73.3,-151.9 -82.9,-201.4 -11.8,1.1 -23.5,2.2 -35.3,3.3 9.3,54.4 32.5,135.8 89.2,224.8 129.9,204.3 366.4,347.7 703,426.6 579.8,135.8 899.1,-50.3 996.3,-251 39.9,-82.4 41.6,-169.8 4.1,-233.7"
         style="fill:#ea9678;fill-opacity:1;fill-rule:nonzero;stroke:none"
         id="path258" /><path
         d="m 20447.7,4816.8 c -25.4,-198 -402.6,-333.1 -623,-395.6 h -0.1 c -79.3,-6.7 -159.9,-13.2 -241.7,-19.3 199,43.6 805.2,231.1 829.9,424.5 6.3,49.1 -24.2,102.1 -90.7,157.8 -419.6,351.6 -2481.4,-85.9 -2502.2,-90.4 l -5.1,51.6 c 5.2,1.1 528.1,112.7 1096.8,178.8 766.2,89.1 1246.7,57.3 1428.1,-94.8 81,-67.8 117.3,-139.4 108,-212.6"
         style="fill:#ea9678;fill-opacity:1;fill-rule:nonzero;stroke:none"
         id="path260" /><path
         d="m 18281.9,4332.1 -22.5,-0.8 c -8.3,-0.3 -16.5,-0.5 -24.8,-0.8 -89.2,127.2 -643.5,906.5 -1038,1208.7 l 8.1,23.1 0.1,0.1 8.1,22.9 c 3.8,-2.9 7.6,-5.9 11.5,-8.9 432.4,-338.4 1051.5,-1235.5 1057.5,-1244.3"
         style="fill:#ea9678;fill-opacity:1;fill-rule:nonzero;stroke:none"
         id="path262" /><path
         d="m 21635.6,4998.1 c -23.2,-182.1 -193,-324.1 -281.7,-386.6 -50.8,-9.2 -103.1,-18.2 -156.8,-26.9 69,40.4 379.4,231.7 403.6,423.1 8.8,70.4 -12.2,140.5 -62.7,208.5 -224.6,302.7 -1314.3,1014.4 -2655.4,504.9 -928,-352.5 -1258.8,-579.9 -1262.1,-582.2 l -15.2,47 c 3.3,2.3 336.1,231.5 1268.4,585.6 719.1,273.3 1343.4,183 1740.6,59.1 467.6,-145.9 812.9,-394.4 947.7,-576.1 60.1,-80.9 84.8,-167.1 73.6,-256.4"
         style="fill:#ea9678;fill-opacity:1;fill-rule:nonzero;stroke:none"
         id="path264" /><path
         d="m 14470.8,6333.8 c 0,0 -232.8,-121.2 -6.3,-391.9 226.6,-270.8 885.2,-8 1168.5,-157 283.4,-149 53.6,-369.3 378.5,-561.9 324.9,-192.6 637.9,454.4 956.7,270.5 318.8,-184 1406.2,-443.2 1424.4,-72.2 18.3,371.1 536,513 731.8,624.2 195.8,111.2 -512.1,288.3 -865,333.9 -244.5,31.6 -1420.7,660.5 -2127.9,476.5 -707.2,-184 -1332.3,-337.1 -1660.7,-522.1"
         style="fill:#c65447;fill-opacity:1;fill-rule:nonzero;stroke:none"
         id="path266" /><path
         d="m 16583.6,6785.7 c 19.8,158.8 -20.4,628.9 -51.3,657.6 -30.9,28.7 -313.7,-251.5 -353.6,-398.3 -39.9,-146.8 15.5,-347.4 123.7,-448 108.2,-100.6 261,27.7 281.2,188.7"
         style="fill:#8fc482;fill-opacity:1;fill-rule:nonzero;stroke:none"
         id="path268" /><path
         d="m 17636.6,5762.7 c -19.1,33.3 -131,105.2 -141.4,100.2 -10.5,-4.9 -10,-129.7 9,-162.9 19.1,-33.3 64.1,-46.2 100.6,-28.9 36.6,17.3 50.8,58.3 31.8,91.6"
         style="fill:#ffe6c2;fill-opacity:1;fill-rule:nonzero;stroke:none"
         id="path270" /><path
         d="m 15288.9,6227.7 c 30,25.8 75.3,143.5 67.3,151.3 -8.1,7.7 -139.8,-26.8 -169.7,-52.5 -30,-25.8 -31.3,-68.7 -3,-96 28.3,-27.3 75.5,-28.5 105.4,-2.8"
         style="fill:#ffe6c2;fill-opacity:1;fill-rule:nonzero;stroke:none"
         id="path272" /><path
         d="m 16368.9,5873.2 c -40.8,4.6 -169.4,-38.4 -170.9,-49 -1.5,-10.6 111.5,-81.1 152.4,-85.8 40.9,-4.7 78.2,21.7 83.3,58.9 5.1,37.3 -23.9,71.2 -64.8,75.9"
         style="fill:#ffe6c2;fill-opacity:1;fill-rule:nonzero;stroke:none"
         id="path274" /><path
         d="m 16104.2,7063.1 c -156.8,91.1 -674.3,90.8 -684.6,55.6 -10.4,-35.2 392.1,-571.6 548.9,-662.7 156.8,-91 318.8,14.1 355,137.5 36.2,123.5 -62.5,378.5 -219.3,469.6"
         style="fill:#a8d29f;fill-opacity:1;fill-rule:nonzero;stroke:none"
         id="path276" /><path
         d="m 17660.6,6229.2 c 39.7,9.9 140.6,94.3 137.5,104.6 -3.1,10.3 -137.1,36.3 -176.8,26.5 -39.8,-9.9 -63.2,-47.3 -52.3,-83.4 10.8,-36.2 51.8,-57.6 91.6,-47.7"
         style="fill:#ffe6c2;fill-opacity:1;fill-rule:nonzero;stroke:none"
         id="path278" /><path
         d="m 17090.1,6110.4 c -32.8,22.8 -167.7,44.3 -174.9,35.8 -7.1,-8.5 51.8,-121.1 84.5,-143.8 32.8,-22.8 79.6,-17 104.6,12.9 24.9,29.8 18.6,72.4 -14.2,95.1"
         style="fill:#ffe6c2;fill-opacity:1;fill-rule:nonzero;stroke:none"
         id="path280" /><path
         d="m 20776.6,3305.3 h 1379 l -228,464.2 h -1379 l 228,-464.2"
         style="fill:#ffe6c2;fill-opacity:1;fill-rule:nonzero;stroke:none"
         id="path282" /><path
         d="m 21946.5,3537.4 c 58.2,-118.3 142.3,-215.8 196.1,-230.2 4.6,-1.3 8.9,-1.9 13,-1.9 52.4,0 44,103.9 -19,232.1 -63,128.1 -156.6,232 -209,232 -4.2,0 -7.9,-0.6 -11.3,-1.9 -39.6,-14.5 -27.8,-112.1 30.2,-230.1"
         style="fill:#ffe6c2;fill-opacity:1;fill-rule:nonzero;stroke:none"
         id="path284" /><path
         d="m 20776.6,3305.3 c -24.1,0 -56.9,22 -91.5,58.2 -6.9,7.2 -14,15.1 -20.9,23.5 -18,21.3 -35.9,45.9 -53.1,72.9 -4.9,7.6 -9.7,15.5 -14.4,23.5 -10.2,17.3 -20,35.3 -29.1,53.9 l -1.3,2.7 c -3.9,8 -7.6,15.8 -11,23.6 -7.1,16 -13.4,31.7 -18.7,46.6 -2.8,8 -5.4,15.9 -7.8,23.5 -6.7,22 -11.1,42.2 -13.1,60 -1.1,8.5 -1.6,16.3 -1.5,23.5 0.4,32.7 11.7,52.2 34.4,52.2 22.7,0 53.3,-19.5 85.7,-52.2 7.1,-7.2 14.5,-15 21.7,-23.5 15.3,-17.8 30.8,-38 45.7,-60 5.3,-7.6 10.3,-15.5 15.4,-23.5 9.3,-14.9 18.4,-30.6 27.1,-46.6 4.1,-7.8 8.2,-15.6 12.1,-23.6 l 1.4,-2.7 c 9.1,-18.5 17,-36.6 23.8,-53.9 3.2,-8 6.1,-15.9 8.8,-23.5 9.3,-27 15.5,-51.6 18.5,-72.9 1.3,-8.4 1.9,-16.2 2.1,-23.5 1.1,-36.2 -10.2,-58.2 -34.3,-58.2"
         style="fill:#ffe6c2;fill-opacity:1;fill-rule:nonzero;stroke:none"
         id="path286" /><path
         d="M 21988,3563.6 V 3540 h -1421.7 c -3.9,8 -7.6,15.8 -11,23.6 H 21988"
         style="fill:#f2b499;fill-opacity:1;fill-rule:nonzero;stroke:none"
         id="path288" /><path
         d="m 20528.8,3633.7 h 1429.8 v -23.5 h -1422 l -7.8,23.5"
         style="fill:#f2b499;fill-opacity:1;fill-rule:nonzero;stroke:none"
         id="path290" /><path
         d="m 21935.5,3717.2 v -23.5 h -1419.8 c -1.1,8.5 -1.6,16.3 -1.5,23.5 h 1421.3"
         style="fill:#f2b499;fill-opacity:1;fill-rule:nonzero;stroke:none"
         id="path292" /><path
         d="m 22031.5,3483.4 v -23.5 h -1420.4 c -4.9,7.6 -9.7,15.5 -14.4,23.5 h 1434.8"
         style="fill:#f2b499;fill-opacity:1;fill-rule:nonzero;stroke:none"
         id="path294" /><path
         d="m 22088,3387 v -23.5 h -1402.9 c -6.9,7.2 -14,15.1 -20.9,23.5 H 22088"
         style="fill:#f2b499;fill-opacity:1;fill-rule:nonzero;stroke:none"
         id="path296" /><path
         d="m 21946.5,3537.4 c 58.2,-118.3 142.3,-215.8 196.1,-230.2 39.5,14.5 27.7,112.1 -30.3,230.2 -58,118.2 -142.1,215.7 -196,230.1 -39.6,-14.5 -27.8,-112.1 30.2,-230.1"
         style="fill:#ea9678;fill-opacity:1;fill-rule:nonzero;stroke:none"
         id="path298" /><path
         d="m 7732.39,3306.7 c -4.72,0 -9.52,0.7 -14.25,2.3 -23.11,7.9 -35.45,33 -27.58,56.1 l 1898.43,5573.5 c 7.88,23.1 32.91,35.5 56.1,27.6 23.1,-7.9 35.45,-33 27.59,-56.1 L 7774.23,3336.6 c -6.26,-18.4 -23.44,-29.9 -41.84,-29.9"
         style="fill:#163560;fill-opacity:1;fill-rule:nonzero;stroke:none"
         id="path300" /><path
         d="m 5107.93,3306.7 c -4.71,0 -9.52,0.7 -14.25,2.3 -23.09,7.9 -35.45,33 -27.59,56.1 l 1898.45,5573.5 c 7.87,23.1 33,35.5 56.09,27.6 23.11,-7.9 35.45,-33 27.58,-56.1 L 5149.78,3336.6 c -6.27,-18.4 -23.45,-29.9 -41.85,-29.9"
         style="fill:#163560;fill-opacity:1;fill-rule:nonzero;stroke:none"
         id="path302" /><path
         d="M 8832.37,6580.8 H 6252.86 c -24.08,0 -43.57,19.8 -43.57,44.2 0,24.4 19.49,44.2 43.57,44.2 h 2579.51 c 24.07,0 43.56,-19.8 43.56,-44.2 0,-24.4 -19.49,-44.2 -43.56,-44.2"
         style="fill:#163560;fill-opacity:1;fill-rule:nonzero;stroke:none"
         id="path304" /><path
         d="m 8349.38,5194.2 h -2598.5 c -24.41,0 -44.19,19.8 -44.19,44.2 0,24.4 19.78,44.2 44.19,44.2 h 2598.5 c 24.43,0 44.21,-19.8 44.21,-44.2 0,-24.4 -19.78,-44.2 -44.21,-44.2"
         style="fill:#163560;fill-opacity:1;fill-rule:nonzero;stroke:none"
         id="path306" /><path
         d="m 11117.5,13383.1 c -211.7,75.2 -481.9,81.8 -548.2,-41 -58.1,-107.5 -766.58,-1729.2 -892.9,-2018.8 h -114.23 l 954.43,2203.2 c 0,0 191.2,259.5 648.7,88.8 457.5,-170.7 163.9,-307.3 -47.8,-232.2"
         style="fill:#163560;fill-opacity:1;fill-rule:nonzero;stroke:none"
         id="path308" /><path
         d="m 8109.06,12409.4 c -102.36,-195.3 -732.77,-797.1 -698.62,-868.5 31.09,-64.8 -6.13,-694.9 -21.77,-936.9 v -0.5 c -3.79,-57.9 -6.24,-93.3 -6.24,-93.3 -20.66,-49.3 -76.9,-70.7 -118.72,-79.9 -27.82,-6.2 -49.29,-7 -49.29,-7 0,0 -8.69,32.1 -22.7,86.8 -26.08,101.6 -70.46,281.3 -110.74,475.9 -62.89,303.6 -115.76,643.7 -73.52,781.2 523.65,1706.3 1060.83,1150.9 1060.83,1150.9 0,0 143.13,-313.4 40.77,-508.7"
         style="fill:#cfe5ff;fill-opacity:1;fill-rule:nonzero;stroke:none"
         id="path310" /><path
         d="m 7388.67,10604 v -0.5 c -3.79,-57.9 -6.24,-93.3 -6.24,-93.3 -20.66,-49.3 -76.9,-70.7 -118.72,-79.9 -23.72,23 -48.47,49.6 -71.99,79.8 -26.08,101.6 -70.46,281.3 -110.74,475.9 55.42,350 274.15,871.2 274.15,871.2 l 33.54,-1253.2"
         style="fill:#afd1f2;fill-opacity:1;fill-rule:nonzero;stroke:none"
         id="path312" /><path
         d="m 7126.44,6982.1 c 0,0 -36.47,-308.5 22.86,-312.9 7.89,-0.6 352,-0.1 352,-0.1 h 385.96 c 0,0 -9.89,93.7 -119.24,112.7 -109.35,19.1 -292.38,95.9 -358.62,240.4 -69.68,152.1 -282.96,-40.1 -282.96,-40.1"
         style="fill:#c65447;fill-opacity:1;fill-rule:nonzero;stroke:none"
         id="path314" /><path
         d="m 7104.87,6960.8 c 0,0 113.72,-38 202.51,-38 99.04,0 189.06,27 189.06,27 0,0 21.41,207 139.22,663.2 61.78,239.1 149.99,546.6 275.49,928.6 347,1055.9 452.52,1673.6 462.15,1732 0.52,3.1 0.72,4.7 0.72,4.7 l -1.13,0.5 -1066.81,468.4 c 0,0 131.85,-1455.2 -36.37,-2013.8 -23.56,-78.1 -43.74,-169 -61.06,-267.6 -106.24,-606.7 -103.78,-1505 -103.78,-1505"
         style="fill:#f99746;fill-opacity:1;fill-rule:nonzero;stroke:none"
         id="path316" /><path
         d="M 7208.65,8465.8 7635.66,7613 c 61.78,239.1 149.99,546.6 275.49,928.6 347,1055.9 452.52,1673.6 462.15,1732 -0.1,1.8 -0.2,3.4 -0.41,5.2 l -1066.81,468.4 c 0,0 131.85,-1455.2 -36.37,-2013.8 -23.56,-78.1 -43.74,-169 -61.06,-267.6"
         style="fill:#ed7d2b;fill-opacity:1;fill-rule:nonzero;stroke:none"
         id="path318" /><path
         d="m 7959.67,6982.1 c 0,0 14.18,-308.5 73.52,-312.9 7.89,-0.6 305.77,1.2 305.77,1.2 l 379.58,-1.2 c 0,0 -7.93,93.6 -117.28,112.6 -109.35,19.1 -292.38,95.9 -358.62,240.4 -69.69,152.1 -282.97,-40.1 -282.97,-40.1"
         style="fill:#c65447;fill-opacity:1;fill-rule:nonzero;stroke:none"
         id="path320" /><path
         d="m 8564.51,10712.9 c 0,0 13.85,-943 -149.3,-2100.8 -163.15,-1157.8 -107.85,-1649.3 -107.85,-1649.3 0,0 -112.09,-36.3 -157.33,-40 -115.25,-9.4 -233.43,27 -233.43,27 0,0 -233.52,1158.2 -166.57,1737.8 66.95,579.5 -319.78,1988.5 -319.78,1988.5 l 1134.26,36.8"
         style="fill:#f99746;fill-opacity:1;fill-rule:nonzero;stroke:none"
         id="path322" /><path
         d="m 7787.51,12956.8 187.07,-164.3 305.78,13.5 c -0.72,24.6 -6.32,127.1 -11.49,219.9 -0.33,5.5 -0.66,11 -0.94,16.3 -4.5,79 -8.43,146.9 -8.43,146.9 l -260.94,162 -97.29,60.4 c 0.04,-1.6 -3.99,-86.4 -4.63,-98.7 -11.15,-219.6 -109.13,-356 -109.13,-356"
         style="fill:#ffb27d;fill-opacity:1;fill-rule:nonzero;stroke:none"
         id="path324" /><path
         d="m 8626.69,10672.1 c -4.28,-497.7 -37.45,-1662.1 -61.89,-1685.8 -259.22,-250.3 -1399.51,68.6 -1459.97,344.3 -60.38,275.7 229.75,3534.9 672.55,3665 91.87,27 502.98,-234 502.98,-234 0,0 157.14,-99.3 207.7,-356.1 18.72,-95.2 79.86,-774 115.54,-1227.6 9.41,-121 17.13,-225.9 21.67,-299.4 1.84,-30.4 2.26,-104.5 1.42,-206.4"
         style="fill:#cfe5ff;fill-opacity:1;fill-rule:nonzero;stroke:none"
         id="path326" /><path
         d="m 7916.98,13306 c 46.49,-112.1 261.57,-233.8 351.89,-280.1 -0.33,5.5 -0.66,11 -0.94,16.3 -4.5,79 -8.43,146.9 -8.43,146.9 l -260.94,162 c -61.39,9.5 -100.78,1.1 -81.58,-45.1"
         style="fill:#fca56b;fill-opacity:1;fill-rule:nonzero;stroke:none"
         id="path328" /><path
         d="m 8355.99,13178 c 0,0 -472.17,-43.9 -494.98,250.6 -22.81,294.4 -99.12,487.1 201.38,527.6 300.51,40.4 367.85,-67.4 399.37,-163.8 31.52,-96.5 16.46,-595.4 -105.77,-614.4"
         style="fill:#ffb27d;fill-opacity:1;fill-rule:nonzero;stroke:none"
         id="path330" /><path
         d="m 8409,13797.9 -147.17,-227.6 c -63.69,28.2 -94.28,15.7 -105.2,-83.6 -10.92,-99.2 -173.85,-205.5 -250.14,-102.5 0,0 -293.12,517.2 -215.31,605.5 122.98,139.7 419.96,102.7 629.45,83.9 218.35,-19.6 247.97,-257.4 88.37,-275.7"
         style="fill:#163560;fill-opacity:1;fill-rule:nonzero;stroke:none"
         id="path332" /><path
         d="m 8626.69,10672.1 c -791.26,796.2 -835.71,1592.4 -835.71,1592.4 422.14,-238.2 673.11,-242.2 803.19,-674.9 9.4,-120.9 26.56,-637.6 31.1,-711.1 1.84,-30.4 2.26,-104.5 1.42,-206.4"
         style="fill:#afd1f2;fill-opacity:1;fill-rule:nonzero;stroke:none"
         id="path334" /><path
         d="m 9893.69,12216.9 c 0,0 40.51,49 55.37,69 19.6,28.9 108.74,59.9 219.84,74.4 0,0 84.4,-10.6 33.2,-86.9 -34.1,-51 -30.2,-20.9 -79.5,-92 -49.3,-71.2 -127.41,-113.6 -189.73,-99.6 l -70.98,-13 -53.62,111.1 85.42,37"
         style="fill:#ffb27d;fill-opacity:1;fill-rule:nonzero;stroke:none"
         id="path336" /><path
         d="m 7735.44,12710.4 c 0,0 -572.38,-527.7 1139.93,-1280.1 261.36,-114.8 1073.69,614.3 1073.69,614.3 0,0 -10.64,134.7 -76.69,194.3 0,0 -813.99,-299.5 -902.62,-309.1 -78.65,-8.6 -539.23,714.6 -689.39,876.2 -150.15,161.5 -544.92,-95.6 -544.92,-95.6"
         style="fill:#cfe5ff;fill-opacity:1;fill-rule:nonzero;stroke:none"
         id="path338" /><path
         d="m 8463.71,14041.9 c 0,0 -85.18,-746.1 -569.6,-763.3 l -221.24,306.7 c 0,0 493.52,177.1 445.8,582.8 l 345.04,-126.2"
         style="fill:#cfe5ff;fill-opacity:1;fill-rule:nonzero;stroke:none"
         id="path340" /><path
         d="m 7792.68,14401.4 c 0,0 208.8,58.3 355.37,-59.8 146.56,-118.2 149.54,-308.6 51.72,-431 -30.25,-37.8 34.78,-215.6 -59.64,-337.6 -94.43,-122.1 -273.56,-132 -360.04,-109 -79.29,21 -220.29,-114.3 -363.2,15.4 -167.49,151.9 -91.27,436.7 -91.27,436.7 0,0 75.65,454.2 467.06,485.3"
         style="fill:#739af0;fill-opacity:1;fill-rule:nonzero;stroke:none"
         id="path342" /><path
         d="m 8241.13,12960.1 c -5.84,2.5 -338.04,179.4 -376.77,166.6 -38.73,-12.8 -87,-131.1 -87,-131.1 l 534.27,-225.8 c 0,0 4,159 -70.5,190.3"
         style="fill:#afd1f2;fill-opacity:1;fill-rule:nonzero;stroke:none"
         id="path344" /><path
         d="m 4252.15,3303.2 h 1943.16 l -321.34,654.1 H 3930.81 l 321.34,-654.1"
         style="fill:#ffe6c2;fill-opacity:1;fill-rule:nonzero;stroke:none"
         id="path346" /><path
         d="m 5900.71,3630.3 c 81.94,-166.7 200.49,-304.2 276.35,-324.4 6.43,-1.8 12.51,-2.7 18.25,-2.7 73.9,0 61.97,146.4 -26.74,327.1 -88.83,180.5 -220.69,326.9 -294.6,326.9 -5.85,0 -11.13,-0.9 -15.84,-2.7 -55.77,-20.5 -39.13,-157.9 42.58,-324.2"
         style="fill:#ffe6c2;fill-opacity:1;fill-rule:nonzero;stroke:none"
         id="path348" /><path
         d="m 4252.12,3303.2 c -33.98,0 -80.2,31 -128.97,82 -9.69,10.2 -19.69,21.3 -29.49,33.2 -25.31,30 -50.61,64.7 -74.79,102.6 -6.84,10.8 -13.67,21.9 -20.31,33.2 -14.39,24.4 -28.16,49.8 -41.02,76 -0.61,1.2 -1.22,2.6 -1.83,3.8 -5.51,11.2 -10.61,22.2 -15.41,33.1 -10.1,22.7 -18.98,44.7 -26.43,65.8 -3.98,11.3 -7.65,22.3 -10.92,33 -9.48,31.1 -15.71,59.6 -18.57,84.6 -1.53,11.9 -2.14,23.1 -2.04,33.2 0.51,46 16.43,73.5 48.47,73.5 32.04,0 75.1,-27.5 120.71,-73.5 10.1,-10.2 20.41,-21.3 30.61,-33.2 21.63,-25 43.47,-53.5 64.49,-84.6 7.34,-10.7 14.49,-21.7 21.63,-33 13.16,-21.1 25.92,-43.1 38.16,-65.8 5.82,-10.9 11.53,-21.9 17.04,-33.1 0.72,-1.2 1.33,-2.6 1.94,-3.8 12.86,-26.1 24.08,-51.6 33.67,-76 4.49,-11.3 8.57,-22.4 12.35,-33.2 13.06,-37.9 21.84,-72.6 26.12,-102.6 1.73,-11.9 2.65,-22.9 2.86,-33.2 1.63,-51 -14.29,-82 -48.27,-82"
         style="fill:#ffe6c2;fill-opacity:1;fill-rule:nonzero;stroke:none"
         id="path350" /><path
         d="M 5959.19,3667.1 V 3634 H 3955.71 c -5.51,11.2 -10.61,22.2 -15.41,33.1 h 2018.89"
         style="fill:#f2b499;fill-opacity:1;fill-rule:nonzero;stroke:none"
         id="path352" /><path
         d="m 3902.95,3765.9 h 2014.71 v -33 H 3913.87 l -10.92,33"
         style="fill:#f2b499;fill-opacity:1;fill-rule:nonzero;stroke:none"
         id="path354" /><path
         d="m 5885.21,3883.7 v -33.2 H 3884.38 c -1.53,11.9 -2.14,23.1 -2.04,33.2 h 2002.87"
         style="fill:#f2b499;fill-opacity:1;fill-rule:nonzero;stroke:none"
         id="path356" /><path
         d="M 6020.41,3554.2 V 3521 H 4018.87 c -6.84,10.8 -13.67,21.9 -20.31,33.2 h 2021.85"
         style="fill:#f2b499;fill-opacity:1;fill-rule:nonzero;stroke:none"
         id="path358" /><path
         d="m 6100,3418.4 v -33.2 H 4123.15 c -9.69,10.2 -19.69,21.3 -29.49,33.2 H 6100"
         style="fill:#f2b499;fill-opacity:1;fill-rule:nonzero;stroke:none"
         id="path360" /><path
         d="m 5900.71,3630.3 c 81.94,-166.7 200.49,-304.2 276.35,-324.4 55.66,20.5 39.02,158 -42.69,324.4 -81.83,166.5 -200.38,304 -276.24,324.2 -55.77,-20.5 -39.13,-157.9 42.58,-324.2"
         style="fill:#ea9678;fill-opacity:1;fill-rule:nonzero;stroke:none"
         id="path362" /><path
         d="m 8649.32,3347.4 c -564.46,-148.7 -1024.65,117.4 -1172.37,678 l 536.95,141.5 c 91.14,-345.9 325.55,-326.9 493.94,-282.6 354.04,93.3 321.14,373.3 290.57,489.3 l 536.94,141.5 c 117.12,-444.5 -47.61,-999.5 -686.03,-1167.7"
         style="fill:#ffe6c2;fill-opacity:1;fill-rule:nonzero;stroke:none"
         id="path364" /><path
         d="m 8354.39,3391.6 c -285.48,0 -485.56,149.5 -608.82,286.2 -154.74,171.6 -222.46,355 -225.26,362.7 l 33.05,12.4 c 0.66,-1.8 68.56,-185.3 218.94,-351.7 200.18,-221.6 444.04,-309.5 724.78,-261.3 298.75,51.3 516.51,207.8 647.26,465.1 108.53,213.7 130.28,453.3 114.44,606.3 l 35.04,3.8 c 16.38,-158.2 -6.07,-405.8 -118.19,-626.5 -134.17,-264.2 -366.79,-431.6 -672.69,-484.1 -51.86,-8.9 -101.38,-12.9 -148.55,-12.9"
         style="fill:#f2b499;fill-opacity:1;fill-rule:nonzero;stroke:none"
         id="path366" /><path
         d="m 8373.54,3519.6 c -171.59,0 -337.02,74.8 -486.63,221.7 -154.65,151.8 -236.7,324.1 -240.12,331.4 l 31.78,15.5 c 0.81,-1.7 83.17,-174.5 233.5,-321.8 199.35,-195.3 417.74,-255.8 649.09,-179.9 255.65,84 426.98,258.3 509.22,518 61.72,194.9 47.3,367.5 47.15,369.2 l 35.09,3.3 c 0.66,-7.3 15.27,-180.6 -48.32,-382.3 -58.94,-187 -199.14,-432.9 -532.31,-542.3 -66.68,-21.9 -133.03,-32.8 -198.45,-32.8"
         style="fill:#f2b499;fill-opacity:1;fill-rule:nonzero;stroke:none"
         id="path368" /><path
         d="m 8388.08,3710.7 c -369.79,0 -553.06,377.7 -555.1,382.1 l 31.76,15.5 c 0.55,-1.2 56.29,-117.2 166.54,-216.9 146.25,-132.1 314.56,-174.4 500.25,-125.6 456.53,120 402.88,620.9 402.29,625.9 l 34.99,4.3 c 0.63,-5.4 57.57,-537.2 -428.47,-664.9 -53.85,-14.2 -104.61,-20.4 -152.26,-20.4"
         style="fill:#f2b499;fill-opacity:1;fill-rule:nonzero;stroke:none"
         id="path370" /><path
         d="m 8017.34,4167.8 c 5.13,-19.4 -111.69,-67.1 -260.91,-106.4 -149.23,-39.3 -274.35,-55.4 -279.48,-36 -5.12,19.5 111.7,67.1 260.92,106.4 149.23,39.3 274.35,55.5 279.47,36"
         style="fill:#ea9678;fill-opacity:1;fill-rule:nonzero;stroke:none"
         id="path372" /><path
         d="m 9335.35,4515.1 c 5.12,-19.4 -111.7,-67.1 -260.92,-106.4 -149.23,-39.3 -274.35,-55.4 -279.48,-36 -5.12,19.4 111.7,67.1 260.92,106.4 149.23,39.3 274.35,55.4 279.48,36"
         style="fill:#ea9678;fill-opacity:1;fill-rule:nonzero;stroke:none"
         id="path374" /><path
         d="m 22882.6,3376.2 c -547.2,203.5 -770.1,686.1 -568,1229.5 l 520.5,-193.6 c -124.7,-335.3 77.8,-454.7 241,-515.4 343.2,-127.7 477.5,120.1 519.4,232.6 l 520.4,-193.6 c -160.2,-430.8 -614.6,-789.6 -1233.3,-559.5"
         style="fill:#ffe6c2;fill-opacity:1;fill-rule:nonzero;stroke:none"
         id="path376" /><path
         d="m 22666.9,3582.2 c -233.4,164.4 -310.8,401.9 -332.9,584.6 -27.6,229.4 22.6,418.3 24.8,426.3 l 34.2,-8.9 c -0.6,-1.9 -50.7,-191 -23.6,-413.7 36,-296.3 184.7,-508.7 442,-630.9 273.7,-130.2 541.9,-127.7 797,7.4 211.8,112.2 367.6,295.5 442.8,429.7 l 30.8,-17.1 c -77.7,-138.7 -238.7,-328.2 -457.5,-444.1 -261.8,-138.7 -548.4,-141.5 -828.7,-8.2 -47.5,22.5 -90.3,47.7 -128.9,74.9"
         style="fill:#f2b499;fill-opacity:1;fill-rule:nonzero;stroke:none"
         id="path378" /><path
         d="m 22756.3,3675.9 c -140.3,98.8 -232.5,255.2 -270.1,461.4 -39,213.2 -6.9,401.4 -5.5,409.3 l 34.9,-5.7 c -0.3,-1.8 -32.5,-190.5 5.6,-397.5 50.5,-274.5 194.1,-449.8 427,-520.9 257.4,-78.6 497.8,-34.8 714.6,130.1 162.7,123.8 250.3,273.2 251.2,274.7 l 30.6,-17.5 c -3.7,-6.3 -91.6,-156.4 -259.7,-284.7 -155.9,-118.9 -412.1,-239.2 -747.5,-136.8 -67.1,20.6 -127.6,49.9 -181.1,87.6"
         style="fill:#f2b499;fill-opacity:1;fill-rule:nonzero;stroke:none"
         id="path380" /><path
         d="m 22878.2,3823.7 c -302.3,212.9 -234.5,627.3 -233.7,632 l 34.9,-5.6 c -0.2,-1.2 -21.5,-128.2 11.3,-273.2 43.4,-192.3 156.6,-323.7 336.6,-390.8 442.3,-164.8 686.9,275.5 689.3,280 l 31.1,-16.7 c -2.6,-4.7 -262.3,-472.2 -733.2,-296.7 -52.2,19.4 -97.3,43.5 -136.3,71"
         style="fill:#f2b499;fill-opacity:1;fill-rule:nonzero;stroke:none"
         id="path382" /><path
         d="m 22838.4,4410.9 c -7,-18.8 -129.9,9.5 -274.6,63.3 -144.6,53.8 -256.2,112.7 -249.2,131.5 7.1,18.9 130,-9.5 274.6,-63.3 144.7,-53.8 256.2,-112.7 249.2,-131.5"
         style="fill:#ea9678;fill-opacity:1;fill-rule:nonzero;stroke:none"
         id="path384" /><path
         d="m 24115.9,3935.7 c -7,-18.8 -129.9,9.5 -274.6,63.3 -144.6,53.8 -256.2,112.7 -249.2,131.5 7,18.9 130,-9.4 274.6,-63.2 144.6,-53.8 256.2,-112.7 249.2,-131.6"
         style="fill:#ea9678;fill-opacity:1;fill-rule:nonzero;stroke:none"
         id="path386" /><path
         d="M 28734,3232.9 H 1528.95 c -16.99,0 -30.9,13.9 -30.9,30.9 v 10.6 c 0,17 13.91,30.9 30.9,30.9 H 28734 c 17,0 30.9,-13.9 30.9,-30.9 v -10.6 c 0,-17 -13.9,-30.9 -30.9,-30.9"
         style="fill:#233862;fill-opacity:1;fill-rule:nonzero;stroke:none"
         id="path388" /><path
         d="M 19093.4,8609.5 H 16663 c -52.1,0 -94.4,42.2 -94.4,94.4 0,52.1 42.3,94.4 94.4,94.4 h 2430.4 c 52.2,0 94.4,-42.3 94.4,-94.4 0,-52.2 -42.2,-94.4 -94.4,-94.4"
         style="fill:#afcdfb;fill-opacity:1;fill-rule:nonzero;stroke:none"
         id="path390" /></g></g></svg>
