<?xml version="1.0" encoding="UTF-8" standalone="no"?>
<svg
   xmlns:dc="http://purl.org/dc/elements/1.1/"
   xmlns:cc="http://creativecommons.org/ns#"
   xmlns:rdf="http://www.w3.org/1999/02/22-rdf-syntax-ns#"
   xmlns:svg="http://www.w3.org/2000/svg"
   xmlns="http://www.w3.org/2000/svg"
   xmlns:sodipodi="http://sodipodi.sourceforge.net/DTD/sodipodi-0.dtd"
   xmlns:inkscape="http://www.inkscape.org/namespaces/inkscape"
   version="1.1"
   id="svg2"
   xml:space="preserve"
   width="666.66669"
   height="666.66669"
   viewBox="0 0 666.66669 666.66669"
   sodipodi:docname="5184246.eps"><metadata
     id="metadata8"><rdf:RDF><cc:Work
         rdf:about=""><dc:format>image/svg+xml</dc:format><dc:type
           rdf:resource="http://purl.org/dc/dcmitype/StillImage" /></cc:Work></rdf:RDF></metadata><defs
     id="defs6" /><sodipodi:namedview
     pagecolor="#ffffff"
     bordercolor="#666666"
     borderopacity="1"
     objecttolerance="10"
     gridtolerance="10"
     guidetolerance="10"
     inkscape:pageopacity="0"
     inkscape:pageshadow="2"
     inkscape:window-width="640"
     inkscape:window-height="480"
     id="namedview4" /><g
     id="g10"
     inkscape:groupmode="layer"
     inkscape:label="ink_ext_XXXXXX"
     transform="matrix(1.3333333,0,0,-1.3333333,0,666.66667)"><g
       id="g12"
       transform="scale(0.1)"><path
         d="M 5000,0 H 0 V 5000 H 5000 V 0"
         style="fill:#ffffff;fill-opacity:1;fill-rule:nonzero;stroke:none"
         id="path14" /><path
         d="m 4239.51,1658.56 c -105.6,47.7 -121.67,162.48 -165.29,222.17 -43.61,59.69 -149.22,96.43 -149.22,96.43 0,0 101.02,78.05 261.71,59.69 75.55,-8.64 132.31,-42.64 178.66,-79.59 -23.84,69.15 0.36,109 -40.92,174.77 -48.21,76.82 -142.33,118.31 -195.13,245.88 -52.81,127.57 0,242.05 0,242.05 0,0 16.07,-45.92 80.35,-91.84 57.46,-41.04 219.42,-47.33 315.47,-171.16 -49.65,698.75 -535.43,1080.61 -871.56,1279.8 -288.72,171.09 -475.13,528.17 -1255.17,476.53 -780.04,-51.75 -953.71,-552.17 -1146.97,-930.99 -107,-209.71 -348.897,-256.11 -552.917,-400.4 151.012,39.51 246.77,-33.36 360.527,-56.34 136.34,-27.55 157.77,68.58 280.2,67.96 122.44,-0.62 168.36,-43.48 168.36,-43.48 0,0 -122.44,18.37 -162.23,-85.7 -39.8,-104.07 -88.77,-143.16 -211.21,-126.68 -122.44,16.49 -157.885,7.59 -222.807,-50.72 -64.922,-58.3 -214.914,-15.45 -300.617,-36.87 -50.781,-12.69 -119.812,-102.74 -167.648,-174.03 38.648,31.28 91.558,65.84 162.855,97.65 198.965,88.77 453.097,-73.6 453.097,-73.6 0,0 -200.366,-45.92 -316.683,-125.5 -116.316,-79.59 -198.965,-3.07 -278.551,-30.62 -39.863,-13.79 -72.039,-27.78 -94.238,-38.3 -0.015,-0.31 -0.047,-0.61 -0.066,-0.92 C 353.551,1857.28 447.074,1637.54 605.953,1449.2 994.957,988.102 1775.75,714.898 2301.34,682.23 c 549.7,-34.07 1514.44,170.122 1972.55,778.65 40.54,53.83 77.06,110.88 109.02,171.15 -45.82,0.26 -98.54,6.28 -143.4,26.53"
         style="fill:#9da6db;fill-opacity:1;fill-rule:nonzero;stroke:none"
         id="path16" /><path
         d="m 2253.7,3095.19 c 0,-159.4 -129.21,-288.61 -288.61,-288.61 -159.39,0 -288.61,129.21 -288.61,288.61 0,159.39 129.22,288.6 288.61,288.6 159.4,0 288.61,-129.21 288.61,-288.6"
         style="fill:#707ac5;fill-opacity:1;fill-rule:nonzero;stroke:none"
         id="path18" /><path
         d="m 4058.57,3383.79 c 0,-57.87 -46.91,-104.78 -104.78,-104.78 -57.86,0 -104.78,46.91 -104.78,104.78 0,57.87 46.92,104.78 104.78,104.78 57.87,0 104.78,-46.91 104.78,-104.78"
         style="fill:#707ac5;fill-opacity:1;fill-rule:nonzero;stroke:none"
         id="path20" /><path
         d="M 4273.89,1460.88 C 3815.78,852.352 2851.04,648.16 2301.34,682.23 1775.75,714.898 994.957,988.102 605.953,1449.2 c 148.168,164.24 526.987,496.88 1226.037,590.41 939.78,125.78 1594.8,-620.41 2304.98,-580.99 47.79,2.69 93.42,3.33 136.92,2.26"
         style="fill:#707ac5;fill-opacity:1;fill-rule:nonzero;stroke:none"
         id="path22" /><path
         d="m 1227.53,3400.5 c 87.24,261.71 -119.38,140.81 -197.43,-26.01 -78.057,-166.83 -224.983,-185.17 -224.983,-279.3 0,-94.15 335.173,43.6 422.413,305.31 z"
         style="fill:none;stroke:#707ac5;stroke-width:10;stroke-linecap:butt;stroke-linejoin:miter;stroke-miterlimit:10;stroke-dasharray:none;stroke-opacity:1"
         id="path24" /><path
         d="m 3619.67,3728.88 c 0,0 -243.35,206.53 -342.06,273.1 -98.72,66.57 -55.1,156.11 171.03,52.8 226.13,-103.31 322.55,-302.79 292.7,-344.24 -29.85,-41.44 -121.67,18.34 -121.67,18.34 z"
         style="fill:none;stroke:#707ac5;stroke-width:10;stroke-linecap:butt;stroke-linejoin:miter;stroke-miterlimit:10;stroke-dasharray:none;stroke-opacity:1"
         id="path26" /><path
         d="m 1361.43,3110.86 c 0,-8.66 -7.02,-15.67 -15.68,-15.67 -8.66,0 -15.68,7.01 -15.68,15.67 0,8.66 7.02,15.68 15.68,15.68 8.66,0 15.68,-7.02 15.68,-15.68"
         style="fill:#4d5eb4;fill-opacity:1;fill-rule:nonzero;stroke:none"
         id="path28" /><path
         d="m 1493.05,3081.23 c 0,-8.66 -7.02,-15.68 -15.68,-15.68 -8.66,0 -15.68,7.02 -15.68,15.68 0,8.66 7.02,15.68 15.68,15.68 8.66,0 15.68,-7.02 15.68,-15.68"
         style="fill:#4d5eb4;fill-opacity:1;fill-rule:nonzero;stroke:none"
         id="path30" /><path
         d="m 1932.93,3549.64 c 0,-8.66 -7.02,-15.68 -15.68,-15.68 -8.66,0 -15.68,7.02 -15.68,15.68 0,8.66 7.02,15.68 15.68,15.68 8.66,0 15.68,-7.02 15.68,-15.68"
         style="fill:#4d5eb4;fill-opacity:1;fill-rule:nonzero;stroke:none"
         id="path32" /><path
         d="m 3985.16,2159.35 c 0,-8.67 -7.03,-15.68 -15.69,-15.68 -8.66,0 -15.68,7.01 -15.68,15.68 0,8.66 7.02,15.68 15.68,15.68 8.66,0 15.69,-7.02 15.69,-15.68"
         style="fill:#4d5eb4;fill-opacity:1;fill-rule:nonzero;stroke:none"
         id="path34" /><path
         d="m 4038.54,2201.82 c 0,-8.67 -7.01,-15.68 -15.67,-15.68 -8.66,0 -15.68,7.01 -15.68,15.68 0,8.66 7.02,15.68 15.68,15.68 8.66,0 15.67,-7.02 15.67,-15.68"
         style="fill:#4d5eb4;fill-opacity:1;fill-rule:nonzero;stroke:none"
         id="path36" /><path
         d="m 1461.69,3161.74 c 0,-13.94 -11.3,-25.25 -25.25,-25.25 -13.95,0 -25.25,11.31 -25.25,25.25 0,13.95 11.3,25.26 25.25,25.26 13.95,0 25.25,-11.31 25.25,-25.26"
         style="fill:#4d5eb4;fill-opacity:1;fill-rule:nonzero;stroke:none"
         id="path38" /><path
         d="m 4125.49,2990.63 c 0,-13.95 -11.3,-25.25 -25.25,-25.25 -13.95,0 -25.25,11.3 -25.25,25.25 0,13.95 11.3,25.26 25.25,25.26 13.95,0 25.25,-11.31 25.25,-25.26"
         style="fill:#4d5eb4;fill-opacity:1;fill-rule:nonzero;stroke:none"
         id="path40" /><path
         d="m 1411.19,2231.28 c 0,-18.08 -14.65,-32.73 -32.72,-32.73 -18.07,0 -32.72,14.65 -32.72,32.73 0,18.07 14.65,32.71 32.72,32.71 18.07,0 32.72,-14.64 32.72,-32.71 z"
         style="fill:none;stroke:#ffffff;stroke-width:10;stroke-linecap:butt;stroke-linejoin:miter;stroke-miterlimit:10;stroke-dasharray:none;stroke-opacity:1"
         id="path42" /><path
         d="m 3260.54,3626.61 c 0,-18.07 -14.65,-32.72 -32.72,-32.72 -18.06,0 -32.71,14.65 -32.71,32.72 0,18.06 14.65,32.71 32.71,32.71 18.07,0 32.72,-14.65 32.72,-32.71 z"
         style="fill:none;stroke:#ffffff;stroke-width:10;stroke-linecap:butt;stroke-linejoin:miter;stroke-miterlimit:10;stroke-dasharray:none;stroke-opacity:1"
         id="path44" /><path
         d="m 1726.79,3731.29 c 0,-57.61 -46.7,-104.32 -104.32,-104.32 -57.62,0 -104.32,46.71 -104.32,104.32 0,57.62 46.7,104.33 104.32,104.33 57.62,0 104.32,-46.71 104.32,-104.33 z"
         style="fill:none;stroke:#ffffff;stroke-width:10;stroke-linecap:butt;stroke-linejoin:miter;stroke-miterlimit:10;stroke-dasharray:none;stroke-opacity:1"
         id="path46" /><path
         d="m 4662.86,2832.07 c 0,-118.06 -95.7,-213.76 -213.76,-213.76 -118.06,0 -213.77,95.7 -213.77,213.76 0,118.05 95.71,213.76 213.77,213.76 118.06,0 213.76,-95.71 213.76,-213.76 z"
         style="fill:none;stroke:#ffffff;stroke-width:10;stroke-linecap:butt;stroke-linejoin:miter;stroke-miterlimit:10;stroke-dasharray:none;stroke-opacity:1"
         id="path48" /><path
         d="m 654.664,1791.96 c 0,-118.05 -95.703,-213.76 -213.762,-213.76 -118.054,0 -213.757,95.71 -213.757,213.76 0,118.06 95.703,213.76 213.757,213.76 118.059,0 213.762,-95.7 213.762,-213.76 z"
         style="fill:none;stroke:#ffffff;stroke-width:10;stroke-linecap:butt;stroke-linejoin:miter;stroke-miterlimit:10;stroke-dasharray:none;stroke-opacity:1"
         id="path50" /><path
         d="m 2061.47,3967.26 c 0,0 -45.03,-23.37 -47.16,-121.98 -2.12,-98.61 92.35,-144.3 151.91,-143.24 l -5.22,15.38 c 0,0 -101.45,11.18 -127.79,97.26 -26.34,86.08 31.05,144.53 31.05,144.53 l -2.79,8.05"
         style="fill:#35181a;fill-opacity:1;fill-rule:nonzero;stroke:none"
         id="path52" /><path
         d="m 3701.79,2246.49 c 0,0 -20.62,-155.87 -294,-215.38 -273.39,-59.51 -555.36,96.36 -555.36,96.36 l 46.01,4.56 c 0,0 159.44,-92.41 350.73,-81.07 191.29,11.33 299.62,127.52 299.62,127.52 l 153,68.01"
         style="fill:#35181a;fill-opacity:1;fill-rule:nonzero;stroke:none"
         id="path54" /><path
         d="m 3743.68,3015.89 c 0,0 -32.59,94.93 -157.27,192.7 -124.7,97.77 -223.88,151.61 -223.88,151.61 388.24,-121.86 392.49,-344.31 392.49,-344.31 z m 25.51,-15.59 c 17,192.7 -249.39,391.08 -566.78,442.15 -317.39,51.08 -294.47,389.6 -294.47,389.6 l -634.11,-364.87 c 0,0 -29.26,-302.52 -240.62,-472.55 -211.35,-170.03 -247.73,-572.44 -148.55,-731.13 99.19,-158.71 274.89,-170.04 548.36,-153.03 273.46,17 400.23,2.8 704.22,-22.68 303.98,-25.48 520.73,-94.56 705.34,242.3 184.6,336.85 -73.39,670.21 -73.39,670.21"
         style="fill:#35181a;fill-opacity:1;fill-rule:nonzero;stroke:none"
         id="path56" /><path
         d="m 2055.27,3172.03 c 0,0 -89.84,-81.04 -153.6,-251.08 -63.76,-170.03 -198.37,-697.13 -198.37,-697.13 l 217.6,-135.69 210.31,574.94 -75.94,508.96"
         style="fill:#dd5c55;fill-opacity:1;fill-rule:nonzero;stroke:none"
         id="path58" /><path
         d="m 2922.29,2354.59 c -33.1,-97.92 -24.97,-205.06 22.82,-296.77 l 11.68,-50.46 v -0.1 l 32.03,-137.89 c -219.19,-190.26 -523.67,-254.44 -710.94,-213.08 -187.38,41.36 -235.05,194.66 -235.05,194.66 l 28.93,202.59 -49.61,450.71 c 0,0 -38.78,59.25 -55.27,195.63 -16.61,136.49 88.38,472.14 88.38,472.14 l 341.11,136.37 248.77,21.22 414.93,-157.59 53.67,-134.46 c -1.93,-74.35 -56.68,-265.58 -113.89,-446.31 -27.1,-85.82 -54.74,-169.28 -77.56,-236.66"
         style="fill:#fbcdb7;fill-opacity:1;fill-rule:nonzero;stroke:none"
         id="path60" /><path
         d="m 2647.49,3307.44 c -38.97,-71 -178.12,-160.13 -234.32,-140.64 -56.19,19.49 -10.65,119.72 -10.65,119.72 0.52,14.23 1.04,27.36 1.43,39.44 2.6,80.16 2.08,114.01 2.08,114.01 l 241.46,159.8 c -5.64,-29.16 -8.44,-62.49 -9.41,-96.01 -2.93,-97.51 9.41,-196.32 9.41,-196.32"
         style="fill:#dd5c55;fill-opacity:1;fill-rule:nonzero;stroke:none"
         id="path62" /><path
         d="m 2647.49,3599.77 c -5.64,-29.16 -8.44,-62.49 -9.41,-96.01 -27.68,-41.51 -73.8,-103.75 -121.74,-137.85 -49.5,-35.28 -90.04,-40.6 -112.39,-39.95 2.6,80.16 2.08,114.01 2.08,114.01 l 241.46,159.8"
         style="fill:#c64645;fill-opacity:1;fill-rule:nonzero;stroke:none"
         id="path64" /><path
         d="m 2143.6,3684.67 c 0,0 8.35,-197.67 147.56,-286.76 139.2,-89.09 334.08,97.44 367.5,200.45 33.41,103.01 22.27,325.74 22.27,325.74 0,0 -183.75,122.5 -322.96,122.5 -139.2,0 -214.37,-69.6 -214.37,-69.6 0,0 0,-189.32 0,-292.33"
         style="fill:#dd5c55;fill-opacity:1;fill-rule:nonzero;stroke:none"
         id="path66" /><path
         d="m 2302.26,4042.71 c 0,0 -4.14,-72.67 129.49,-157.59 133.64,-84.91 206.1,-102.31 206.1,-102.31 l 28.3,-156.11 c 0,0 -19.43,-48.99 -24.88,-66.8 -5.94,-19.44 -3.61,-81.25 -3.61,-81.25 0,0 112.88,16.74 151.85,121.12 0,0 115.54,86.29 119.72,242.2 4.17,155.91 -76.56,204.63 -76.56,204.63 0,0 -20.79,186.54 -226.86,218.55 -206.07,32.02 -370.34,-83.52 -370.34,-83.52 0,0 -100.22,13.92 -154.51,-57.08 -54.29,-70.99 -19.49,-157.29 -19.49,-157.29 0,0 -47.33,-45.94 -19.49,-121.11 27.84,-75.17 101.62,-84.92 101.62,-84.92 0,0 6.96,128.07 44.54,192.1 37.59,64.04 114.12,89.38 114.12,89.38"
         style="fill:#35181a;fill-opacity:1;fill-rule:nonzero;stroke:none"
         id="path68" /><path
         d="m 2647.52,3759.84 c 0,0 26.45,65.42 80.74,72.39 54.29,6.95 58.47,-89.1 20.88,-153.13 -37.59,-64.03 -90.48,-51.51 -90.48,-51.51 l -11.14,132.25"
         style="fill:#dd5c55;fill-opacity:1;fill-rule:nonzero;stroke:none"
         id="path70" /><path
         d="m 2621.07,3832.58 c 0,0 36.2,-108.93 15.32,-195.24 0,0 5.86,5.79 13.53,16.97 17.47,25.45 24.75,122.23 32.57,155.41 l -61.42,22.86"
         style="fill:#35181a;fill-opacity:1;fill-rule:nonzero;stroke:none"
         id="path72" /><path
         d="m 2232.69,4171.89 c 0,0 45.47,65.88 131.78,92.8 86.31,26.91 158.69,0 158.69,0 l 13.93,0.93 c 0,0 -80.74,38.77 -171.69,11.03 -90.95,-27.74 -154.05,-99.2 -154.05,-99.2 l 21.34,-5.56"
         style="fill:#35181a;fill-opacity:1;fill-rule:nonzero;stroke:none"
         id="path74" /><path
         d="m 2832.67,4046.6 c 0,0 48.1,-9.28 76.71,-61.25 28.62,-51.97 -0.92,-104.73 -0.92,-104.73 l -4.8,6.36 c 0,0 23.02,44.78 -5.57,93.73 -28.59,48.95 -65.42,46.4 -65.42,46.4 v 19.49"
         style="fill:#35181a;fill-opacity:1;fill-rule:nonzero;stroke:none"
         id="path76" /><path
         d="m 2161,3794.34 c 0,0 5.77,13.17 46.94,12.35 41.19,-0.82 65.89,-23.88 65.89,-23.88 0,0 -18.94,35.41 -56.41,40.35 -37.47,4.95 -55.59,-23.06 -56.42,-28.82"
         style="fill:#35181a;fill-opacity:1;fill-rule:nonzero;stroke:none"
         id="path78" /><path
         d="m 2302.26,4042.71 c 0,0 -6.46,-71.28 35.3,-128.82 41.76,-57.54 165.19,-57.54 165.19,-57.54 l 4.95,-11.07 c 0,0 -121.88,-0.99 -171.07,42.63 -49.18,43.61 -54.75,116.56 -45.47,154.8 h 11.1"
         style="fill:#35181a;fill-opacity:1;fill-rule:nonzero;stroke:none"
         id="path80" /><path
         d="m 2385.1,3789.79 c 0,0 6.66,15.21 54.22,14.26 47.56,-0.95 76.09,-27.59 76.09,-27.59 0,0 -21.87,40.91 -65.15,46.62 -43.28,5.7 -64.21,-26.64 -65.16,-33.29"
         style="fill:#35181a;fill-opacity:1;fill-rule:nonzero;stroke:none"
         id="path82" /><path
         d="m 2273.83,3602.54 c 0,0 6.27,-6.27 29.93,-13.22 23.67,-6.97 40.37,0 40.37,0 0,0 -7.14,13.22 -25.49,16 -18.36,2.79 -44.81,-2.78 -44.81,-2.78"
         style="fill:#a13136;fill-opacity:1;fill-rule:nonzero;stroke:none"
         id="path84" /><path
         d="m 2273.83,3782.81 c 0,0 13.15,-13.92 18.03,-50.11 4.87,-36.2 0,-64.74 0,-64.74 0,0 -16.56,94.66 -18.03,114.85"
         style="fill:#c64645;fill-opacity:1;fill-rule:nonzero;stroke:none"
         id="path86" /><path
         d="m 2166.22,3742.44 c 0,0 20.19,-8.7 45.59,-11.49 25.41,-2.78 56.73,5.22 56.73,5.22 0,0 -11.66,31.34 -38.63,38.63 -42.46,11.49 -63.69,-32.36 -63.69,-32.36"
         style="fill:#c64645;fill-opacity:1;fill-rule:nonzero;stroke:none"
         id="path88" /><path
         d="m 2385.1,3737.31 c 0,0 4.2,32.12 45.26,39.15 41.07,7.04 89.79,-36.11 89.79,-36.11 0,0 -80.76,-38.53 -135.05,-3.04"
         style="fill:#c64645;fill-opacity:1;fill-rule:nonzero;stroke:none"
         id="path90" /><path
         d="m 2218.54,3731.29 c -27.38,0.46 -52.32,11.15 -52.32,11.15 l -5.22,-3.48 c -3.4,-2.27 -11.02,-3.25 -11.02,-3.25 7.36,-3.21 14.99,-3.02 19.65,-2.45 9.48,-5.42 26.26,-12.8 47.75,-13.09 34.1,-0.47 51.16,11.36 51.16,11.36 v 4.65 c 0,0 -22.62,-5.34 -50,-4.89"
         style="fill:#35181a;fill-opacity:1;fill-rule:nonzero;stroke:none"
         id="path92" /><path
         d="m 2520.15,3740.35 c 0,0 -33.05,-10.05 -67.27,-10.98 -34.24,-0.94 -65.87,9.13 -65.87,9.13 l -6.37,-3.97 c -4.15,-2.59 -13.63,-4.02 -13.63,-4.02 9.34,-3.03 18.86,-2.44 24.66,-1.58 12.08,-5.28 33.37,-12.26 60.24,-11.45 42.64,1.27 55.79,11.4 65.05,17.48 1.31,0.86 3.19,5.39 3.19,5.39"
         style="fill:#35181a;fill-opacity:1;fill-rule:nonzero;stroke:none"
         id="path94" /><path
         d="m 2273.83,3539.43 c 0,0 7.04,-3.24 35.15,-8.81 28.11,-5.57 94.97,8.81 94.97,8.81 0,0 -49.34,8.35 -65.06,7.43 -15.72,-0.93 -26.39,-8.73 -26.39,-8.73 0,0 -14.38,11.51 -23.2,11.51 -8.82,0 -25.06,-5.1 -25.06,-5.1 l 9.59,-5.11"
         style="fill:#a13136;fill-opacity:1;fill-rule:nonzero;stroke:none"
         id="path96" /><path
         d="m 2283.93,3509.67 c 0,0 19.14,-12.99 46.98,-13.92 27.84,-0.93 58,10.67 58,10.67 0,0 -16.76,-24.05 -52.49,-27.77 -35.73,-3.71 -52.49,31.02 -52.49,31.02"
         style="fill:#c64645;fill-opacity:1;fill-rule:nonzero;stroke:none"
         id="path98" /><path
         d="m 1942.15,1728.23 119.83,256.51 c 0,0 79.68,-83.98 323.12,-92.48 243.45,-8.51 571.7,114.99 571.7,114.99 0,0 84.08,-217.02 84.08,-297.78 0,-80.77 -480.34,-399.58 -480.34,-399.58 l -284.8,21.26 -333.59,397.08"
         style="fill:#772f36;fill-opacity:1;fill-rule:nonzero;stroke:none"
         id="path100" /><path
         d="m 1928.51,1309.89 c 0,0 -78.69,-30.62 -105.65,-43.18 0,0 -117.56,-12.04 -164.75,-25.96 -47.2,-13.91 -59.11,-77.18 -70.68,-145.51 -11.58,-68.32 -99.61,-159.99 -126.92,-207.529 -27.31,-47.559 -14.27,-104.09 -10.5,-115.789 3.77,-11.711 -11.79,-51.602 7.79,-76.301 19.59,-24.691 30.99,-11.973 41.94,-5.851 10.95,6.101 14.28,27.851 14.28,27.851 0,0 30.39,5.918 41.76,14.738 11.36,8.832 -0.3,8.95 27.79,18 28.09,9.051 42.55,16.289 58.22,27.801 15.67,11.512 104.32,165.379 160.81,214.59 56.5,49.21 158.21,66.47 158.21,66.47 l -32.3,250.67"
         style="fill:#dd5c55;fill-opacity:1;fill-rule:nonzero;stroke:none"
         id="path102" /><path
         d="m 3468.77,1033.6 c -191.92,-48.389 -608.7,-82.42 -982.24,-104.541 -384.84,-22.809 -723.75,-32.93 -723.75,-32.93 l -57.03,181.021 -50.59,160.48 1118.62,221.78 c 0,0 -30.45,231.6 213.24,356.37 0,0 725.45,-5.75 901.2,-209.77 175.67,-204.03 -14.18,-470.44 -419.45,-572.41"
         style="fill:#772f36;fill-opacity:1;fill-rule:nonzero;stroke:none"
         id="path104" /><path
         d="m 2376.75,1097.24 c 0,0 78.69,-30.63 105.65,-43.19 0,0 117.55,-12.04 164.75,-25.95 47.2,-13.92 59.1,-77.178 70.68,-145.51 11.57,-68.32 99.6,-159.988 126.92,-207.539 27.3,-47.563 14.26,-104.082 10.49,-115.781 -3.77,-11.7 11.8,-51.598 -7.79,-76.301 -19.58,-24.699 -30.99,-11.969 -41.93,-5.86 -10.96,6.102 -14.29,27.852 -14.29,27.852 0,0 -30.39,5.918 -41.76,14.75 -11.35,8.828 0.31,8.937 -27.78,18 -28.1,9.051 -42.55,16.277 -58.22,27.801 -15.68,11.5 -104.33,165.379 -160.82,214.59 -56.49,49.207 -158.2,66.457 -158.2,66.457 l 32.3,250.681"
         style="fill:#dd5c55;fill-opacity:1;fill-rule:nonzero;stroke:none"
         id="path106" /><path
         d="m 2003.68,1773.23 c 0,0 -956.43,0 -1109.457,-170.03 C 741.191,1433.16 826.211,1216.38 949.48,1144.11 1072.76,1071.85 2365,782.789 2365,782.789 l 68.02,395.331 -190.65,59.51 102.08,136.69 -340.77,398.91"
         style="fill:#772f36;fill-opacity:1;fill-rule:nonzero;stroke:none"
         id="path108" /><path
         d="m 2000.85,1736.4 c 0,0 199.59,-247.1 308.09,-320.51 0,0 -223.07,22.95 -308.09,320.51"
         style="fill:#5d2129;fill-opacity:1;fill-rule:nonzero;stroke:none"
         id="path110" /><path
         d="m 1230.04,1522.43 c 0,0 165.78,-21.25 425.08,-76.51 259.3,-55.26 587.25,-208.29 587.25,-208.29 0,0 -336.43,229.55 -599.99,284.8 -263.57,55.27 -412.34,0 -412.34,0"
         style="fill:#5d2129;fill-opacity:1;fill-rule:nonzero;stroke:none"
         id="path112" /><path
         d="m 2154.89,1293.41 c 0,0 771.22,230.16 1094.28,282.73 0,0 -683.1,-205.32 -1006.8,-338.51 l -87.48,55.78"
         style="fill:#5d2129;fill-opacity:1;fill-rule:nonzero;stroke:none"
         id="path114" /><path
         d="m 2898.44,1756.7 c 0,0 -373.89,-184.55 -499.71,-371.65 0,0 394.11,202.08 499.71,371.65"
         style="fill:#5d2129;fill-opacity:1;fill-rule:nonzero;stroke:none"
         id="path116" /><path
         d="m 924.91,1751.29 c -42.105,-14.86 -90.414,0 -96.605,7.42 -6.192,7.43 40.875,50.78 40.875,84.23 0,5.22 -0.664,9.28 -1.742,12.5 6.917,-7.24 16.64,-14.52 26.41,-18.69 26.109,-11.15 83.082,-17.27 97.945,-25.98 14.867,-8.71 -24.773,-44.63 -66.883,-59.48 z m 995.99,336.84 c 0,0 -63.5,154.5 -212.41,155.89 l -591.28,-401.14 c -11.4,5.91 -31.39,14.13 -62.25,19.87 -53.26,9.91 -158.534,8.68 -185.78,13.63 -13.145,2.39 -13.875,-4.17 -8.258,-12.84 -8.676,3.6 -22.508,-6.09 -33.18,-21.84 -16.773,-24.78 -58.887,-70.93 -58.887,-96.78 0,-25.84 45.829,-51.84 73.075,-53.08 0,0 -92.891,-23.54 -110.231,-56.98 -17.34,-33.43 28.485,-28.48 43.352,-21.05 14.859,7.43 110.226,33.44 110.226,33.44 0,0 -94.129,-52.03 -96.605,-87.94 -2.477,-35.92 29.726,-14.86 59.449,0 29.727,14.86 82.981,42.12 82.981,42.12 0,0 -76.786,-55.75 -63.164,-80.51 13.625,-24.78 76.789,31.79 127.57,54.9 50.782,23.13 89.162,26.52 132.012,43.17 59.96,23.3 91.59,73.47 91.6,73.47 105.66,39.33 558.41,215.37 701.78,395.67"
         style="fill:#dd5c55;fill-opacity:1;fill-rule:nonzero;stroke:none"
         id="path118" /><path
         d="m 3868.37,2596.47 c 0,0 53.85,-164.42 17.01,-286.96 -36.85,-122.53 -177.83,-150.16 -177.83,-150.16 l 22.67,28.34 c 0,0 138.86,23.37 146.65,213.95 6.93,169.31 -8.5,194.83 -8.5,194.83"
         style="fill:#35181a;fill-opacity:1;fill-rule:nonzero;stroke:none"
         id="path120" /><path
         d="m 999.734,1812.73 c 0,0 46.756,-26.57 98.826,-26.57 52.07,0 -10.62,-23.38 -49.41,-11.69 -38.79,11.69 -49.416,38.26 -49.416,38.26"
         style="fill:#c64645;fill-opacity:1;fill-rule:nonzero;stroke:none"
         id="path122" /><path
         d="m 1163.79,1720.25 c 0,0 -31.88,-1.06 -76.51,-24.44 -44.63,-23.38 -68.01,-82.89 -79.7,-73.33 -11.697,9.56 20.19,100.96 156.21,97.77"
         style="fill:#c64645;fill-opacity:1;fill-rule:nonzero;stroke:none"
         id="path124" /><path
         d="m 855.852,1693.45 c 0,0 97.687,-79 109.378,-80.06 11.684,-1.07 -40.304,75.8 -109.378,80.06"
         style="fill:#c64645;fill-opacity:1;fill-rule:nonzero;stroke:none"
         id="path126" /><path
         d="m 2057.42,2541.12 c 0,0 48.21,25.25 195.13,25.25 146.93,0 391.48,-57.39 391.48,-57.39 0,0 -451.17,-2.3 -586.61,32.14"
         style="fill:#fab8a6;fill-opacity:1;fill-rule:nonzero;stroke:none"
         id="path128" /><path
         d="m 2945.23,2055.14 11.68,-50.47 v -0.11 l -208.27,-64.28 c 0,0 105.96,256.06 103.92,452.01 -2.03,195.94 61.92,439.78 61.92,439.78 l 85.5,-243.52 c -27.11,-85.82 -54.75,-169.27 -77.57,-236.66 -33.1,-97.92 -24.96,-205.05 22.82,-296.75"
         style="fill:#fab8a6;fill-opacity:1;fill-rule:nonzero;stroke:none"
         id="path130" /><path
         d="m 3853,1597.17 c -38.62,22.44 -70.87,65.11 -54.65,70.89 16.23,5.79 73.34,1.2 101.07,7.29 10.37,2.29 21.28,7.64 29.43,13.46 -1.66,-2.96 -3.07,-6.83 -4.04,-11.95 -6.22,-32.87 31.96,-84.21 24.49,-90.37 -7.46,-6.14 -57.69,-11.75 -96.3,10.68 z m 168.18,-150.33 c -10.82,36.08 -97.7,76.48 -97.7,76.48 27,-3.86 76.86,13.17 81.67,38.56 4.8,25.4 -27.98,78.59 -39.86,106.05 -7.56,17.46 -19.34,29.55 -28.53,27.63 7.13,7.47 7.62,14.05 -5.73,14.15 -27.69,0.2 -130.89,21 -185.07,21.18 -21.84,0.07 -38.68,-2.03 -51.1,-4.55 l -396.1,556.99 c -21.9,136.13 -52.12,480.71 -87.84,633.37 -46.76,199.79 -150.89,255.33 -150.89,255.33 0,0 -129.12,-76.8 -150.65,-225.57 -21.53,-148.78 168.09,-814.43 168.09,-814.43 67.33,-189.37 421.95,-492 471.32,-548.54 v 0 c 0,0 25.95,-44.56 80.53,-78.61 39,-24.32 76.08,-34.81 121.68,-66.97 45.58,-32.17 97.12,-99.49 115.12,-77.69 17.99,21.8 -47.09,90.85 -47.09,90.85 0,0 47.26,-36.68 73.7,-56.81 26.44,-20.13 54.16,-46.81 58.41,-11.06 4.25,35.76 -78.55,104.38 -78.55,104.38 0,0 88.86,-43.3 102.08,-53.37 13.22,-10.07 57.32,-23.46 46.51,12.63"
         style="fill:#dd5c55;fill-opacity:1;fill-rule:nonzero;stroke:none"
         id="path132" /><path
         d="m 3785.83,1662.71 c 0,0 -46.75,-26.57 -98.83,-26.57 -52.07,0 10.63,-23.38 49.42,-11.69 38.78,11.69 49.41,38.26 49.41,38.26"
         style="fill:#c64645;fill-opacity:1;fill-rule:nonzero;stroke:none"
         id="path134" /><path
         d="m 3587.98,1592.78 c 0,0 31.87,-1.06 76.51,-24.44 44.63,-23.38 68.01,-82.89 79.7,-73.33 11.69,9.57 -20.19,100.96 -156.21,97.77"
         style="fill:#c64645;fill-opacity:1;fill-rule:nonzero;stroke:none"
         id="path136" /><path
         d="m 3883.95,1538.73 c 0,0 -97.68,-78.99 -109.37,-80.06 -11.69,-1.06 40.3,75.81 109.37,80.06"
         style="fill:#c64645;fill-opacity:1;fill-rule:nonzero;stroke:none"
         id="path138" /><path
         d="m 2361.62,3246.68 c 0,0 -46.42,-88.38 27.29,-112.49 73.72,-24.1 199.98,59.7 264.26,121.68 0,0 -84.94,-136.6 -222.68,-158.4 -137.75,-21.82 -105.8,119.16 -68.87,149.21"
         style="fill:#fab8a6;fill-opacity:1;fill-rule:nonzero;stroke:none"
         id="path140" /></g></g></svg>
