<?xml version="1.0" encoding="utf-8"?>
<svg width="4000px" height="2667px" viewBox="0 0 4000 2667" version="1.1" xmlns:xlink="http://www.w3.org/1999/xlink" xmlns="http://www.w3.org/2000/svg">
  <defs>
    <path d="M0 0L4000 0L4000 2666.67L0 2666.67L0 0Z" id="path_1" />
    <clipPath id="mask_1">
      <use xlink:href="#path_1" />
    </clipPath>
  </defs>
  <g id="slide_1">
    <path d="M0 0L4000 0L4000 2666.67L0 2666.67L0 0Z" id="Background" fill="none" fill-rule="evenodd" stroke="none" />
    <g clip-path="url(#mask_1)">
      <g id="g10" transform="translate(0 0.00024414062)">
        <g id="g12">
          <path d="M3623.88 2230.79C3416.08 2230.79 389.043 2231.41 387.288 2226.84L387.003 2226.25C387.003 2226.25 386.704 2225.69 386.704 2225.41C385.547 2223.12 -79.6978 1580.49 643.576 1133.11C693.397 1102.29 725.123 1073.33 744.809 1045.44C836.996 914.92 665.48 808.213 850.9 647.64C999.492 518.987 1155.88 546.027 1316.6 573.053C1435.61 593.08 1557.01 613.093 1679.36 569.893C1730.17 551.96 1781.16 523.12 1832.2 478.84C1860.93 453.96 1892.41 432.173 1926.13 413.373C1931.31 410.48 1936.52 407.653 1941.79 404.906C1961.97 394.4 1982.91 384.893 2004.47 376.347C2018.95 370.626 2033.69 365.32 2048.72 360.453L2048.73 360.453C2072.59 352.707 2097.08 346.04 2122.09 340.4C2157.61 332.387 2194.19 326.427 2231.49 322.387C2247.76 320.6 2264.17 319.213 2280.68 318.16C2431.21 308.667 2590.57 328.653 2736.65 369.72C2902.41 416.32 3051.05 490.08 3150.27 578.693C3187.84 612.28 3358.69 785.987 3224.01 1024.76C3138.99 1175.53 3495.2 1319.51 3621.79 1491.67C3943.61 1929.35 3626.8 2225.08 3623.88 2230.79" id="path16" fill="#EBF3FA" fill-rule="evenodd" stroke="none" />
          <path d="M3150.95 1660.57C3149.05 1651.04 3153.83 1648.81 3153.83 1648.81C3153.83 1648.81 3249.37 1618.63 3257.35 1614.95C3265.33 1611.28 3327 1528.27 3327 1528.27C3327 1528.27 3350.35 1494.07 3373.52 1498.01C3393.65 1501.44 3403.16 1515.6 3407.57 1529.68C3412.84 1546.45 3407.13 1564.73 3393.43 1575.75C3362.65 1600.48 3300.97 1649.32 3285.83 1655.93C3252.11 1670.67 3156.8 1673.21 3156.8 1673.21C3156.8 1673.21 3152.43 1668.07 3150.95 1660.57" id="path18" fill="#98BAF4" fill-rule="evenodd" stroke="none" />
          <path d="M3147.99 1647.91C3143.19 1645.36 3132.35 1639.8 3132.03 1641.39C3131.79 1642.53 3132.56 1644.32 3134 1646.11C3127.68 1644.61 3121.37 1643.92 3107.24 1648.55C3104.41 1649.48 3102 1651.45 3100.72 1654.15C3099.53 1656.63 3099.35 1659.57 3103.33 1661.4C3111.31 1665.05 3108.81 1662.57 3119.95 1667.96C3131.07 1673.35 3143.85 1673.45 3150.77 1667.8L3160.64 1664.84L3159.77 1648.09C3159.77 1648.09 3153.95 1648.13 3147.99 1647.91" id="path20" fill="#ED975D" fill-rule="evenodd" stroke="none" />
          <path d="M2902.32 2219.84L2522.61 2068.92C2481.65 2052.63 2461.65 2006.23 2477.93 1965.28L2721.65 1352.16C2737.93 1311.2 2784.33 1291.19 2825.29 1307.47L2896.56 1335.8C2895.28 1355.45 2904.79 1375.48 2923.27 1382.83C2942.72 1390.56 2969.77 1389.59 2980.75 1369.25L3200.92 1456.77C3200.05 1464.11 3201.24 1471.89 3204.49 1478.65C3211.37 1492.97 3230.13 1498.63 3245.52 1494.23C3256.52 1514.36 3258.81 1539.05 3249.67 1562.05L3005.96 2175.16C2989.68 2216.12 2943.28 2236.13 2902.32 2219.84" id="path22" fill="#FFA412" fill-rule="evenodd" stroke="none" />
          <path d="M3037.92 1921.55L2628.8 1758.92C2595.97 1745.88 2579.93 1708.68 2592.99 1675.84L2751.13 1277.99L2896.56 1335.8C2895.28 1355.45 2904.79 1375.48 2923.27 1382.83C2942.72 1390.56 2969.77 1389.59 2980.75 1369.25L3025.64 1387.11C3023.59 1394.24 3023.05 1401.91 3023.88 1409.61C3026.44 1433.43 3042.01 1457.53 3065.93 1467.04C3094.08 1478.23 3125.72 1459.44 3138.97 1432.15L3200.92 1456.77C3200.05 1464.11 3201.24 1471.89 3204.49 1478.65C3211.37 1492.97 3230.13 1498.63 3245.52 1494.23C3247.43 1493.68 3249.27 1492.99 3251.04 1492.13C3256.19 1489.65 3260.39 1485.99 3263.45 1481.63L3279.16 1487.88L3121 1885.73C3107.96 1918.56 3070.76 1934.6 3037.92 1921.55" id="path24" fill="#FFB93E" fill-rule="evenodd" stroke="none" />
          <path d="M2981.33 1639.77C2957.43 1630.27 2941.84 1606.17 2939.28 1582.35C2938.28 1572.93 2939.29 1563.59 2942.63 1555.19C2948.04 1541.56 2958.05 1531.13 2970.17 1525L2970.27 1524.96C2984.52 1517.75 3001.69 1516.44 3017.72 1522.81C3047.4 1534.61 3068.16 1570.71 3056.36 1600.39C3044.56 1630.07 3011.01 1651.57 2981.33 1639.77" id="path26" fill="#FFA412" fill-rule="evenodd" stroke="none" />
          <path d="M2989.76 1629.45C2984.77 1629.45 2979.75 1628.56 2974.84 1626.61C2955.97 1619.11 2943.09 1601.09 2939.28 1582.35L2939.28 1582.35C2939.04 1580.07 2938.92 1577.8 2938.91 1575.53C2938.91 1568.47 2940.11 1561.55 2942.63 1555.19C2948.04 1541.56 2958.05 1531.13 2970.17 1525L2970.27 1524.96C2975.85 1522.87 2981.81 1521.76 2987.88 1521.76C2994.04 1521.76 3000.29 1522.89 3006.36 1525.31C3032.05 1535.52 3050.03 1566.8 3039.81 1592.49C3031.55 1613.28 3010.93 1629.45 2989.76 1629.45" id="path28" fill="#FFAF28" fill-rule="evenodd" stroke="none" />
          <path d="M3139.97 1519.84C3152.93 1513.6 3168.76 1516.32 3179.52 1524.28C3183.77 1527.44 3187.24 1531.39 3189.44 1535.95C3192.99 1543.33 3193.49 1551.4 3191.43 1558.72L3191.4 1558.76C3188.97 1567.36 3183 1574.92 3174.32 1579.11C3158.23 1586.85 3135.51 1581.72 3127.76 1565.63C3120.03 1549.53 3123.88 1527.59 3139.97 1519.84" id="path30" fill="#FFA412" fill-rule="evenodd" stroke="none" />
          <path d="M3163.65 1576.56C3152.79 1576.56 3141.92 1571.45 3137.28 1561.81C3130.57 1547.87 3133.92 1528.85 3147.85 1522.16C3152.09 1520.12 3156.68 1519.17 3161.27 1519.17C3167.73 1519.17 3174.16 1521.04 3179.52 1524.28C3183.77 1527.44 3187.24 1531.39 3189.44 1535.95C3191.61 1540.48 3192.64 1545.27 3192.64 1549.97C3192.64 1552.95 3192.23 1555.89 3191.43 1558.72L3191.4 1558.76L3191.4 1558.76C3188.88 1565 3184.12 1570.35 3177.6 1573.48C3173.31 1575.55 3168.48 1576.56 3163.65 1576.56" id="path32" fill="#FFAF28" fill-rule="evenodd" stroke="none" />
          <path d="M3018.43 1777.92C3010.28 1762.16 3013.08 1742.56 3022.52 1729.01C3026.27 1723.65 3031.01 1719.24 3036.56 1716.39C3045.55 1711.75 3055.47 1710.84 3064.56 1713.13L3064.61 1713.16C3075.31 1715.85 3084.83 1722.95 3090.29 1733.52C3100.4 1753.08 3094.87 1781.27 3075.29 1791.37C3055.73 1801.48 3028.53 1797.49 3018.43 1777.92" id="path34" fill="#FFA412" fill-rule="evenodd" stroke="none" />
          <path d="M3050.84 1784.43C3038.56 1784.43 3026.68 1779.11 3021 1768.13C3014.57 1755.69 3016.03 1740.49 3022.52 1729.01C3026.27 1723.65 3031.01 1719.24 3036.56 1716.39C3042.41 1713.36 3048.65 1711.93 3054.81 1711.93C3058.12 1711.93 3061.39 1712.33 3064.56 1713.13L3064.61 1713.16C3072.39 1716.05 3079.15 1721.73 3083.25 1729.67C3092 1746.61 3087.2 1771.03 3070.27 1779.77C3064.29 1782.85 3057.51 1784.43 3050.84 1784.43" id="path36" fill="#FFAF28" fill-rule="evenodd" stroke="none" />
          <path d="M2816.69 1716.64C2799.97 1701.41 2794.63 1676.77 2799.89 1656.4C2801.99 1648.35 2805.71 1640.97 2811.05 1635.09C2819.73 1625.57 2831.19 1620.09 2843.05 1618.81L2843.13 1618.8C2857.09 1617.28 2871.63 1621.53 2882.83 1631.73C2903.57 1650.63 2909.47 1686.73 2890.57 1707.49C2871.68 1728.23 2837.44 1735.53 2816.69 1716.64" id="path38" fill="#FFA412" fill-rule="evenodd" stroke="none" />
          <path d="M2840.96 1713.25C2831.64 1713.25 2822.6 1710.33 2815.43 1703.8C2802.23 1691.79 2797.21 1672.99 2799.89 1656.4C2801.99 1648.35 2805.71 1640.97 2811.05 1635.09C2819.73 1625.57 2831.19 1620.09 2843.05 1618.81L2843.13 1618.8C2853.69 1618.81 2864.29 1622.6 2872.71 1630.27C2890.68 1646.61 2895.77 1677.91 2879.41 1695.87C2869.59 1706.65 2854.96 1713.25 2840.96 1713.25" id="path40" fill="#FFAF28" fill-rule="evenodd" stroke="none" />
          <path d="M2737.95 1599.17C2724.4 1596.88 2713.57 1586.03 2709.59 1573.88C2708.01 1569.08 2707.49 1564.08 2708.29 1559.32C2709.6 1551.6 2713.67 1545.04 2719.32 1540.48L2719.36 1540.45C2726 1535.09 2734.81 1532.49 2743.89 1534.04C2760.71 1536.88 2775.57 1553.41 2772.73 1570.24C2769.88 1587.04 2754.76 1602.01 2737.95 1599.17" id="path42" fill="#FFA412" fill-rule="evenodd" stroke="none" />
          <path d="M2736.68 1593.32C2735.49 1593.32 2734.29 1593.23 2733.09 1593.01C2722.4 1591.21 2713.67 1583.24 2709.59 1573.88L2709.59 1573.88C2708.51 1570.57 2707.92 1567.19 2707.92 1563.84C2707.92 1562.32 2708.05 1560.81 2708.29 1559.32C2709.6 1551.6 2713.67 1545.04 2719.32 1540.48L2719.36 1540.45C2723.56 1537.76 2728.53 1536.23 2733.75 1536.23C2735.23 1536.23 2736.73 1536.35 2738.24 1536.6C2752.8 1539.07 2765.68 1553.4 2763.21 1567.95C2760.95 1581.31 2749.75 1593.32 2736.68 1593.32" id="path44" fill="#FFAF28" fill-rule="evenodd" stroke="none" />
          <path d="M2962.32 1847.32C2951.24 1851.92 2938.21 1848.95 2929.6 1841.84C2926.21 1839.03 2923.51 1835.57 2921.89 1831.68C2919.27 1825.37 2919.21 1818.64 2921.27 1812.65L2921.28 1812.61C2923.69 1805.56 2929 1799.55 2936.41 1796.45C2950.16 1790.75 2968.83 1796.04 2974.55 1809.79C2980.25 1823.52 2976.05 1841.61 2962.32 1847.32" id="path46" fill="#FFA412" fill-rule="evenodd" stroke="none" />
          <path d="M2946.08 1846.95C2940.17 1846.95 2934.32 1845.05 2929.6 1841.84L2929.6 1841.84C2926.21 1839.03 2923.51 1835.57 2921.89 1831.68C2920.48 1828.28 2919.81 1824.76 2919.81 1821.29C2919.81 1818.33 2920.32 1815.41 2921.27 1812.65L2921.28 1812.61C2923.65 1807.55 2927.87 1803.31 2933.44 1800.99C2936.63 1799.65 2940.12 1799.01 2943.61 1799.01C2953.19 1799.01 2962.83 1803.81 2966.45 1812.52C2971.4 1824.43 2967.76 1840.09 2955.87 1845.04C2952.72 1846.35 2949.39 1846.95 2946.08 1846.95" id="path48" fill="#FFAF28" fill-rule="evenodd" stroke="none" />
          <path d="M2756.92 1395.71C2763.44 1374.05 2783.37 1358.61 2804.04 1354.57C2812.2 1352.99 2820.47 1353.17 2828.07 1355.47C2840.4 1359.19 2850.28 1367.17 2856.56 1377.32L2856.6 1377.39C2863.99 1389.33 2866.41 1404.28 2862.04 1418.77C2853.95 1445.65 2823.89 1466.52 2797.03 1458.43C2770.17 1450.32 2748.83 1422.56 2756.92 1395.71" id="path50" fill="#FFA412" fill-rule="evenodd" stroke="none" />
          <path d="M2813.17 1444.88C2809.67 1444.88 2806.16 1444.39 2802.71 1443.35C2779.44 1436.33 2760.95 1412.29 2767.96 1389.03C2773.11 1371.95 2787.91 1359.32 2804.04 1354.57C2807.55 1353.89 2811.08 1353.55 2814.57 1353.55C2819.19 1353.55 2823.73 1354.16 2828.07 1355.47C2840.4 1359.19 2850.28 1367.17 2856.56 1377.32L2856.6 1377.39C2861.15 1386.92 2862.29 1398.12 2859.01 1409.01C2853.04 1428.83 2833.28 1444.88 2813.17 1444.88" id="path52" fill="#FFAF28" fill-rule="evenodd" stroke="none" />
          <path d="M3400.19 1484.21C3400.19 1484.21 3376.23 1512.64 3345.71 1500.75C3345.71 1500.75 3339.15 1484.87 3339.05 1473.17C3339.04 1471.73 3339.03 1470.33 3339 1469C3338.84 1455.83 3338.4 1448.43 3338.4 1448.43L3338.43 1448.43C3339.81 1447.84 3385.08 1429.27 3385.04 1430.8C3384.27 1466.45 3400.19 1484.21 3400.19 1484.21" id="path54" fill="#FFB27D" fill-rule="evenodd" stroke="none" />
          <path d="M3380.49 1439.31C3376.13 1447.4 3361.15 1463.23 3339 1469C3338.84 1455.83 3338.4 1448.43 3338.4 1448.43L3338.43 1448.43C3339.68 1448.09 3381.79 1436.92 3380.49 1439.31" id="path56" fill="#ED975D" fill-rule="evenodd" stroke="none" />
          <path d="M3328.92 1447.05C3328.92 1447.05 3379.81 1459.03 3386.77 1427.21C3393.75 1395.4 3405 1375.52 3372.8 1366.53C3340.6 1357.55 3331.6 1368.31 3326.69 1378.36C3321.79 1388.41 3315.85 1443.13 3328.92 1447.05" id="path58" fill="#FFB27D" fill-rule="evenodd" stroke="none" />
          <path d="M3385.04 1435.88C3385.73 1436.33 3389.81 1443.59 3410.56 1402.27C3413.81 1395.77 3422.91 1377.85 3415.31 1365.45C3407.72 1353.05 3383.97 1345.95 3361.61 1341.71C3339.27 1337.47 3345.17 1360 3327.91 1359.09C3325.04 1358.95 3324.2 1360.45 3323.77 1361.45C3320.04 1370.11 3326.28 1381.69 3335.68 1382.36C3343.88 1382.95 3349.51 1380.57 3354.52 1382.15C3362.56 1384.68 3365.4 1397.36 3366.01 1401.43C3366.61 1405.49 3367.53 1408.87 3377.65 1405.24C3387.77 1401.61 3382.23 1419.57 3380.61 1423.01C3380.61 1423.01 3379.24 1432.16 3385.04 1435.88" id="path60" fill="#233862" fill-rule="evenodd" stroke="none" />
          <path d="M3439.97 2229.8L3471.44 2229.8C3478.04 2229.8 3485.37 2223.2 3487.21 2211.11C3489.05 2199 3502.61 2192.4 3505.55 2182.49C3508.49 2172.59 3493.44 2158.65 3493.44 2158.65L3490.93 2155.43L3488.32 2152.05L3463.37 2157.92C3463.37 2157.92 3462.76 2163.85 3462.37 2171.41C3462.11 2176.88 3461.96 2183.19 3462.28 2188.72C3463.01 2201.93 3458.57 2216.15 3446.85 2218.72C3435.11 2221.29 3439.97 2229.8 3439.97 2229.8" id="path62" fill="#202F54" fill-rule="evenodd" stroke="none" />
          <path d="M3301.6 2229.8L3383.29 2229.8C3384.08 2229.65 3384.67 2229.48 3385.03 2229.31C3390.48 2226.57 3388.77 2205.68 3388.12 2199.24C3388 2198.04 3387.91 2197.33 3387.91 2197.33C3387.91 2197.33 3359.17 2174.36 3355.23 2191.96C3355.09 2192.51 3354.96 2193.04 3354.8 2193.57L3354.8 2193.59C3349.81 2210.04 3327.52 2217.52 3314.64 2219.6C3304.8 2221.2 3302.25 2226.93 3301.6 2229.8" id="path64" fill="#202F54" fill-rule="evenodd" stroke="none" />
          <path d="M3318.07 1758.11C3318.07 1758.11 3322.43 1812.53 3327.56 1877.97C3334.52 1966.85 3342.91 2076.04 3343.73 2096.72C3345.17 2132.64 3350.92 2190.09 3350.92 2190.09C3350.92 2190.09 3364.56 2203.73 3391.85 2197.99C3391.85 2197.99 3416.19 2115.97 3423.13 2029.2C3423.24 2027.77 3423.35 2026.35 3423.45 2024.91C3429.92 1936.57 3439.97 1750.56 3439.97 1750.56L3318.07 1758.11" id="path66" fill="#2B478B" fill-rule="evenodd" stroke="none" />
          <path d="M3318.07 1758.11C3318.07 1758.11 3322.43 1812.53 3327.56 1877.97L3423.13 2029.2C3423.24 2027.77 3423.35 2026.35 3423.45 2024.91C3429.92 1936.57 3439.97 1750.56 3439.97 1750.56L3318.07 1758.11" id="path68" fill="#233862" fill-rule="evenodd" stroke="none" />
          <path d="M3345.25 1746.49C3345.25 1746.49 3389.41 1928.6 3423.13 2029.2C3456.85 2129.8 3458.27 2178.49 3458.27 2178.49C3458.27 2178.49 3496.48 2171.03 3500.63 2163.59C3500.63 2163.59 3513.72 1991.29 3487.73 1942.05C3473.05 1914.23 3475.52 1849.75 3475.52 1820.37C3475.52 1765.96 3458.55 1711.92 3458.55 1711.92L3345.25 1746.49" id="path70" fill="#2B478B" fill-rule="evenodd" stroke="none" />
          <path d="M3496.41 1831.73C3496.95 1835.07 3333.19 1866.08 3311.23 1842.51C3310.8 1842.05 3308.49 1774.07 3306.61 1721.09C3305.77 1696.45 3305 1675.07 3304.57 1665.24C3304.47 1662.77 3304.39 1661.04 3304.32 1660.16C3304.24 1659.01 3304.16 1657.88 3304.08 1656.73C3302.75 1637.49 3301.77 1618.55 3301.47 1601.68C3301.2 1587.07 3301.43 1574.01 3302.35 1563.72C3302.52 1561.6 3302.75 1559.61 3303 1557.75C3306.33 1532.44 3318.6 1514.65 3330.09 1501.28L3339.59 1490.77C3350.37 1491.71 3361.48 1489.84 3372.03 1483.08C3383.43 1475.76 3394.51 1477.91 3396.8 1479.2C3414.49 1489.55 3429.93 1505.92 3439.52 1540.45C3444.68 1559.04 3495.89 1828.05 3496.41 1831.73" id="path72" fill="#B0D0FF" fill-rule="evenodd" stroke="none" />
          <path d="M3355.45 1331.67C3355.45 1331.67 3350.19 1305.53 3368.59 1288.92C3387 1272.32 3411.83 1275.88 3425.72 1291.15C3430.01 1295.87 3454.48 1291.09 3468.39 1305.91C3482.31 1320.72 3479.88 1344.23 3475.09 1355C3470.72 1364.88 3485.39 1386.03 3465.56 1401.92C3442.32 1420.55 3406.85 1404.72 3406.85 1404.72C3406.85 1404.72 3382.51 1331.89 3355.45 1331.67" id="path74" fill="#739AF0" fill-rule="evenodd" stroke="none" />
          <path d="M3325.41 1359.52C3325.41 1359.52 3401.75 1366.25 3397.61 1425.43L3428.52 1381.49C3428.52 1381.49 3426.25 1325.03 3354.79 1324.25L3325.41 1359.52" id="path76" fill="#AFCDFB" fill-rule="evenodd" stroke="none" />
          <path d="M3405.35 1585.45C3405.35 1585.45 3380.85 1698.84 3306.61 1721.09C3305.77 1696.45 3305 1675.07 3304.57 1665.24L3405.35 1585.45" id="path78" fill="#98BAF4" fill-rule="evenodd" stroke="none" />
          <path d="M3176.16 1702.73C3170.99 1701.07 3159.35 1697.47 3159.31 1699.09C3159.28 1700.25 3160.35 1701.88 3162.08 1703.39C3155.6 1703.03 3149.25 1703.43 3136.15 1710.44C3133.52 1711.84 3131.48 1714.21 3130.69 1717.09C3129.96 1719.75 3130.28 1722.68 3134.52 1723.79C3143.01 1726 3140.13 1723.99 3152.01 1727.36C3163.91 1730.73 3176.52 1728.61 3182.36 1721.84L3191.56 1717.21L3187.8 1700.87C3187.8 1700.87 3182.07 1701.93 3176.16 1702.73" id="path80" fill="#ED975D" fill-rule="evenodd" stroke="none" />
          <path d="M3181.27 1711.07C3177.75 1702.01 3182.07 1698.97 3182.07 1698.97C3182.07 1698.97 3270.92 1652.67 3278.15 1647.67C3285.37 1642.67 3331.69 1550.21 3331.69 1550.21C3331.69 1550.21 3348.73 1512.48 3372.25 1512.33C3392.68 1512.21 3404.49 1524.51 3411.29 1537.61C3419.39 1553.23 3416.93 1572.23 3405.35 1585.44C3379.33 1615.13 3327.07 1673.95 3313.29 1683.09C3282.65 1703.45 3189.23 1722.49 3189.23 1722.49C3189.23 1722.49 3184.04 1718.19 3181.27 1711.07" id="path82" fill="#B0D0FF" fill-rule="evenodd" stroke="none" />
          <path d="M3388.88 1461.39C3388.88 1461.39 3400.29 1472.41 3396.8 1479.2C3396.8 1479.2 3370.25 1499.77 3333.15 1497.52C3333.15 1497.52 3336.84 1491.35 3342.88 1488.48C3348.92 1485.61 3382.05 1471.33 3388.88 1461.39" id="path84" fill="#98BAF4" fill-rule="evenodd" stroke="none" />
          <path d="M2256.01 1926.11L2243.33 1926.11L2243.33 1513.57L2256.01 1513.57L2256.01 1926.11" id="path86" fill="#AFCDFB" fill-rule="evenodd" stroke="none" />
          <path d="M2524.97 2043.91L2512.28 2043.91L2512.28 1513.57L2524.97 1513.57L2524.97 2043.91" id="path88" fill="#AFCDFB" fill-rule="evenodd" stroke="none" />
          <path d="M2075.69 882.547C2079.87 890.067 2097.29 879.44 2100.39 877.773C2104.57 876.147 2111.4 877.293 2111.4 877.293C2111.4 877.293 2114.77 859.507 2110.4 859.787C2104.67 860.147 2085.03 851.693 2080.28 853.96C2075.55 856.227 2071.05 874.48 2075.69 882.547" id="path90" fill="#ED985F" fill-rule="evenodd" stroke="none" />
          <path d="M2302.28 602.027C2302.89 599.893 2389.76 625.867 2390.52 629.4C2397.49 662 2390.65 669.28 2379.43 663.173C2372.23 659.253 2352 689.4 2352 689.4L2292.17 610.36L2302.28 602.027" id="path92" fill="#2C3A64" fill-rule="evenodd" stroke="none" />
          <path d="M2105.87 859.987L2102.97 874.867C2102.97 874.867 2103.91 875.187 2105.57 875.653C2110.85 877.12 2123.59 880.84 2138.25 884.32C2154.25 888.253 2172.68 892.08 2186.24 892.84C2191.32 893.147 2195.69 893.013 2199.01 892.293C2217.61 888.347 2252.83 868.614 2279.29 845.8C2280 845.267 2280.6 844.693 2281.21 844.107C2295.11 831.947 2306.39 818.987 2311.09 807.133C2314.04 799.907 2315.47 793.307 2315.89 787.293C2316.47 779.333 2315.21 772.467 2313.36 766.947C2313.15 766.08 2312.92 765.214 2312.43 764.387C2309.17 755.747 2304.68 751.014 2304.68 751.014C2302.29 748.84 2298.75 749.173 2294.41 751.44L2294.37 751.56C2290.85 753.347 2286.61 756.44 2282.11 760.627C2281.93 760.694 2281.77 760.774 2281.73 760.88C2280.79 761.734 2279.79 762.694 2278.64 763.734C2278.32 763.88 2278.08 764.187 2277.88 764.387C2275.65 766.614 2273.37 768.96 2271.05 771.427C2245.61 797.64 2213.56 839.627 2195.84 849.254C2192.57 851.027 2185.35 852.574 2176.36 853.947C2164.29 855.747 2149.03 857.187 2135.79 858.227C2119.2 859.454 2105.87 859.987 2105.87 859.987" id="path94" fill="#ED985F" fill-rule="evenodd" stroke="none" />
          <path d="M2176.36 853.947C2175.57 862.36 2175.95 878.187 2186.24 892.84C2191.32 893.147 2195.69 893.013 2199.01 892.293C2217.61 888.347 2252.83 868.613 2279.29 845.8C2280 845.267 2280.6 844.693 2281.21 844.107C2295.11 831.947 2306.39 818.987 2311.09 807.133C2314.04 799.907 2315.47 793.307 2315.89 787.293C2316.47 779.333 2315.21 772.467 2313.36 766.947C2313.15 766.08 2312.92 765.213 2312.43 764.387C2309.17 755.747 2322.23 742.573 2322.23 742.573C2319.84 740.4 2298.75 749.173 2294.41 751.44L2294.37 751.56C2290.85 753.347 2286.61 756.44 2282.11 760.627C2281.93 760.693 2281.77 760.773 2281.73 760.88C2280.79 761.734 2279.79 762.693 2278.64 763.734C2278.32 763.88 2278.08 764.187 2277.88 764.387C2275.65 766.614 2273.37 768.96 2271.05 771.427C2245.61 797.64 2213.56 839.627 2195.84 849.254C2192.57 851.027 2185.35 852.574 2176.36 853.947" id="path96" fill="#B0D0FF" fill-rule="evenodd" stroke="none" />
          <path d="M2306.83 1466.17L2323.2 1472.27C2323.2 1472.27 2394.28 1373.69 2403.03 1286.96C2404.59 1271.47 2404.07 1256.47 2400.69 1242.61C2400.69 1242.61 2401.39 1238.64 2402.6 1231.63C2403.16 1228.36 2403.85 1224.41 2404.64 1219.91C2406.95 1206.67 2410.13 1188.55 2413.77 1167.92C2422.13 1120.45 2432.96 1059.76 2441.39 1015.16L2436.97 1013.73L2389.27 998.346L2379.4 967.026L2343.88 957.68C2343.88 957.68 2335.95 973.2 2328.85 1046.53C2327.53 1056.16 2326.35 1066.76 2325.45 1078.27C2322.69 1113.37 2322.49 1156.93 2328.84 1206.73C2330.47 1219.48 2332.52 1232.63 2335.08 1246.15C2336.95 1256.07 2337.23 1269.57 2336.44 1285.08C2332.85 1355.99 2306.83 1466.17 2306.83 1466.17" id="path98" fill="#F99746" fill-rule="evenodd" stroke="none" />
          <path d="M2325.45 1078.27L2402.6 1231.63C2403.16 1228.36 2403.85 1224.41 2404.64 1219.91C2406.95 1206.67 2410.13 1188.55 2413.77 1167.92C2422.13 1120.45 2432.96 1059.76 2441.39 1015.16L2436.97 1013.73L2389.27 998.346L2379.4 967.026L2343.88 957.68C2343.88 957.68 2335.95 973.2 2328.85 1046.53C2327.53 1056.16 2326.35 1066.76 2325.45 1078.27" id="path100" fill="#ED7D2B" fill-rule="evenodd" stroke="none" />
          <path d="M2359.39 977.36L2361.17 962.04C2391.09 969.987 2471.04 939.84 2471.04 939.84C2471.04 939.84 2500.01 965.32 2496.21 1026.39C2494.36 1056.2 2490.96 1182.87 2487.43 1220.35C2486.13 1233.93 2485.01 1243.6 2484.56 1247.45L2484.55 1247.49C2484.41 1248.68 2484.83 1249.79 2485.41 1250.81C2490.64 1259.67 2494.96 1268.89 2498.49 1278.32C2533.28 1371 2493.15 1485.15 2493.15 1485.15L2482.72 1480.95C2482.72 1480.95 2459.88 1353.92 2441.33 1297.81C2438.17 1288.29 2435.16 1280.81 2432.39 1276.35C2424.32 1263.32 2416.83 1242.04 2410.04 1216.72C2397.19 1168.88 2386.84 1106.63 2379.96 1058.59C2379.01 1058.63 2359.39 977.36 2359.39 977.36" id="path102" fill="#F99746" fill-rule="evenodd" stroke="none" />
          <path d="M2302.24 791.613C2311.63 795.96 2322.97 798.933 2336.69 799.68C2388.13 802.493 2399.8 757.413 2401.93 727.48C2394.52 724.8 2388.03 725.053 2384.28 725.253C2380.63 725.453 2376.83 725.827 2373.68 726.213C2367.39 722.92 2356.09 706.96 2349.56 680.253L2347.33 681.28L2310.23 698.733C2310.23 698.733 2314.17 710.813 2317.08 722.36C2319.35 731.413 2320.99 740.147 2319.61 742.587C2316.69 743.787 2314.95 744.533 2314.95 744.533L2314.93 744.573C2314.56 745.52 2306.48 766.08 2302.24 791.613" id="path104" fill="#FFB27D" fill-rule="evenodd" stroke="none" />
          <path d="M2289.37 825.36C2289.76 826.387 2290.19 827.387 2290.65 828.413C2303.68 856.48 2310.23 1115.51 2310.23 1115.51C2306.79 1136.41 2474.71 1138.85 2512.68 1105.28C2512.68 1105.28 2497.23 901.28 2437.91 747.213L2420.87 761.733C2418.04 759.64 2414.44 758.76 2414.71 756.12C2414.83 754.88 2414.99 753.64 2415.17 752.4C2417.17 739.347 2422.63 727.507 2422.63 727.507C2408.83 721.92 2373.68 726.213 2373.68 726.213L2347.35 746.093L2319.61 742.587C2297.6 751.24 2285.44 762.173 2285.44 762.173C2298.71 770.773 2279.11 798.147 2289.37 825.36" id="path106" fill="#B0D0FF" fill-rule="evenodd" stroke="none" />
          <path d="M2310.23 698.733C2310.23 698.733 2314.17 710.8 2317.08 722.373C2338.77 716.32 2345.36 693.52 2347.35 681.293L2310.23 698.733" id="path108" fill="#ED985F" fill-rule="evenodd" stroke="none" />
          <path d="M2301.68 701.827C2301.68 701.827 2354.95 702.627 2354.93 669.44C2354.91 636.267 2361.77 614.013 2327.76 612.107C2293.76 610.2 2287.15 622.867 2284.47 633.933C2281.77 645.013 2287.81 700.76 2301.68 701.827" id="path110" fill="#FFB27D" fill-rule="evenodd" stroke="none" />
          <path d="M2286.01 615.48C2294.24 605.493 2300.47 607.68 2303.96 610.667C2333.04 594.613 2351.84 618.253 2351.84 618.253C2355.44 642.053 2372.63 655.667 2372.63 655.667C2372.63 655.667 2362.93 661.68 2340.55 655.96C2333.71 654.213 2327.59 649.36 2322.39 643.48C2331.48 658.64 2343.83 669.56 2343.83 669.56C2317.07 657.253 2306.27 620.08 2305.2 616.147C2301.95 619.08 2295.55 625.427 2293.6 631.653C2290.96 640.107 2289.8 657.493 2284.72 656.92C2284.72 656.92 2273.69 630.48 2286.01 615.48" id="path112" fill="#2C3A64" fill-rule="evenodd" stroke="none" />
          <path d="M2432.59 1493.65L2515.01 1493.65C2515.01 1493.65 2516.99 1481.09 2512.68 1471.56C2508.56 1462.41 2502.09 1458.27 2503.64 1447.2C2498.4 1452.59 2489.87 1458.63 2477.95 1457.03C2476.49 1459.39 2468.53 1472.05 2463.65 1475.56C2458.27 1479.43 2434.24 1478.05 2432.59 1493.65" id="path114" fill="#2B478B" fill-rule="evenodd" stroke="none" />
          <path d="M2255.61 1493.65L2338.04 1493.65C2338.04 1493.65 2341.12 1480.51 2335.71 1471.56C2330.92 1463.64 2332.76 1459.13 2336.31 1452.59C2332.57 1454.12 2327.73 1455.51 2322.43 1455.2C2318.32 1454.97 2313.97 1453.11 2310.16 1450.89C2306.61 1454.93 2291.43 1472.15 2286.68 1475.56C2281.29 1479.43 2257.28 1478.05 2255.61 1493.65" id="path116" fill="#2B478B" fill-rule="evenodd" stroke="none" />
          <path d="M2376 815.427C2375.47 812.747 2373.16 810.933 2370.85 811.387C2368.55 811.853 2367.11 814.413 2367.65 817.093C2368.19 819.787 2370.49 821.6 2372.8 821.147C2375.11 820.68 2376.55 818.12 2376 815.427" id="path118" fill="#233862" fill-rule="evenodd" stroke="none" />
          <path d="M2325.52 820.44C2324.99 817.747 2322.68 815.933 2320.37 816.4C2318.07 816.853 2316.63 819.413 2317.17 822.107C2317.71 824.8 2320.01 826.613 2322.32 826.147C2324.63 825.68 2326.05 823.133 2325.52 820.44" id="path120" fill="#233862" fill-rule="evenodd" stroke="none" />
          <path d="M2382.27 874.493C2381.72 871.8 2379.43 870 2377.12 870.453C2374.81 870.92 2373.37 873.467 2373.91 876.16C2374.45 878.853 2376.76 880.667 2379.07 880.2C2381.37 879.747 2382.8 877.187 2382.27 874.493" id="path122" fill="#233862" fill-rule="evenodd" stroke="none" />
          <path d="M2331.79 879.507C2331.24 876.813 2328.95 875 2326.63 875.453C2324.33 875.92 2322.89 878.48 2323.43 881.173C2323.97 883.867 2326.28 885.667 2328.57 885.213C2330.88 884.747 2332.32 882.2 2331.79 879.507" id="path124" fill="#233862" fill-rule="evenodd" stroke="none" />
          <path d="M2437.25 797.053C2437.25 797.053 2431.31 967.373 2305.16 979L2303.23 942.6L2371.83 888.027L2437.25 797.053" id="path126" fill="#98BAF4" fill-rule="evenodd" stroke="none" />
          <path d="M2251.44 950.813L2255.76 966.653C2255.76 966.653 2261.2 965.693 2269.84 964.093C2272.41 963.613 2273.85 963.293 2273.85 963.293C2280.89 961.853 2289.21 960.093 2298.17 958.013L2298.35 958.013C2310.83 954.973 2324.76 951.453 2337.24 947.613C2340.12 946.8 2343 945.84 2345.72 944.88C2347.64 944.24 2349.4 943.6 2351.16 942.96L2324.92 908.227C2322.99 909.667 2320.91 910.947 2318.83 912.227C2308.11 919.106 2295.93 926.16 2284.89 932.4C2278.01 936.4 2271.44 939.92 2266 942.96C2257.2 947.76 2251.44 950.813 2251.44 950.813" id="path128" fill="#FFB27D" fill-rule="evenodd" stroke="none" />
          <path d="M2318.85 912.173C2323.65 929.053 2330.49 940.24 2337.29 947.64C2340.17 946.76 2343.01 945.84 2345.73 944.92C2356 941.333 2364.93 937.493 2371 933.64C2371.61 933.28 2372.12 932.907 2372.73 932.413C2387.23 921.893 2404.44 890.92 2417.8 857.733C2419.67 853.16 2421.4 848.573 2423.13 844.107C2429.32 827.52 2434.28 811.16 2437.25 797.053C2439.12 788.626 2440.35 780.96 2440.6 774.64C2440.72 772.413 2440.85 770.293 2440.72 768.32C2440.48 732.413 2422.64 727.453 2422.64 727.453C2422.27 727.32 2421.89 727.2 2421.4 727.08C2418.31 726.587 2415.09 728.68 2411.75 732.786C2407.52 737.853 2403.08 746.147 2398.49 756.173C2391.43 772.147 2384 792.827 2377.07 813.387C2373.23 824.667 2369.51 835.947 2365.8 846.347C2363.69 852.653 2361.59 858.6 2359.61 864.053C2355.76 874.453 2352.29 882.88 2349.21 888.2C2347.21 891.667 2341.52 896.493 2333.97 901.946C2329.51 905.186 2324.36 908.64 2318.85 912.173" id="path130" fill="#B0D0FF" fill-rule="evenodd" stroke="none" />
          <path d="M2337.87 581.867C2337.87 581.867 2339.2 555.68 2361 544C2382.81 532.32 2406 541.72 2415.8 559.827C2418.83 565.427 2443.67 566.667 2453.6 584.347C2463.53 602.027 2455.55 624.213 2448.33 633.493C2441.73 642.013 2450.87 666.013 2427.87 676.653C2400.89 689.147 2370.33 665.32 2370.33 665.32C2370.33 665.32 2364.01 588.56 2337.87 581.867" id="path132" fill="#739AF0" fill-rule="evenodd" stroke="none" />
          <path d="M2302.28 602.027C2302.28 602.027 2374.6 626.827 2356.43 683.16L2396.88 648.013C2396.88 648.013 2408.2 592.773 2339.17 574.907L2302.28 602.027" id="path134" fill="#B0D0FF" fill-rule="evenodd" stroke="none" />
          <path d="M2378.45 725.72C2378.45 725.72 2370.43 718.28 2363.47 714.92C2363.47 714.92 2344.95 736.013 2344.95 740.027C2344.95 744.053 2349.2 751.307 2349.2 751.307C2349.2 751.307 2363.44 748.653 2378.45 725.72" id="path136" fill="#8CB8ED" fill-rule="evenodd" stroke="none" />
          <path d="M2318.67 729.213C2318.67 729.213 2310.49 736.907 2313.99 743.68C2313.99 743.68 2341.43 765.053 2378.45 762.813C2378.45 762.813 2374.76 756.653 2368.73 753.786C2362.71 750.933 2325.48 739.133 2318.67 729.213" id="path138" fill="#739AF0" fill-rule="evenodd" stroke="none" />
          <path d="M2226.53 361.453L2029.72 753.853L2027.96 757.347L2025.09 763.08L2013.92 785.373L1988.67 835.707L1940.6 931.534L1930.41 951.854L1920.09 972.454L1886.95 1038.53L1856.87 1098.49L1828.92 1154.23L1817.45 1177.08C1812.57 1177.49 1807.65 1177.89 1802.73 1178.28L1814.16 1155.51L1875.45 1033.29L1906.81 970.774L1917.15 950.134L1936.67 911.227L1977.13 830.547L2005.88 773.227L2019.01 747.027L2024.84 735.44L2215.25 355.787L2226.53 361.454" id="path140" fill="#FFD6A1" fill-rule="evenodd" stroke="none" />
          <path d="M2242.93 379.32C2237.57 387.28 2148.71 561.533 2047.48 760.92C2040.67 774.387 2033.76 787.947 2026.84 801.6C2001.11 852.307 1974.89 904.013 1949.35 954.467C1945.87 961.333 1942.4 968.16 1938.95 974.973C1938.17 976.52 1937.37 978.08 1936.6 979.627C1920.36 1011.68 1904.47 1043.07 1889.24 1073.2C1875.27 1100.77 1861.85 1127.31 1849.21 1152.32C1845.24 1160.12 1841.37 1167.77 1837.59 1175.28C1832.68 1175.72 1827.75 1176.17 1822.77 1176.61C1825.64 1170.95 1829.53 1163.24 1834.33 1153.72C1841.49 1139.59 1850.65 1121.48 1861.39 1100.27C1863.43 1096.27 1865.51 1092.16 1867.64 1087.92C1884.04 1055.52 1903.6 1016.89 1924.97 974.68C1925.23 974.173 1925.48 973.693 1925.73 973.187C1929.16 966.413 1932.64 959.56 1936.13 952.627L1936.15 952.627C1947.68 929.827 1959.68 906.16 1971.95 882.013C1987.07 852.16 2002.56 821.56 2018.09 790.947C2019.57 788.04 2021.04 785.16 2022.51 782.253C2027 773.387 2031.41 764.747 2035.71 756.253C2229.23 375.053 2231.93 372.48 2233.57 370.947L2242.23 380.12C2242.65 379.707 2242.89 379.36 2242.93 379.32" id="path142" fill="#FFD6A1" fill-rule="evenodd" stroke="none" />
          <path d="M2050.72 592.28L2044.73 599.947L1781.16 936.813L1764.99 957.48L1601.45 1166.49L1584.15 1188.6C1578.76 1188.68 1573.37 1188.77 1567.96 1188.85L1585.17 1166.83L1749.77 956.466L1765.97 935.733L2040.79 584.507L2048.43 590.48L2050.72 592.28" id="path144" fill="#FFD6A1" fill-rule="evenodd" stroke="none" />
          <path d="M1987.57 629.027L1692.67 931.573L1672.29 952.467L1463.13 1167.05L1442.24 1188.48C1436.47 1188.37 1430.72 1188.25 1424.99 1188.12L1445.77 1166.79L1655.33 951.8L1675.77 930.813L1978.53 620.213L1987.57 629.027" id="path146" fill="#FFD6A1" fill-rule="evenodd" stroke="none" />
          <path d="M2323.61 848.413L2317.64 856.08L2054.05 1192.95L2037.89 1213.6L1874.35 1422.63L1857.05 1444.73C1851.67 1444.81 1846.27 1444.91 1840.87 1444.97L1858.08 1422.96L2022.68 1212.6L2038.88 1191.87L2313.69 840.64L2321.33 846.613L2323.61 848.413" id="path148" fill="#FFD6A1" fill-rule="evenodd" stroke="none" />
          <path d="M2234.17 937.613L1945.12 1245.75L1925.16 1267.03L1720.13 1485.6L1699.67 1507.41C1693.89 1507.43 1688.15 1507.4 1682.41 1507.39L1702.79 1485.65L1908.19 1266.68L1928.23 1245.32L2224.97 928.973L2234.17 937.613" id="path150" fill="#FFD6A1" fill-rule="evenodd" stroke="none" />
          <path d="M1862.63 1100.76L1850.88 1096.17L2105.4 444.613L2117.15 449.2L1862.63 1100.76" id="path152" fill="#FFD6A1" fill-rule="evenodd" stroke="none" />
          <path d="M1905.6 1178.28L1882.52 1197.57C2007.03 936.32 2267.45 388.08 2272.6 372.12L2284.76 375.48C2280.64 390.92 1942.75 1100.32 1905.6 1178.28" id="path154" fill="#FFD6A1" fill-rule="evenodd" stroke="none" />
          <path d="M1939.8 1220.29L1908.83 1258.63L2297.21 390.573L2308.73 395.72L1939.8 1220.29" id="path156" fill="#FFD6A1" fill-rule="evenodd" stroke="none" />
          <path d="M1870.71 1161.13L1858.85 1156.83C1949.36 908 2121.36 432.8 2124.6 415.267L2137.01 417.547C2132.84 440.267 1881.41 1131.71 1870.71 1161.13" id="path158" fill="#FFD6A1" fill-rule="evenodd" stroke="none" />
          <path d="M1871.09 1204.11L1853.19 1212.49L2217.85 439.72L2229.25 445.094L1871.09 1204.11" id="path160" fill="#FFD6A1" fill-rule="evenodd" stroke="none" />
          <path d="M2249.49 948.68C2249.49 948.68 2241.85 945.147 2231.07 943.213C2224.33 942.013 2215.59 940.907 2216.19 943.213C2216.79 945.507 2230.97 949.8 2231.39 950.813C2231.8 951.813 2249.49 948.68 2249.49 948.68" id="path162" fill="#FFB27D" fill-rule="evenodd" stroke="none" />
          <path d="M2201.39 964.6C2204.15 966.707 2226.11 975.293 2234.47 972.667C2239.13 971.2 2255.39 967.173 2261.95 965.573C2264.55 965.067 2273.91 963.24 2273.91 963.24L2266.84 942.693C2266.84 942.693 2266.57 942.733 2265.99 942.933C2263.29 943.867 2258.12 946.413 2251.36 947.427C2243.03 948.68 2232.63 943.44 2227.21 946.4C2215.76 952.68 2199.95 946.32 2196.31 949.667C2193.56 952.187 2194.56 959.36 2201.39 964.6" id="path164" fill="#FFB27D" fill-rule="evenodd" stroke="none" />
          <path d="M2073.39 862.253C2075.11 858.2 2078.69 851.48 2087.55 852.427C2098.09 853.573 2117.15 864.507 2080.05 884.573C2069.03 890.547 2069.85 870.587 2073.39 862.253" id="path166" fill="#FFB27D" fill-rule="evenodd" stroke="none" />
          <path d="M930.108 1468.47L744.427 1468.47C724.323 1468.47 707.875 1452.01 707.875 1431.91C707.875 1411.8 724.323 1395.36 744.427 1395.36L930.108 1395.36C950.211 1395.36 966.66 1411.8 966.66 1431.91C966.66 1452.01 950.211 1468.47 930.108 1468.47" id="path168" fill="#6385DB" fill-rule="evenodd" stroke="none" />
          <path d="M2228.21 1468.47L2042.53 1468.47C2022.43 1468.47 2005.97 1452.01 2005.97 1431.91C2005.97 1411.8 2022.43 1395.36 2042.53 1395.36L2228.21 1395.36C2248.31 1395.36 2264.76 1411.8 2264.76 1431.91C2264.76 1452.01 2248.31 1468.47 2228.21 1468.47" id="path170" fill="#739AF0" fill-rule="evenodd" stroke="none" />
          <path d="M2105.64 1162.65L2105.64 2072.39C2105.64 2157.2 2036.88 2225.96 1952.05 2225.96L1044.67 2225.96C959.847 2225.96 891.087 2157.2 891.087 2072.39L891.087 1162.65L2105.64 1162.65" id="path172" fill="#6385DB" fill-rule="evenodd" stroke="none" />
          <path d="M2105.64 1163.33L2105.64 2073.07C2105.64 2157.88 2037.16 2226.64 1952.68 2226.64L1256.32 2226.64C1171.84 2226.64 1103.35 2157.88 1103.35 2073.07L1103.35 1163.33L2105.64 1163.33" id="path174" fill="#739AF0" fill-rule="evenodd" stroke="none" />
          <path d="M2110.55 1201.41L886.181 1201.41C873.937 1201.41 863.92 1191.4 863.92 1179.16C863.92 1166.92 873.937 1156.89 886.181 1156.89L2110.55 1156.89C2122.79 1156.89 2132.8 1166.92 2132.8 1179.16C2132.8 1191.4 2122.79 1201.41 2110.55 1201.41" id="path176" fill="#4C79C9" fill-rule="evenodd" stroke="none" />
          <path d="M2042.4 1573.13L2042.4 1333.28C2042.4 1333.28 2049.77 1253.39 1991.88 1247.08C1934 1240.77 1912.97 1274.41 1923.48 1333.28C1934 1392.16 1915.08 1718.08 1942.41 1743.31C1969.75 1768.53 2024.41 1768.53 2034.93 1743.31C2045.44 1718.08 2042.4 1573.13 2042.4 1573.13" id="path178" fill="#88B3FF" fill-rule="evenodd" stroke="none" />
          <path d="M1811.49 1622.25C1811.47 1620.6 1808.43 1456.13 1803.95 1333.35C1799.08 1199.72 1769.67 1118.88 1723.25 1111.55C1703.25 1108.39 1685.6 1115.47 1670.79 1132.61C1659.03 1146.21 1655.91 1156.75 1655.85 1156.89L1635.12 1156.89C1643.99 1132.08 1675.43 1085.67 1726.08 1093.65C1802.45 1105.72 1818.99 1248.6 1822.05 1332.68C1826.53 1455.64 1829.57 1620.27 1829.6 1621.92L1811.49 1622.25" id="path180" fill="#FFD6A1" fill-rule="evenodd" stroke="none" />
          <path d="M1582.77 2212.71C1582.92 2219.44 1583.76 2225.81 1586.2 2228.32L1684.04 2228.32C1682.79 2224.79 1679.27 2219.45 1669.23 2217.83C1657.81 2215.99 1641.88 2203.08 1631.49 2192.11C1627.8 2188.2 1623.17 2191 1621.97 2185.63C1617.37 2165.13 1583.92 2191.91 1583.92 2191.91C1583.92 2191.91 1582.56 2202.69 1582.77 2212.71" id="path182" fill="#182D4F" fill-rule="evenodd" stroke="none" />
          <path d="M1433.4 2212.71C1433.53 2219.44 1434.39 2225.81 1436.83 2228.32L1534.65 2228.32C1533.41 2224.79 1529.89 2219.45 1519.85 2217.83C1508.44 2215.99 1490.65 2210.49 1480.27 2199.51C1476.56 2195.61 1473.8 2191 1472.6 2185.63C1468 2165.13 1434.53 2191.91 1434.53 2191.91C1434.53 2191.91 1433.19 2202.69 1433.4 2212.71" id="path184" fill="#1A2F51" fill-rule="evenodd" stroke="none" />
          <path d="M1621.92 2200.61C1610.99 2204.11 1596.53 2203.72 1583.25 2198.71C1574.68 2195.47 1523.28 2069.93 1520.17 2009.27C1519.93 2004.85 1519.07 1998.69 1517.71 1991.19C1514.87 1975.53 1509.91 1954.01 1504.19 1930.28C1488.84 1866.65 1468.08 1787.07 1468.53 1761.64C1469.23 1722.16 1586.19 1753.36 1586.19 1753.36C1586.19 1753.36 1594.24 1785.75 1595.84 1832.64C1599.01 1925.71 1607.75 2082.92 1631.49 2192.11C1632.51 2196.73 1626.45 2199.17 1621.92 2200.61" id="path186" fill="#233862" fill-rule="evenodd" stroke="none" />
          <path d="M1565 1778.95L1486.43 2203.11C1486.43 2203.11 1452.65 2213.08 1429.19 2203.11C1429.19 2203.11 1415.52 1972.88 1417.04 1915.25C1418.55 1857.64 1404.04 1761.08 1420.35 1750.43C1436.64 1739.77 1565 1778.95 1565 1778.95" id="path188" fill="#2B478B" fill-rule="evenodd" stroke="none" />
          <path d="M1522.21 1477.31C1522.21 1477.31 1575.97 1486.48 1588.24 1505.4C1605.79 1532.45 1648.39 1622.6 1649.11 1667.87C1650.09 1728.83 1583.72 1749.33 1575.6 1725.27C1568.87 1705.29 1552.36 1580.19 1540.37 1541.37L1522.21 1477.31" id="path190" fill="#CFE5FF" fill-rule="evenodd" stroke="none" />
          <path d="M1611.95 1904.93C1611.95 1904.93 1587.07 1925.11 1536.89 1929.65C1531.24 1931.11 1434.91 1931.11 1394.12 1917.09C1393.28 1916.8 1396.25 1830.48 1399.71 1741.43C1399.71 1741.28 1399.72 1741.15 1399.72 1741C1400.08 1731.96 1400.43 1722.85 1400.77 1713.84C1400.93 1709.96 1401.08 1706.09 1401.24 1702.24C1402.29 1675.67 1403.35 1649.97 1404.29 1627.41C1406.17 1583.15 1407.68 1551.07 1408.11 1548.52C1409.61 1539.85 1411 1532.47 1412.53 1526.08C1416.97 1507.4 1422.49 1497.17 1434.55 1488.39C1435.72 1487.49 1445.35 1482.63 1453.84 1478.4C1460.88 1474.92 1467.13 1471.85 1467.13 1471.85L1467.15 1471.85C1467.15 1471.85 1559.87 1474.49 1568.76 1497.75C1577.67 1521.01 1611.95 1904.93 1611.95 1904.93" id="path192" fill="#CFE5FF" fill-rule="evenodd" stroke="none" />
          <path d="M1514.15 1483.37C1509.29 1484.33 1503.04 1488.81 1497.13 1488.39C1485.55 1487.55 1473.48 1479.75 1463.25 1473.01C1470.23 1456.36 1473.08 1443.21 1474.09 1434.69C1474.16 1434.24 1474.2 1433.81 1474.24 1433.39C1474.71 1428.97 1474.64 1425.99 1474.43 1424.61L1511.55 1424.61C1511.55 1424.61 1521.71 1429.25 1521.71 1432.45C1521.71 1434.17 1521.72 1435.81 1521.75 1437.37C1521.81 1441.65 1521.99 1445.37 1522.21 1448.57C1522.92 1459 1524.12 1463.91 1524.12 1463.91C1524.12 1463.91 1528.65 1480.53 1514.15 1483.37" id="path194" fill="#FFB27D" fill-rule="evenodd" stroke="none" />
          <path d="M1522.21 1448.57C1494.08 1454.01 1477.76 1438.64 1474.09 1434.69C1473.57 1434.13 1473.31 1433.8 1473.31 1433.8C1473.61 1433.65 1473.92 1433.52 1474.24 1433.39C1484.72 1429.15 1508.48 1432.52 1521.75 1437.37C1521.81 1441.65 1521.99 1445.37 1522.21 1448.57" id="path196" fill="#E2915A" fill-rule="evenodd" stroke="none" />
          <path d="M1464.91 1418.51C1469.93 1445.56 1504.84 1444.67 1519.92 1442.97C1524.17 1442.49 1526.84 1441.95 1526.84 1441.95C1531.63 1440.68 1534.29 1433.13 1535.53 1423.27C1538 1403.72 1534.89 1375.03 1531.59 1367.69C1526.63 1356.65 1517.27 1344.71 1482.11 1353.32C1446.96 1361.95 1458.47 1383.84 1464.91 1418.51" id="path198" fill="#FFB27D" fill-rule="evenodd" stroke="none" />
          <path d="M1532.89 1352.6C1528.09 1345.95 1517.91 1337.83 1508.65 1332.81C1488.77 1322.07 1463.35 1333.16 1463.24 1333.2C1434.52 1345.83 1451.99 1408.73 1460.76 1405.81C1467.6 1403.53 1463.08 1400.2 1466.07 1397.52C1469.68 1394.29 1474.73 1398.21 1476.36 1401.24C1477.76 1403.37 1480.29 1404.12 1482.65 1402.63C1491.59 1396.97 1485.79 1385.68 1494.32 1378.77C1502.87 1371.85 1520.19 1377.67 1533 1372.15C1549.77 1365.91 1536.52 1357.61 1532.89 1352.6" id="path200" fill="#233862" fill-rule="evenodd" stroke="none" />
          <path d="M1511.55 1424.61C1511.55 1424.61 1516.15 1428.8 1523.57 1427.51C1527.99 1426.73 1530.44 1421 1530.44 1421C1530.44 1421 1521.99 1419.48 1511.55 1424.61" id="path202" fill="#CFE5FF" fill-rule="evenodd" stroke="none" />
          <path d="M1473.31 1545.92C1473.31 1543.25 1475.47 1541.11 1478.13 1541.11C1480.79 1541.11 1482.95 1543.25 1482.95 1545.92C1482.95 1548.59 1480.79 1550.73 1478.13 1550.73C1475.47 1550.73 1473.31 1548.59 1473.31 1545.92" id="path204" fill="#233862" fill-rule="evenodd" stroke="none" />
          <path d="M1530.44 1541.11C1530.44 1538.44 1532.6 1536.28 1535.27 1536.28C1537.93 1536.28 1540.08 1538.44 1540.08 1541.11C1540.08 1543.76 1537.93 1545.92 1535.27 1545.92C1532.6 1545.92 1530.44 1543.76 1530.44 1541.11" id="path206" fill="#233862" fill-rule="evenodd" stroke="none" />
          <path d="M1479.44 1603.27C1479.44 1600.6 1481.6 1598.44 1484.27 1598.44C1486.92 1598.44 1489.08 1600.6 1489.08 1603.27C1489.08 1605.92 1486.92 1608.08 1484.27 1608.08C1481.6 1608.08 1479.44 1605.92 1479.44 1603.27" id="path208" fill="#233862" fill-rule="evenodd" stroke="none" />
          <path d="M1536.59 1598.44C1536.59 1595.79 1538.73 1593.63 1541.4 1593.63C1544.07 1593.63 1546.23 1595.79 1546.23 1598.44C1546.23 1601.11 1544.07 1603.27 1541.4 1603.27C1538.73 1603.27 1536.59 1601.11 1536.59 1598.44" id="path210" fill="#233862" fill-rule="evenodd" stroke="none" />
          <path d="M1482.95 1659.28C1482.95 1656.63 1485.11 1654.47 1487.77 1654.47C1490.43 1654.47 1492.59 1656.63 1492.59 1659.28C1492.59 1661.95 1490.43 1664.11 1487.77 1664.11C1485.11 1664.11 1482.95 1661.95 1482.95 1659.28" id="path212" fill="#233862" fill-rule="evenodd" stroke="none" />
          <path d="M1540.08 1654.47C1540.08 1651.8 1542.24 1649.64 1544.91 1649.64C1547.57 1649.64 1549.72 1651.8 1549.72 1654.47C1549.72 1657.12 1547.57 1659.28 1544.91 1659.28C1542.24 1659.28 1540.08 1657.12 1540.08 1654.47" id="path214" fill="#233862" fill-rule="evenodd" stroke="none" />
          <path d="M1497.57 1737.57C1497.57 1737.57 1475.73 1753.36 1399.72 1741C1400.08 1731.96 1400.43 1722.85 1400.77 1713.84C1400.93 1709.96 1401.08 1706.09 1401.24 1702.24C1402.29 1675.67 1403.35 1649.97 1404.29 1627.41C1416.37 1607.83 1426.47 1593.63 1426.47 1593.63C1426.47 1593.63 1425.51 1647.41 1448.15 1664.11C1508.08 1708.25 1497.57 1737.57 1497.57 1737.57" id="path216" fill="#AFD1F2" fill-rule="evenodd" stroke="none" />
          <path d="M1505.91 1328.12C1505.91 1328.12 1510.79 1302.53 1492.99 1286.47C1475.17 1270.4 1451.16 1273.84 1437.73 1288.61C1433.57 1293.17 1409.91 1288.56 1396.44 1302.89C1382.99 1317.23 1385.35 1339.96 1389.96 1350.37C1394.2 1359.93 1380.01 1380.39 1399.19 1395.76C1421.67 1413.79 1455.97 1398.48 1455.97 1398.48C1455.97 1398.48 1479.75 1328.35 1505.91 1328.12" id="path218" fill="#AFD1F2" fill-rule="evenodd" stroke="none" />
          <path d="M1534.75 1354.75C1534.75 1354.75 1460.92 1361.25 1464.91 1418.51L1435.01 1376C1435.01 1376 1437.21 1321.39 1506.35 1320.64L1534.75 1354.75" id="path220" fill="#CFE5FF" fill-rule="evenodd" stroke="none" />
          <path d="M1582.75 1747.52C1582.75 1747.52 1584.11 1585.15 1588.35 1585.15C1592.59 1585.15 1604.49 1622.25 1604.49 1651.44C1604.49 1688.17 1590.13 1748.92 1582.75 1747.52" id="path222" fill="#AFD1F2" fill-rule="evenodd" stroke="none" />
          <path d="M2794.23 2227.24L1699.04 2227.24C1665.75 2227.24 1635.31 2208.49 1620.32 2178.76L1555.89 2050.95L2925.84 2050.95L2867.24 2180.17C2854.24 2208.83 2825.69 2227.24 2794.23 2227.24" id="path224" fill="#E86234" fill-rule="evenodd" stroke="none" />
          <path d="M3231.55 2036.68C3231.55 2079.57 2788.01 2114.36 2240.87 2114.36C1693.73 2114.36 1250.19 2079.57 1250.19 2036.68C1250.19 1993.77 1693.73 1959 2240.87 1959C2788.01 1959 3231.55 1993.77 3231.55 2036.68" id="path226" fill="#F77D48" fill-rule="evenodd" stroke="none" />
          <path d="M2928.07 2033.68C2927.79 2033.79 2927.52 2033.85 2927.23 2033.93C2904.8 2040.29 2877.92 2046.27 2847.19 2051.8C2840.41 2053.03 2833.44 2054.23 2826.28 2055.39C2801.73 2059.44 2775.04 2063.2 2746.47 2066.67C2739.43 2067.53 2732.27 2068.37 2725 2069.19C2699.12 2072.09 2671.84 2074.76 2643.29 2077.17L2643.28 2077.17C2632.71 2078.07 2621.96 2078.93 2611.05 2079.75L2610.99 2079.76C2570.71 2082.77 2528.21 2085.29 2483.95 2087.25C2479.19 2087.45 2474.4 2087.67 2469.6 2087.85C2458.05 2088.33 2446.36 2088.76 2434.59 2089.16C2433.48 2089.2 2432.39 2089.23 2431.28 2089.27C2408.71 2090.01 2385.73 2090.6 2362.43 2091.05C2347.88 2091.32 2333.2 2091.55 2318.4 2091.71C2315.51 2091.73 2312.6 2091.76 2309.69 2091.79C2294.07 2091.92 2278.32 2091.99 2262.44 2091.99C2257.31 2091.99 2252.2 2091.97 2247.09 2091.96C2244.77 2091.96 2242.44 2091.95 2240.12 2091.93C2101 2091.36 1971.48 2085.37 1861.72 2075.44C1860.15 2075.29 1858.59 2075.15 1857.01 2075L1857 2075C1840.19 2073.45 1823.84 2071.81 1808 2070.08L1807.28 2070L1807.27 2070L1803.19 2069.56C1790.49 2068.15 1778.13 2066.67 1766.13 2065.15C1764.11 2064.91 1762.09 2064.64 1760.09 2064.37C1612.44 2045.23 1519.92 2017.75 1519.92 1987.23C1519.92 1987.23 1518 1974.76 1529.88 1961.19C1566.47 1919.24 1673.61 1835.89 1878.71 1826.91C2033.89 1820.11 2147.39 1853.17 2216.12 1882.71C2267.57 1904.85 2293.96 1925.03 2293.96 1925.03L2293.97 1925.01C2294.13 1924.91 2295 1924.25 2296.59 1923.15C2304.61 1917.56 2330.87 1900.4 2372.73 1883.65C2443.09 1855.53 2557.6 1828.57 2704.11 1859.61C2791.72 1878.17 2848.72 1903.99 2884.61 1930.07C2951.17 1978.41 2945.32 2027.73 2928.07 2033.68" id="path228" fill="#FFE6C2" fill-rule="evenodd" stroke="none" />
          <path d="M2577.48 1876.93C2577.48 1876.93 2694.29 1864.28 2780.88 1905.32C2867.48 1946.36 2891.76 1981.57 2887.25 2007.09C2882.76 2032.61 2756.44 2025.15 2756.44 2025.15C2756.44 2025.15 2676.21 2009.4 2670.48 2007.09C2664.75 2004.79 2577.48 1876.93 2577.48 1876.93" id="path230" fill="#FFE6C2" fill-rule="evenodd" stroke="none" />
          <path d="M2507.6 2062.47C2505.25 2075.11 2493.08 2083.01 2483.95 2087.25C2479.19 2087.45 2474.4 2087.67 2469.6 2087.85C2477.19 2085.71 2500.63 2073.69 2503.04 2060.63C2504 2055.49 2501.97 2049.63 2497 2043.17C2473.01 2012.03 2400.48 2043.59 2399.75 2043.91L2398.39 2037.25C2398.57 2037.17 2417.39 2028.93 2439.05 2024.84C2468.59 2019.27 2489.12 2023.69 2500.13 2037.97C2506.57 2046.32 2509.07 2054.56 2507.6 2062.47" id="path232" fill="#EA9678" fill-rule="evenodd" stroke="none" />
          <path d="M2792.84 2020.31C2791.29 2033.95 2780.95 2046.76 2762.08 2058.33C2756.49 2061.76 2751.01 2064.55 2746.47 2066.67C2739.43 2067.53 2732.27 2068.37 2725 2069.19C2744.13 2061.15 2785.89 2039.35 2788.17 2019.16C2789.21 2009.96 2784.25 2000.21 2773.45 1990.19C2747.03 1965.67 2681.91 1948.88 2607.51 1947.4C2519.87 1945.65 2433.81 1964.39 2365.07 2000.15L2363.48 1993.6C2432.75 1957.57 2519.44 1938.68 2607.57 1940.45C2682.77 1941.96 2748.88 1959.16 2775.97 1984.32C2788.55 1995.99 2794.21 2008.09 2792.84 2020.31" id="path234" fill="#EA9678" fill-rule="evenodd" stroke="none" />
          <path d="M1648.83 1662.33C1648.83 1662.33 1657.36 1732.75 1599.77 1766.13L1582.75 1747.52L1610.19 1677.68L1648.83 1662.33" id="path236" fill="#CFE5FF" fill-rule="evenodd" stroke="none" />
          <path d="M1275.32 1616.36L1287.03 1601.76C1291.51 1596.17 1300.78 1594.79 1307.57 1598.67L1738.31 1845.52C1740.6 1846.84 1743.72 1846.4 1745.2 1844.56L1747.84 1841.27C1756.04 1831.05 1769.39 1824.19 1784.41 1822.45C1799.45 1820.72 1815.07 1824.24 1827.25 1832.12L1989.93 1937.24C1991.97 1938.56 1992.49 1940.91 1991.11 1942.61L1988.25 1946.19C1986.75 1948.07 1983.56 1948.48 1981.27 1947.11L1813.33 1846.61C1806.17 1841.97 1797.35 1839.99 1788.49 1841.01C1785.13 1841.4 1781.95 1842.2 1779.04 1843.37C1775.73 1844.71 1775.51 1848.48 1778.64 1850.25L1971.6 1959.6C1973.85 1960.87 1974.49 1963.33 1973.05 1965.13L1969.91 1969.05C1968.45 1970.87 1965.44 1971.33 1963.15 1970.11L1763.71 1863.75C1761.41 1862.52 1758.4 1862.99 1756.96 1864.79L1753.6 1868.97C1752.15 1870.79 1752.8 1873.25 1755.08 1874.53L1951.6 1984.48C1953.87 1985.75 1954.53 1988.23 1953.08 1990.03L1950.12 1993.72C1948.68 1995.52 1945.68 1995.99 1943.39 1994.79L1745.8 1891.07C1742.61 1889.4 1738.52 1891.04 1738.31 1894.07C1738.11 1896.8 1738.47 1899.59 1739.39 1902.37C1741.73 1909.53 1747.45 1915.47 1755.49 1919.08L1932.56 2007.83C1934.99 2009.05 1935.76 2011.63 1934.25 2013.51L1932.45 2015.73C1931.08 2017.44 1928.29 2017.97 1926.03 2016.95L1744.93 1935.39C1731.28 1929.23 1721.15 1918.73 1717.15 1906.56C1713.12 1894.39 1715.55 1881.52 1723.8 1871.24C1725.28 1869.39 1724.56 1866.85 1722.2 1865.61L1279.85 1633.16C1272.89 1629.51 1270.85 1621.93 1275.32 1616.36" id="path238" fill="#2B478B" fill-rule="evenodd" stroke="none" />
          <path d="M1456.43 1719.11C1456.43 1719.11 1467.55 1717.25 1472.8 1720.24C1478.07 1723.23 1491.21 1725.04 1490.63 1728.08C1490.05 1731.11 1473.63 1732.41 1469.28 1730.92C1464.95 1729.43 1456.43 1719.11 1456.43 1719.11" id="path240" fill="#FFB27D" fill-rule="evenodd" stroke="none" />
          <path d="M1454.11 1720.61C1448.99 1723.92 1448.4 1731.17 1452.92 1735.27C1460.13 1741.81 1469.47 1750.19 1471.76 1751.84C1475.63 1754.64 1496.23 1756.95 1501.59 1749.69C1501.59 1749.69 1484.29 1742.24 1481.84 1730.68C1479.21 1718.37 1456.43 1719.11 1456.43 1719.11L1454.11 1720.61" id="path242" fill="#FFB27D" fill-rule="evenodd" stroke="none" />
          <path d="M1453.32 1742.73C1453.32 1742.73 1352.64 1719.09 1342.95 1654.47C1334.4 1597.48 1384.33 1511.91 1397.45 1497.55C1412.77 1480.79 1440.72 1474.91 1456.16 1472.88C1456.81 1472.8 1457.43 1472.72 1458.03 1472.64C1463.45 1472 1466.93 1471.87 1467.13 1471.85L1467.13 1471.85C1467.13 1471.85 1465.93 1475.75 1463.91 1482.35C1463.11 1484.91 1462.2 1487.87 1461.2 1491.17C1451.72 1522.23 1422.08 1597.73 1412.53 1639.29C1406.45 1665.75 1463.92 1718.47 1465.39 1718.57L1453.32 1742.73" id="path244" fill="#CFE5FF" fill-rule="evenodd" stroke="none" />
          <path d="M1456.63 1472.91C1456.63 1472.91 1462.89 1462.73 1469.25 1457.17C1469.25 1457.17 1494.88 1473.95 1496.05 1478.17C1497.23 1482.4 1494.88 1491.27 1494.88 1491.27C1494.88 1491.27 1479.12 1492.64 1456.63 1472.91" id="path246" fill="#AFD1F2" fill-rule="evenodd" stroke="none" />
          <path d="M1574.76 1749.71C1574.76 1749.71 1576.93 1775.85 1583.04 1778.47C1589.15 1781.09 1600.63 1772.33 1601.85 1766.91C1603.09 1761.47 1587.84 1745.32 1581.73 1744.89C1575.63 1744.47 1574.76 1749.71 1574.76 1749.71" id="path248" fill="#FFB27D" fill-rule="evenodd" stroke="none" />
          <path d="M1523.87 1463.15C1523.87 1463.15 1533.44 1470.72 1531.17 1478.72C1531.17 1478.72 1507.28 1506.43 1467.19 1512.04C1467.19 1512.04 1469.8 1504.65 1475.63 1500.29C1481.45 1495.92 1518.73 1475.24 1523.87 1463.15" id="path250" fill="#BDD8F4" fill-rule="evenodd" stroke="none" />
          <path d="M2362.43 2091.05C2347.88 2091.32 2333.2 2091.55 2318.4 2091.71C2315.51 2091.73 2312.6 2091.76 2309.69 2091.79C2294.07 2091.92 2278.32 2091.99 2262.44 2091.99C2257.31 2091.99 2252.2 2091.97 2247.09 2091.96C2244.77 2091.96 2242.44 2091.95 2240.12 2091.93C2101 2091.36 1971.48 2085.37 1861.72 2075.44C1860.15 2075.29 1858.59 2075.15 1857.01 2075L1857 2075C1840.19 2073.45 1823.84 2071.81 1808 2070.08L1807.96 2070.2C1807.73 2070.15 1807.49 2070.07 1807.28 2070L1807.27 2070C1805.95 2069.64 1804.65 2069.27 1803.39 2068.91C1789.09 2064.73 1777.87 2060.35 1770.07 2055.77C1768.16 2054.67 1766.48 2053.55 1765 2052.41C1759.95 2048.57 1757.32 2044.63 1757.32 2040.59C1757.32 2040.59 1756 2032.44 1764.25 2023.59C1777.35 2009.45 1803.45 1988.13 1845.21 1970C1884.41 1952.96 1937.43 1938.72 2006.39 1935.88C2021.84 1935.24 2036.71 1935.13 2050.97 1935.48L2051.07 1935.49C2136.13 1937.6 2199.76 1955.79 2240.61 1972.32C2276.33 1986.79 2294.64 1999.96 2294.64 1999.96C2294.64 1999.96 2393.99 2060.08 2362.43 2091.05" id="path252" fill="#FFE6C2" fill-rule="evenodd" stroke="none" />
          <path d="M2247.09 2091.96C2244.77 2091.96 2242.44 2091.95 2240.12 2091.93C2225.36 2075.25 2203.36 2052.49 2176.09 2030.53C2128.48 1992.17 2054.57 1948.43 1973 1958C1928.13 1963.25 1866.83 1979.83 1829.55 2029.04C1817.85 2044.48 1811.44 2059.4 1808 2070.08L1807.96 2070.2C1807.73 2070.15 1807.49 2070.07 1807.28 2070L1807.27 2070L1803.19 2069.56C1803.25 2069.33 1803.32 2069.12 1803.39 2068.91C1806.89 2057.65 1813.55 2041.76 1826.07 2025.13C1847.16 1997.12 1889.69 1961.68 1972.6 1951.99C2055.45 1942.28 2130.32 1986.59 2178.56 2025.47C2208.6 2049.68 2232.31 2074.87 2247.09 2091.96" id="path254" fill="#EA9678" fill-rule="evenodd" stroke="none" />
          <path d="M2318.4 2091.71C2315.51 2091.73 2312.6 2091.76 2309.69 2091.79C2291.11 2072.85 2263.51 2047.12 2229.33 2022.28C2169.31 1978.67 2076.16 1928.92 1973.33 1939.79C1916.79 1945.76 1839.51 1964.63 1792.53 2020.57C1781.99 2033.12 1774.85 2045.36 1770.07 2055.77C1768.53 2059.11 1767.23 2062.25 1766.13 2065.15C1764.11 2064.91 1762.09 2064.64 1760.09 2064.37C1761.39 2060.73 1763.01 2056.72 1765 2052.41C1769.97 2041.68 1777.32 2029.11 1788.13 2016.15C1800.51 2001.32 1818.72 1984.67 1845.21 1970C1875.63 1953.12 1916.96 1938.87 1972.84 1932.96C1999.68 1930.13 2025.85 1931.35 2050.97 1935.48L2051.07 1935.49C2123.61 1947.45 2187.28 1983.68 2232.43 2016.51C2270 2043.84 2299.75 2072.27 2318.4 2091.71" id="path256" fill="#EA9678" fill-rule="evenodd" stroke="none" />
          <path d="M2096.03 2052.77C2088.28 2065.99 2062.73 2073.13 2037.87 2075.89C2033.71 2076.36 2029.57 2076.68 2025.53 2076.92C1997.25 2078.47 1958.79 2075.09 1935.61 2060.96L1937.31 2055.53C1956.05 2066.96 1989.67 2072.85 2025.05 2070.91C2059.23 2069.03 2085.64 2060.39 2092.36 2048.91C2096.21 2042.32 2095.97 2033.47 2091.69 2024.61C2078.57 1997.57 2033.92 1977.63 1963.71 1994.08C1933.73 2001.09 1893.64 2016.25 1872.77 2048.59C1865.97 2059.13 1863 2068.84 1861.72 2075.44C1860.15 2075.29 1858.59 2075.15 1857.01 2075C1858.25 2067.75 1861.35 2056.89 1868.91 2045.03C1886.23 2017.79 1917.76 1998.67 1962.64 1988.15C2039.95 1970.04 2082.52 1994.85 2095.48 2021.61C2100.8 2032.6 2101.03 2044.25 2096.03 2052.77" id="path258" fill="#EA9678" fill-rule="evenodd" stroke="none" />
          <path d="M2726.36 2024.43C2722.97 2050.83 2672.68 2068.84 2643.29 2077.17L2643.28 2077.17C2632.71 2078.07 2621.96 2078.93 2611.05 2079.75C2637.59 2073.93 2718.41 2048.93 2721.71 2023.15C2722.55 2016.6 2718.48 2009.53 2709.61 2002.11C2653.67 1955.23 2378.76 2013.56 2375.99 2014.16L2375.31 2007.28C2376 2007.13 2445.72 1992.25 2521.55 1983.44C2623.71 1971.56 2687.77 1975.8 2711.96 1996.08C2722.76 2005.12 2727.6 2014.67 2726.36 2024.43" id="path260" fill="#EA9678" fill-rule="evenodd" stroke="none" />
          <path d="M2437.59 2089.05L2434.59 2089.16C2433.48 2089.2 2432.39 2089.23 2431.28 2089.27C2419.39 2072.31 2345.48 1968.4 2292.88 1928.11L2293.96 1925.03L2293.97 1925.01L2295.05 1921.96C2295.56 1922.35 2296.07 1922.75 2296.59 1923.15C2354.24 1968.27 2436.79 2087.88 2437.59 2089.05" id="path262" fill="#EA9678" fill-rule="evenodd" stroke="none" />
          <path d="M2884.75 2000.25C2881.65 2024.53 2859.01 2043.47 2847.19 2051.8C2840.41 2053.03 2833.44 2054.23 2826.28 2055.39C2835.48 2050 2876.87 2024.49 2880.09 1998.97C2881.27 1989.59 2878.47 1980.24 2871.73 1971.17C2841.79 1930.81 2696.49 1835.92 2517.68 1903.85C2393.95 1950.85 2349.84 1981.17 2349.4 1981.48L2347.37 1975.21C2347.81 1974.91 2392.19 1944.35 2516.49 1897.13C2612.37 1860.69 2695.61 1872.73 2748.57 1889.25C2810.92 1908.71 2856.96 1941.84 2874.93 1966.07C2882.95 1976.85 2886.24 1988.35 2884.75 2000.25" id="path264" fill="#EA9678" fill-rule="evenodd" stroke="none" />
          <path d="M1929.44 1822.16C1929.44 1822.16 1898.4 1838.32 1928.6 1874.41C1958.81 1910.52 2046.63 1875.48 2084.4 1895.35C2122.19 1915.21 2091.55 1944.59 2134.87 1970.27C2178.19 1995.95 2219.92 1909.68 2262.43 1934.2C2304.93 1958.73 2449.92 1993.29 2452.35 1943.83C2454.79 1894.35 2523.81 1875.43 2549.92 1860.6C2576.03 1845.77 2481.64 1822.16 2434.59 1816.08C2401.99 1811.87 2245.16 1728.01 2150.87 1752.55C2056.57 1777.08 1973.23 1797.49 1929.44 1822.16" id="path266" fill="#C65447" fill-rule="evenodd" stroke="none" />
          <path d="M2211.15 1761.91C2213.79 1740.73 2208.43 1678.05 2204.31 1674.23C2200.19 1670.4 2162.48 1707.76 2157.16 1727.33C2151.84 1746.91 2159.23 1773.65 2173.65 1787.07C2188.08 1800.48 2208.45 1783.37 2211.15 1761.91" id="path268" fill="#8FC482" fill-rule="evenodd" stroke="none" />
          <path d="M2351.55 1898.31C2349 1893.87 2334.08 1884.28 2332.69 1884.95C2331.29 1885.6 2331.36 1902.24 2333.89 1906.67C2336.44 1911.11 2342.44 1912.83 2347.31 1910.52C2352.19 1908.21 2354.08 1902.75 2351.55 1898.31" id="path270" fill="#FFE6C2" fill-rule="evenodd" stroke="none" />
          <path d="M2038.52 1836.31C2042.52 1832.87 2048.56 1817.17 2047.49 1816.13C2046.41 1815.11 2028.85 1819.71 2024.87 1823.13C2020.87 1826.57 2020.69 1832.29 2024.47 1835.93C2028.24 1839.57 2034.53 1839.73 2038.52 1836.31" id="path272" fill="#FFE6C2" fill-rule="evenodd" stroke="none" />
          <path d="M2182.52 1883.57C2177.08 1882.96 2159.93 1888.69 2159.73 1890.11C2159.53 1891.52 2174.6 1900.92 2180.05 1901.55C2185.51 1902.17 2190.48 1898.65 2191.16 1893.69C2191.84 1888.72 2187.97 1884.2 2182.52 1883.57" id="path274" fill="#FFE6C2" fill-rule="evenodd" stroke="none" />
          <path d="M2147.23 1724.92C2126.32 1712.77 2057.32 1712.81 2055.95 1717.51C2054.56 1722.2 2108.23 1793.72 2129.13 1805.87C2150.04 1818 2171.64 1803.99 2176.47 1787.53C2181.29 1771.07 2168.13 1737.07 2147.23 1724.92" id="path276" fill="#A8D29F" fill-rule="evenodd" stroke="none" />
          <path d="M2354.75 1836.11C2360.04 1834.79 2373.49 1823.53 2373.08 1822.16C2372.67 1820.79 2354.8 1817.32 2349.51 1818.63C2344.2 1819.95 2341.08 1824.93 2342.53 1829.75C2343.97 1834.57 2349.44 1837.43 2354.75 1836.11" id="path278" fill="#FFE6C2" fill-rule="evenodd" stroke="none" />
          <path d="M2278.68 1851.95C2274.31 1848.91 2256.32 1846.04 2255.36 1847.17C2254.41 1848.31 2262.27 1863.32 2266.63 1866.35C2271 1869.39 2277.24 1868.61 2280.57 1864.63C2283.89 1860.65 2283.05 1854.97 2278.68 1851.95" id="path280" fill="#FFE6C2" fill-rule="evenodd" stroke="none" />
          <path d="M2770.21 2225.96L2954.08 2225.96L2923.68 2164.07L2739.81 2164.07L2770.21 2225.96" id="path282" fill="#FFE6C2" fill-rule="evenodd" stroke="none" />
          <path d="M2926.2 2195.01C2933.96 2210.79 2945.17 2223.79 2952.35 2225.71C2952.96 2225.88 2953.53 2225.96 2954.08 2225.96C2961.07 2225.96 2959.95 2212.11 2951.55 2195.01C2943.15 2177.93 2930.67 2164.08 2923.68 2164.08C2923.12 2164.08 2922.63 2164.16 2922.17 2164.33C2916.89 2166.27 2918.47 2179.28 2926.2 2195.01" id="path284" fill="#FFE6C2" fill-rule="evenodd" stroke="none" />
          <path d="M2770.21 2225.96C2767 2225.96 2762.63 2223.03 2758.01 2218.2C2757.09 2217.24 2756.15 2216.19 2755.23 2215.07C2752.83 2212.23 2750.44 2208.95 2748.15 2205.35C2747.49 2204.33 2746.85 2203.28 2746.23 2202.21C2744.87 2199.91 2743.56 2197.51 2742.35 2195.03L2742.17 2194.67C2741.65 2193.6 2741.16 2192.56 2740.71 2191.52C2739.76 2189.39 2738.92 2187.29 2738.21 2185.31C2737.84 2184.24 2737.49 2183.19 2737.17 2182.17C2736.28 2179.24 2735.69 2176.55 2735.43 2174.17C2735.28 2173.04 2735.21 2172 2735.23 2171.04C2735.28 2166.68 2736.79 2164.08 2739.81 2164.08C2742.84 2164.08 2746.92 2166.68 2751.24 2171.04C2752.19 2172 2753.17 2173.04 2754.13 2174.17C2756.17 2176.55 2758.24 2179.24 2760.23 2182.17C2760.93 2183.19 2761.6 2184.24 2762.28 2185.31C2763.52 2187.29 2764.73 2189.39 2765.89 2191.52C2766.44 2192.56 2766.99 2193.6 2767.51 2194.67L2767.69 2195.03C2768.91 2197.49 2769.96 2199.91 2770.87 2202.21C2771.29 2203.28 2771.68 2204.33 2772.04 2205.35C2773.28 2208.95 2774.11 2212.23 2774.51 2215.07C2774.68 2216.19 2774.76 2217.23 2774.79 2218.2C2774.93 2223.03 2773.43 2225.96 2770.21 2225.96" id="path286" fill="#FFE6C2" fill-rule="evenodd" stroke="none" />
          <path d="M2931.73 2191.52L2931.73 2194.67L2742.17 2194.67C2741.65 2193.6 2741.16 2192.56 2740.71 2191.52L2931.73 2191.52" id="path288" fill="#F2B499" fill-rule="evenodd" stroke="none" />
          <path d="M2737.17 2182.17L2927.81 2182.17L2927.81 2185.31L2738.21 2185.31L2737.17 2182.17" id="path290" fill="#F2B499" fill-rule="evenodd" stroke="none" />
          <path d="M2924.73 2171.04L2924.73 2174.17L2735.43 2174.17C2735.28 2173.04 2735.21 2172 2735.23 2171.04L2924.73 2171.04" id="path292" fill="#F2B499" fill-rule="evenodd" stroke="none" />
          <path d="M2937.53 2202.21L2937.53 2205.35L2748.15 2205.35C2747.49 2204.33 2746.85 2203.28 2746.23 2202.21L2937.53 2202.21" id="path294" fill="#F2B499" fill-rule="evenodd" stroke="none" />
          <path d="M2945.07 2215.07L2945.07 2218.2L2758.01 2218.2C2757.09 2217.24 2756.15 2216.19 2755.23 2215.07L2945.07 2215.07" id="path296" fill="#F2B499" fill-rule="evenodd" stroke="none" />
          <path d="M2926.2 2195.01C2933.96 2210.79 2945.17 2223.79 2952.35 2225.71C2957.61 2223.77 2956.04 2210.76 2948.31 2195.01C2940.57 2179.25 2929.36 2166.25 2922.17 2164.33C2916.89 2166.27 2918.47 2179.28 2926.2 2195.01" id="path298" fill="#EA9678" fill-rule="evenodd" stroke="none" />
          <path d="M1030.99 2225.77C1030.36 2225.77 1029.72 2225.68 1029.09 2225.47C1026 2224.41 1024.36 2221.07 1025.41 2217.99L1278.53 1474.85C1279.58 1471.77 1282.92 1470.12 1286.01 1471.17C1289.09 1472.23 1290.74 1475.57 1289.69 1478.65L1036.56 2221.79C1035.73 2224.24 1033.44 2225.77 1030.99 2225.77" id="path300" fill="#163560" fill-rule="evenodd" stroke="none" />
          <path d="M681.057 2225.77C680.429 2225.77 679.788 2225.68 679.157 2225.47C676.079 2224.41 674.431 2221.07 675.479 2217.99L928.605 1474.85C929.655 1471.77 933.005 1470.12 936.084 1471.17C939.165 1472.23 940.811 1475.57 939.761 1478.65L686.637 2221.79C685.801 2224.24 683.511 2225.77 681.057 2225.77" id="path302" fill="#163560" fill-rule="evenodd" stroke="none" />
          <path d="M1177.65 1789.23L833.715 1789.23C830.504 1789.23 827.905 1786.59 827.905 1783.33C827.905 1780.08 830.504 1777.44 833.715 1777.44L1177.65 1777.44C1180.86 1777.44 1183.46 1780.08 1183.46 1783.33C1183.46 1786.59 1180.86 1789.23 1177.65 1789.23" id="path304" fill="#163560" fill-rule="evenodd" stroke="none" />
          <path d="M1113.25 1974.11L766.784 1974.11C763.529 1974.11 760.892 1971.47 760.892 1968.21C760.892 1964.96 763.529 1962.32 766.784 1962.32L1113.25 1962.32C1116.51 1962.32 1119.15 1964.96 1119.15 1968.21C1119.15 1971.47 1116.51 1974.11 1113.25 1974.11" id="path306" fill="#163560" fill-rule="evenodd" stroke="none" />
          <path d="M1482.33 882.253C1454.11 872.227 1418.08 871.347 1409.24 887.72C1401.49 902.053 1307.03 1118.28 1290.19 1156.89L1274.96 1156.89L1402.21 863.133C1402.21 863.133 1427.71 828.533 1488.71 851.293C1549.71 874.053 1510.56 892.267 1482.33 882.253" id="path308" fill="#163560" fill-rule="evenodd" stroke="none" />
          <path d="M1081.21 1012.08C1067.56 1038.12 983.505 1118.36 988.059 1127.88C992.204 1136.52 987.241 1220.53 985.156 1252.8L985.156 1252.87C984.651 1260.59 984.324 1265.31 984.324 1265.31C981.569 1271.88 974.071 1274.73 968.495 1275.96C964.785 1276.79 961.923 1276.89 961.923 1276.89C961.923 1276.89 960.764 1272.61 958.896 1265.32C955.419 1251.77 949.501 1227.81 944.13 1201.87C935.745 1161.39 928.696 1116.04 934.328 1097.71C1004.15 870.2 1075.77 944.253 1075.77 944.253C1075.77 944.253 1094.86 986.04 1081.21 1012.08" id="path310" fill="#CFE5FF" fill-rule="evenodd" stroke="none" />
          <path d="M985.156 1252.8L985.156 1252.87C984.651 1260.59 984.324 1265.31 984.324 1265.31C981.569 1271.88 974.071 1274.73 968.495 1275.96C965.332 1272.89 962.032 1269.35 958.896 1265.32C955.419 1251.77 949.501 1227.81 944.13 1201.87C951.52 1155.2 980.684 1085.71 980.684 1085.71L985.156 1252.8" id="path312" fill="#AFD1F2" fill-rule="evenodd" stroke="none" />
          <path d="M950.192 1735.72C950.192 1735.72 945.329 1776.85 953.24 1777.44C954.292 1777.52 1000.17 1777.45 1000.17 1777.45L1051.63 1777.45C1051.63 1777.45 1050.32 1764.96 1035.74 1762.43C1021.16 1759.88 996.752 1749.64 987.92 1730.37C978.629 1710.09 950.192 1735.72 950.192 1735.72" id="path314" fill="#C65447" fill-rule="evenodd" stroke="none" />
          <path d="M947.316 1738.56C947.316 1738.56 962.479 1743.63 974.317 1743.63C987.523 1743.63 999.525 1740.03 999.525 1740.03C999.525 1740.03 1002.38 1712.43 1018.09 1651.6C1026.33 1619.72 1038.09 1578.72 1054.82 1527.79C1101.09 1387 1115.16 1304.64 1116.44 1296.85C1116.51 1296.44 1116.54 1296.23 1116.54 1296.23L1116.39 1296.16L974.144 1233.71C974.144 1233.71 991.724 1427.73 969.295 1502.21C966.153 1512.63 963.463 1524.75 961.153 1537.89C946.988 1618.79 947.316 1738.56 947.316 1738.56" id="path316" fill="#F99746" fill-rule="evenodd" stroke="none" />
          <path d="M961.153 1537.89L1018.09 1651.6C1026.33 1619.72 1038.09 1578.72 1054.82 1527.79C1101.09 1387 1115.16 1304.64 1116.44 1296.85C1116.43 1296.61 1116.41 1296.4 1116.39 1296.16L974.144 1233.71C974.144 1233.71 991.724 1427.73 969.295 1502.21C966.153 1512.63 963.463 1524.75 961.153 1537.89" id="path318" fill="#ED7D2B" fill-rule="evenodd" stroke="none" />
          <path d="M1061.29 1735.72C1061.29 1735.72 1063.18 1776.85 1071.09 1777.44C1072.14 1777.52 1111.86 1777.28 1111.86 1777.28L1162.47 1777.44C1162.47 1777.44 1161.41 1764.96 1146.83 1762.43C1132.25 1759.88 1107.85 1749.64 1099.02 1730.37C1089.73 1710.09 1061.29 1735.72 1061.29 1735.72" id="path320" fill="#C65447" fill-rule="evenodd" stroke="none" />
          <path d="M1141.93 1238.28C1141.93 1238.28 1143.78 1364.01 1122.03 1518.39C1100.27 1672.76 1107.65 1738.29 1107.65 1738.29C1107.65 1738.29 1092.7 1743.13 1086.67 1743.63C1071.3 1744.88 1055.55 1740.03 1055.55 1740.03C1055.55 1740.03 1024.41 1585.6 1033.34 1508.32C1042.26 1431.05 990.7 1243.19 990.7 1243.19L1141.93 1238.28" id="path322" fill="#F99746" fill-rule="evenodd" stroke="none" />
          <path d="M1038.33 939.093L1063.28 961L1104.05 959.2C1103.95 955.92 1103.21 942.253 1102.52 929.88C1102.47 929.147 1102.43 928.413 1102.39 927.707C1101.79 917.173 1101.27 908.12 1101.27 908.12L1066.47 886.52L1053.5 878.466C1053.51 878.68 1052.97 889.987 1052.89 891.626C1051.4 920.906 1038.33 939.093 1038.33 939.093" id="path324" fill="#FFB27D" fill-rule="evenodd" stroke="none" />
          <path d="M1150.23 1243.72C1149.65 1310.08 1145.23 1465.33 1141.97 1468.49C1107.41 1501.87 955.372 1459.35 947.311 1422.59C939.26 1385.83 977.944 951.267 1036.98 933.92C1049.23 930.32 1104.05 965.12 1104.05 965.12C1104.05 965.12 1125 978.36 1131.74 1012.6C1134.24 1025.29 1142.39 1115.8 1147.15 1176.28C1148.4 1192.41 1149.43 1206.4 1150.04 1216.2C1150.28 1220.25 1150.34 1230.13 1150.23 1243.72" id="path326" fill="#CFE5FF" fill-rule="evenodd" stroke="none" />
          <path d="M1055.6 892.533C1061.8 907.48 1090.47 923.707 1102.52 929.88C1102.47 929.147 1102.43 928.413 1102.39 927.707C1101.79 917.173 1101.27 908.12 1101.27 908.12L1066.47 886.52C1058.29 885.253 1053.04 886.373 1055.6 892.533" id="path328" fill="#FCA56B" fill-rule="evenodd" stroke="none" />
          <path d="M1114.13 909.6C1114.13 909.6 1051.18 915.453 1048.13 876.187C1045.09 836.933 1034.92 811.24 1074.99 805.84C1115.05 800.453 1124.03 814.827 1128.23 827.68C1132.44 840.547 1130.43 907.067 1114.13 909.6" id="path330" fill="#FFB27D" fill-rule="evenodd" stroke="none" />
          <path d="M1121.2 826.947L1101.58 857.293C1093.09 853.533 1089.01 855.2 1087.55 868.44C1086.09 881.667 1064.37 895.84 1054.2 882.106C1054.2 882.106 1015.12 813.146 1025.49 801.373C1041.89 782.746 1081.49 787.68 1109.42 790.186C1138.53 792.8 1142.48 824.506 1121.2 826.946" id="path332" fill="#163560" fill-rule="evenodd" stroke="none" />
          <path d="M1150.23 1243.72C1044.72 1137.56 1038.8 1031.4 1038.8 1031.4C1095.08 1063.16 1128.55 1063.69 1145.89 1121.39C1147.14 1137.51 1149.43 1206.4 1150.04 1216.2C1150.28 1220.25 1150.34 1230.13 1150.23 1243.72" id="path334" fill="#AFD1F2" fill-rule="evenodd" stroke="none" />
          <path d="M1319.16 1037.75C1319.16 1037.75 1324.56 1031.21 1326.54 1028.55C1329.15 1024.69 1341.04 1020.56 1355.85 1018.63C1355.85 1018.63 1367.11 1020.04 1360.28 1030.21C1355.73 1037.01 1356.25 1033 1349.68 1042.48C1343.11 1051.97 1332.69 1057.63 1324.38 1055.76L1314.92 1057.49L1307.77 1042.68L1319.16 1037.75" id="path336" fill="#FFB27D" fill-rule="evenodd" stroke="none" />
          <path d="M1031.39 971.947C1031.39 971.947 955.075 1042.31 1183.38 1142.63C1218.23 1157.93 1326.54 1060.72 1326.54 1060.72C1326.54 1060.72 1325.12 1042.76 1316.32 1034.81C1316.32 1034.81 1207.78 1074.75 1195.97 1076.03C1185.48 1077.17 1124.07 980.747 1104.05 959.2C1084.03 937.667 1031.39 971.946 1031.39 971.946" id="path338" fill="#CFE5FF" fill-rule="evenodd" stroke="none" />
          <path d="M1128.49 794.413C1128.49 794.413 1117.14 893.893 1052.55 896.187L1023.05 855.293C1023.05 855.293 1088.85 831.68 1082.49 777.587L1128.49 794.413" id="path340" fill="#CFE5FF" fill-rule="evenodd" stroke="none" />
          <path d="M1039.02 746.48C1039.02 746.48 1066.86 738.707 1086.41 754.453C1105.95 770.213 1106.35 795.6 1093.3 811.92C1089.27 816.96 1097.94 840.667 1085.35 856.933C1072.76 873.213 1048.88 874.533 1037.35 871.466C1026.77 868.667 1007.97 886.706 988.919 869.413C966.587 849.16 976.749 811.186 976.749 811.186C976.749 811.186 986.836 750.626 1039.02 746.48" id="path342" fill="#739AF0" fill-rule="evenodd" stroke="none" />
          <path d="M1098.82 938.653C1098.04 938.32 1053.75 914.733 1048.58 916.44C1043.42 918.147 1036.98 933.92 1036.98 933.92L1108.22 964.027C1108.22 964.027 1108.75 942.827 1098.82 938.653" id="path344" fill="#AFD1F2" fill-rule="evenodd" stroke="none" />
          <path d="M566.953 2226.24L826.041 2226.24L783.196 2139.03L524.108 2139.03L566.953 2226.24" id="path346" fill="#FFE6C2" fill-rule="evenodd" stroke="none" />
          <path d="M786.761 2182.63C797.687 2204.85 813.493 2223.19 823.608 2225.88C824.465 2226.12 825.276 2226.24 826.041 2226.24C835.895 2226.24 834.304 2206.72 822.476 2182.63C810.632 2158.56 793.051 2139.04 783.196 2139.04C782.416 2139.04 781.712 2139.16 781.084 2139.4C773.648 2142.13 775.867 2160.45 786.761 2182.63" id="path348" fill="#FFE6C2" fill-rule="evenodd" stroke="none" />
          <path d="M566.949 2226.24C562.419 2226.24 556.256 2222.11 549.753 2215.31C548.461 2213.95 547.128 2212.47 545.821 2210.88C542.447 2206.88 539.073 2202.25 535.849 2197.2C534.937 2195.76 534.027 2194.28 533.141 2192.77C531.223 2189.52 529.387 2186.13 527.672 2182.64C527.591 2182.48 527.509 2182.29 527.428 2182.13C526.693 2180.64 526.013 2179.17 525.373 2177.72C524.027 2174.69 522.843 2171.76 521.849 2168.95C521.319 2167.44 520.829 2165.97 520.393 2164.55C519.129 2160.4 518.299 2156.6 517.917 2153.27C517.713 2151.68 517.632 2150.19 517.645 2148.84C517.713 2142.71 519.836 2139.04 524.108 2139.04C528.38 2139.04 534.121 2142.71 540.203 2148.84C541.549 2150.2 542.924 2151.68 544.284 2153.27C547.168 2156.6 550.08 2160.4 552.883 2164.55C553.861 2165.97 554.815 2167.44 555.767 2168.95C557.521 2171.76 559.223 2174.69 560.855 2177.72C561.631 2179.17 562.392 2180.64 563.127 2182.13C563.223 2182.29 563.304 2182.48 563.385 2182.64C565.1 2186.12 566.596 2189.52 567.875 2192.77C568.473 2194.28 569.017 2195.76 569.521 2197.2C571.263 2202.25 572.433 2206.88 573.004 2210.88C573.235 2212.47 573.357 2213.93 573.385 2215.31C573.603 2222.11 571.48 2226.24 566.949 2226.24" id="path350" fill="#FFE6C2" fill-rule="evenodd" stroke="none" />
          <path d="M794.559 2177.72L794.559 2182.13L527.428 2182.13C526.693 2180.64 526.013 2179.17 525.373 2177.72L794.559 2177.72" id="path352" fill="#F2B499" fill-rule="evenodd" stroke="none" />
          <path d="M520.393 2164.55L789.021 2164.55L789.021 2168.95L521.849 2168.95L520.393 2164.55" id="path354" fill="#F2B499" fill-rule="evenodd" stroke="none" />
          <path d="M784.695 2148.84L784.695 2153.27L517.917 2153.27C517.713 2151.68 517.632 2150.19 517.645 2148.84L784.695 2148.84" id="path356" fill="#F2B499" fill-rule="evenodd" stroke="none" />
          <path d="M802.721 2192.77L802.721 2197.2L535.849 2197.2C534.937 2195.76 534.027 2194.28 533.141 2192.77L802.721 2192.77" id="path358" fill="#F2B499" fill-rule="evenodd" stroke="none" />
          <path d="M813.333 2210.88L813.333 2215.31L549.753 2215.31C548.461 2213.95 547.128 2212.47 545.821 2210.88L813.333 2210.88" id="path360" fill="#F2B499" fill-rule="evenodd" stroke="none" />
          <path d="M786.761 2182.63C797.687 2204.85 813.493 2223.19 823.608 2225.88C831.029 2223.15 828.811 2204.81 817.916 2182.63C807.005 2160.43 791.199 2142.09 781.084 2139.4C773.648 2142.13 775.867 2160.45 786.761 2182.63" id="path362" fill="#EA9678" fill-rule="evenodd" stroke="none" />
          <path d="M1153.24 2220.35C1077.98 2240.17 1016.62 2204.69 996.927 2129.95L1068.52 2111.08C1080.67 2157.2 1111.93 2154.67 1134.38 2148.76C1181.58 2136.32 1177.2 2098.99 1173.12 2083.52L1244.71 2064.65C1260.33 2123.92 1238.37 2197.92 1153.24 2220.35" id="path364" fill="#FFE6C2" fill-rule="evenodd" stroke="none" />
          <path d="M1113.92 2214.45C1075.85 2214.45 1049.18 2194.52 1032.74 2176.29C1012.11 2153.41 1003.08 2128.96 1002.71 2127.93L1007.11 2126.28C1007.2 2126.52 1016.26 2150.99 1036.31 2173.17C1063 2202.72 1095.51 2214.44 1132.94 2208.01C1172.78 2201.17 1201.81 2180.31 1219.25 2146C1233.72 2117.51 1236.62 2085.56 1234.5 2065.16L1239.18 2064.65C1241.36 2085.75 1238.37 2118.76 1223.42 2148.19C1205.53 2183.41 1174.51 2205.73 1133.73 2212.73C1126.81 2213.92 1120.21 2214.45 1113.92 2214.45" id="path366" fill="#F2B499" fill-rule="evenodd" stroke="none" />
          <path d="M1116.47 2197.39C1093.59 2197.39 1071.54 2187.41 1051.59 2167.83C1030.97 2147.59 1020.03 2124.61 1019.57 2123.64L1023.81 2121.57C1023.92 2121.8 1034.9 2144.84 1054.94 2164.48C1081.52 2190.52 1110.64 2198.59 1141.49 2188.47C1175.57 2177.27 1198.42 2154.03 1209.38 2119.4C1217.61 2093.41 1215.69 2070.4 1215.67 2070.17L1220.35 2069.73C1220.44 2070.71 1222.39 2093.81 1213.91 2120.71C1206.05 2145.64 1187.35 2178.43 1142.93 2193.01C1134.04 2195.93 1125.19 2197.39 1116.47 2197.39" id="path368" fill="#F2B499" fill-rule="evenodd" stroke="none" />
          <path d="M1118.41 2171.91C1069.11 2171.91 1044.67 2121.55 1044.4 2120.96L1048.63 2118.89C1048.71 2119.05 1056.14 2134.52 1070.84 2147.81C1090.34 2165.43 1112.78 2171.07 1137.54 2164.56C1198.41 2148.56 1191.25 2081.77 1191.18 2081.11L1195.84 2080.53C1195.93 2081.25 1203.52 2152.16 1138.71 2169.19C1131.53 2171.08 1124.76 2171.91 1118.41 2171.91" id="path370" fill="#F2B499" fill-rule="evenodd" stroke="none" />
          <path d="M1068.98 2110.96C1069.66 2113.55 1054.09 2119.91 1034.19 2125.15C1014.29 2130.39 997.611 2132.53 996.927 2129.95C996.244 2127.35 1011.82 2121 1031.72 2115.76C1051.61 2110.52 1068.3 2108.36 1068.98 2110.96" id="path372" fill="#EA9678" fill-rule="evenodd" stroke="none" />
          <path d="M1244.71 2064.65C1245.4 2067.24 1229.82 2073.6 1209.92 2078.84C1190.03 2084.08 1173.34 2086.23 1172.66 2083.64C1171.98 2081.05 1187.55 2074.69 1207.45 2069.45C1227.35 2064.21 1244.03 2062.07 1244.71 2064.65" id="path374" fill="#EA9678" fill-rule="evenodd" stroke="none" />
          <path d="M3051.01 2216.51C2978.05 2189.37 2948.33 2125.03 2975.28 2052.57L3044.68 2078.39C3028.05 2123.09 3055.05 2139.01 3076.81 2147.11C3122.57 2164.13 3140.48 2131.09 3146.07 2116.09L3215.45 2141.91C3194.09 2199.35 3133.51 2247.19 3051.01 2216.51" id="path376" fill="#FFE6C2" fill-rule="evenodd" stroke="none" />
          <path d="M3022.25 2189.04C2991.13 2167.12 2980.81 2135.45 2977.87 2111.09C2974.19 2080.51 2980.88 2055.32 2981.17 2054.25L2985.73 2055.44C2985.65 2055.69 2978.97 2080.91 2982.59 2110.6C2987.39 2150.11 3007.21 2178.43 3041.52 2194.72C3078.01 2212.08 3113.77 2211.75 3147.79 2193.73C3176.03 2178.77 3196.8 2154.33 3206.83 2136.44L3210.93 2138.72C3200.57 2157.21 3179.11 2182.48 3149.93 2197.93C3115.03 2216.43 3076.81 2216.8 3039.44 2199.03C3033.11 2196.03 3027.4 2192.67 3022.25 2189.04" id="path378" fill="#F2B499" fill-rule="evenodd" stroke="none" />
          <path d="M3034.17 2176.55C3015.47 2163.37 3003.17 2142.52 2998.16 2115.03C2992.96 2086.6 2997.24 2061.51 2997.43 2060.45L3002.08 2061.21C3002.04 2061.45 2997.75 2086.61 3002.83 2114.21C3009.56 2150.81 3028.71 2174.19 3059.76 2183.67C3094.08 2194.15 3126.13 2188.31 3155.04 2166.32C3176.73 2149.81 3188.41 2129.89 3188.53 2129.69L3192.61 2132.03C3192.12 2132.87 3180.4 2152.88 3157.99 2169.99C3137.2 2185.84 3103.04 2201.88 3058.32 2188.23C3049.37 2185.48 3041.31 2181.57 3034.17 2176.55" id="path380" fill="#F2B499" fill-rule="evenodd" stroke="none" />
          <path d="M3050.43 2156.84C3010.12 2128.45 3019.16 2073.2 3019.27 2072.57L3023.92 2073.32C3023.89 2073.48 3021.05 2090.41 3025.43 2109.75C3031.21 2135.39 3046.31 2152.91 3070.31 2161.85C3129.28 2183.83 3161.89 2125.12 3162.21 2124.52L3166.36 2126.75C3166.01 2127.37 3131.39 2189.71 3068.6 2166.31C3061.64 2163.72 3055.63 2160.51 3050.43 2156.84" id="path382" fill="#F2B499" fill-rule="evenodd" stroke="none" />
          <path d="M3045.12 2078.55C3044.19 2081.05 3027.8 2077.28 3008.51 2070.11C2989.23 2062.93 2974.35 2055.08 2975.28 2052.57C2976.23 2050.05 2992.61 2053.84 3011.89 2061.01C3031.19 2068.19 3046.05 2076.04 3045.12 2078.55" id="path384" fill="#EA9678" fill-rule="evenodd" stroke="none" />
          <path d="M3215.45 2141.91C3214.52 2144.41 3198.13 2140.64 3178.84 2133.47C3159.56 2126.29 3144.68 2118.44 3145.61 2115.93C3146.55 2113.41 3162.95 2117.19 3182.23 2124.36C3201.51 2131.53 3216.39 2139.39 3215.45 2141.91" id="path386" fill="#EA9678" fill-rule="evenodd" stroke="none" />
          <path d="M3831.2 2235.61L203.86 2235.61C201.595 2235.61 199.74 2233.76 199.74 2231.49L199.74 2230.08C199.74 2227.81 201.595 2225.96 203.86 2225.96L3831.2 2225.96C3833.47 2225.96 3835.32 2227.81 3835.32 2230.08L3835.32 2231.49C3835.32 2233.76 3833.47 2235.61 3831.2 2235.61" id="path388" fill="#233862" fill-rule="evenodd" stroke="none" />
          <path d="M2545.79 1518.73L2221.73 1518.73C2214.79 1518.73 2209.15 1513.11 2209.15 1506.15C2209.15 1499.2 2214.79 1493.56 2221.73 1493.56L2545.79 1493.56C2552.75 1493.56 2558.37 1499.2 2558.37 1506.15C2558.37 1513.11 2552.75 1518.73 2545.79 1518.73" id="path390" fill="#AFCDFB" fill-rule="evenodd" stroke="none" />
        </g>
      </g>
    </g>
  </g>
</svg>